<?xml version="1.0" encoding="UTF-8"?>
<svg id="_图层_1" data-name="图层_1" xmlns="http://www.w3.org/2000/svg" version="1.1" viewBox="0 0 227.06 46.53">
  <!-- Generator: Adobe Illustrator 30.2.0, SVG Export Plug-In . SVG Version: 2.1.1 Build 105)  -->
  <defs>
    <style>
      .st0 {
        fill: none;
        stroke: #000;
        stroke-linecap: round;
        stroke-linejoin: round;
        stroke-width: .39px;
      }
    </style>
  </defs>
  <line class="st0" x1="25.14" y1="23.26" x2="35.79" y2="23.26"/>
  <path d="M29.41,15.63c.02-.09.04-.19.06-.3.02-.11.03-.21.03-.29s-.02-.15-.05-.19c-.03-.04-.08-.07-.14-.09-.06-.02-.16-.03-.32-.04l.05-.22,1.08-.04h.25l-1.11,4.8c-.04.18-.07.31-.08.39-.01.09-.02.16-.02.22,0,.11.03.2.1.25.07.05.19.08.38.1l-.04.2h-1.23l.27-1.05-.06-.02c-.27.39-.54.67-.78.85-.25.18-.51.27-.78.27-.31,0-.56-.11-.73-.35-.17-.23-.26-.55-.26-.97,0-.27.03-.53.09-.8.06-.27.16-.52.29-.76.13-.24.28-.45.46-.64.18-.18.38-.33.62-.44.23-.11.49-.16.76-.16.17,0,.34.02.48.05.15.03.3.1.45.18l.22-.96ZM28.88,17.88c.04-.2.06-.39.06-.57,0-.22-.05-.37-.14-.47-.09-.1-.25-.15-.47-.15-.12,0-.23.02-.34.06-.11.04-.22.1-.33.19-.11.09-.22.2-.32.34-.1.14-.19.31-.28.52-.08.2-.15.42-.19.65-.05.23-.07.46-.07.68,0,.29.04.51.12.65.08.14.22.21.41.21.09,0,.18-.02.28-.06.1-.04.2-.11.32-.21.12-.1.25-.26.4-.46.13-.19.24-.37.32-.55.08-.18.14-.4.2-.64l.04-.18Z"/>
  <path d="M32.97,14.73l-.05.2c-.12.02-.22.06-.29.12-.07.06-.11.15-.11.27,0,.18.05.4.14.67l.36,1.01.92-1.13c.04-.05.09-.11.13-.16.04-.06.08-.11.11-.17.03-.05.06-.1.07-.14.02-.04.03-.07.03-.1,0-.03.01-.06.01-.09,0-.07-.02-.14-.07-.19-.05-.05-.12-.08-.24-.09l.05-.2h1.6l-.05.2c-.09.03-.17.07-.24.12-.08.06-.17.14-.27.25-.1.11-.3.33-.58.66l-1.28,1.48.63,1.69c.09.26.17.45.23.58.06.14.12.24.16.3.04.05.08.08.12.11.04.03.11.05.2.08l-.04.2h-1.73l.04-.2c.13-.02.23-.06.3-.13.07-.07.11-.16.11-.26,0-.16-.03-.35-.1-.55l-.45-1.27-.98,1.19c-.15.18-.25.32-.32.44-.07.11-.1.21-.1.29,0,.07,0,.12.03.16.02.04.05.07.09.09.04.02.11.04.18.05l-.05.2h-1.6l.04-.2c.06-.02.11-.04.15-.06.04-.02.09-.06.15-.1.05-.04.12-.11.21-.21.09-.1.19-.21.31-.34l1.67-1.93-.64-1.71c-.06-.17-.12-.31-.17-.42-.05-.11-.1-.2-.14-.27-.05-.07-.1-.12-.15-.15s-.12-.06-.19-.07l.05-.2h1.73Z"/>
  <path d="M30.29,27.07c.02-.09.04-.19.06-.3.02-.11.03-.21.03-.29s-.02-.15-.05-.19c-.03-.04-.08-.07-.14-.09-.06-.02-.16-.03-.32-.04l.05-.22,1.08-.04h.25l-1.11,4.8c-.04.18-.07.31-.08.39-.01.09-.02.16-.02.22,0,.11.03.2.1.25.07.05.19.08.38.1l-.04.2h-1.23l.27-1.05-.06-.02c-.27.39-.54.67-.78.85-.25.18-.51.27-.78.27-.31,0-.56-.11-.73-.35-.17-.23-.26-.55-.26-.97,0-.27.03-.53.09-.8.06-.27.16-.52.29-.76.13-.24.28-.45.46-.64.18-.18.38-.33.62-.44.23-.11.49-.16.76-.16.17,0,.34.02.48.05.15.03.3.1.45.18l.22-.96ZM29.75,29.31c.04-.2.06-.39.06-.57,0-.22-.05-.37-.14-.47-.09-.1-.25-.15-.47-.15-.12,0-.23.02-.34.06-.11.04-.22.1-.33.19-.11.09-.22.2-.32.34-.1.14-.19.31-.28.52-.08.2-.15.42-.19.65-.05.23-.07.46-.07.68,0,.29.04.51.12.65.08.14.22.21.41.21.09,0,.18-.02.28-.06.1-.04.2-.11.32-.21.12-.1.25-.26.4-.46.13-.19.24-.37.32-.55.08-.18.14-.4.2-.64l.04-.18Z"/>
  <path d="M34,31.09c-.23.28-.47.48-.7.62-.23.14-.47.21-.73.21-.3,0-.53-.07-.68-.22-.15-.15-.22-.37-.22-.65,0-.17.03-.37.08-.59l.53-2.16h-.64l.05-.21c.17-.02.3-.05.4-.11.1-.05.18-.12.25-.2.07-.08.13-.2.19-.33.06-.14.13-.33.21-.6h.59l-.24,1.03h1.36l-.09.42h-1.37l-.41,1.62c-.11.45-.17.79-.17,1.01,0,.17.04.3.11.39.08.09.19.13.33.13.13,0,.27-.05.41-.15.14-.1.3-.25.47-.45l.25.25Z"/>
  <path d="M24.22,33.46c-3.89-4.27-3.89-16.13,0-20.39h.44c-3.62,4.27-3.62,16.13,0,20.39"/>
  <path d="M36.71,13.07c3.89,4.27,3.89,16.13,0,20.39h-.44c3.62-4.27,3.62-16.13,0-20.39"/>
  <path d="M44.65,31.99c-.25.26-.49.45-.73.58-.24.13-.5.2-.77.2-.32,0-.56-.07-.71-.21-.16-.14-.23-.35-.23-.61,0-.16.03-.35.08-.55l.56-2.03h-.67l.05-.2c.18-.02.32-.05.42-.1.1-.05.19-.11.26-.19.07-.08.14-.18.2-.31.06-.13.14-.31.23-.56h.62l-.25.97h1.43l-.1.39h-1.43l-.43,1.52c-.12.42-.18.74-.18.95,0,.16.04.28.12.36.08.08.2.12.35.12.14,0,.28-.05.44-.14.15-.09.32-.23.5-.42l.26.23Z"/>
  <line class="st0" x1="47.63" y1="22.37" x2="53.6" y2="22.37"/>
  <line class="st0" x1="47.63" y1="24.16" x2="53.6" y2="24.16"/>
  <path d="M57.58,22.11h.26l-.3,1.03.05.02c.27-.36.54-.63.8-.81.26-.18.53-.26.8-.26.21,0,.38.02.52.05l-.21.93h-.44c-.02-.14-.06-.25-.11-.33-.05-.08-.12-.11-.23-.11-.11,0-.24.06-.39.17-.15.11-.29.26-.45.46-.15.19-.27.37-.34.54-.08.16-.13.35-.17.55l-.39,1.8h-.74l.65-2.85c.06-.26.09-.46.09-.6,0-.08-.01-.14-.04-.18-.03-.04-.07-.08-.12-.1-.06-.02-.15-.04-.29-.04l.05-.22,1-.04Z"/>
  <line class="st0" x1="61.55" y1="23.26" x2="72.25" y2="23.26"/>
  <path d="M65.47,12.48l-.05.2c-.12.02-.22.06-.29.12-.07.06-.11.15-.11.27,0,.18.05.4.14.67l.36,1.01.92-1.13c.04-.05.09-.11.13-.16.04-.06.08-.11.11-.17.03-.05.06-.1.07-.14.02-.04.03-.07.03-.1,0-.03.01-.06.01-.09,0-.07-.02-.14-.07-.19-.05-.05-.12-.08-.24-.09l.05-.2h1.6l-.05.2c-.09.03-.17.07-.24.12-.08.06-.17.14-.27.25-.1.11-.3.33-.58.66l-1.28,1.48.63,1.69c.09.26.17.45.23.58.06.14.12.24.16.3.04.05.08.08.12.11.04.03.11.05.2.08l-.04.2h-1.73l.04-.2c.13-.02.23-.06.3-.13.07-.07.1-.16.1-.26,0-.16-.03-.35-.1-.55l-.45-1.27-.98,1.19c-.15.18-.25.32-.32.44-.07.11-.1.21-.1.29,0,.07,0,.12.03.16.02.04.05.07.09.09.04.02.11.04.18.05l-.05.2h-1.6l.04-.2c.06-.02.11-.04.15-.06.04-.02.09-.06.15-.1.05-.04.12-.11.21-.21.09-.1.19-.21.31-.34l1.67-1.93-.64-1.71c-.06-.17-.12-.31-.17-.42-.05-.11-.1-.2-.14-.27-.05-.07-.1-.12-.15-.15-.05-.03-.12-.06-.19-.07l.05-.2h1.73Z"/>
  <path d="M71.11,19.87c-.25.26-.49.45-.73.58-.24.13-.5.2-.77.2-.32,0-.56-.07-.71-.21-.16-.14-.23-.35-.23-.61,0-.16.03-.35.08-.55l.56-2.03h-.67l.05-.2c.18-.02.32-.05.42-.1.1-.05.19-.11.26-.19.07-.08.14-.18.2-.31.06-.13.14-.31.23-.56h.62l-.25.97h1.43l-.1.39h-1.43l-.43,1.52c-.12.42-.18.74-.18.95,0,.16.04.28.12.36.08.08.2.12.35.12.14,0,.28-.05.44-.14.15-.09.32-.23.5-.42l.26.23Z"/>
  <path d="M65.85,28.73h.14c.12,0,.23-.02.33-.06.1-.04.21-.11.35-.21.13-.1.34-.29.63-.57.29-.28.49-.48.61-.63.12-.14.21-.27.27-.37.06-.1.08-.2.08-.29,0-.07-.03-.13-.09-.17-.06-.04-.14-.07-.24-.08l.05-.2h1.84l-.05.2c-.11.02-.24.07-.39.17-.14.1-.37.29-.66.58l-1.67,1.58.91,2.13c.08.18.14.31.19.4.05.08.1.16.15.21.05.06.12.1.18.14.07.03.15.06.25.07l-.05.2h-1.66l.05-.2c.15-.01.23-.08.23-.2,0-.04,0-.07-.01-.11,0-.04-.02-.1-.05-.17-.02-.08-.06-.17-.1-.27l-.56-1.33c-.07-.16-.12-.27-.17-.33-.05-.06-.1-.11-.15-.13-.05-.03-.14-.04-.25-.04h-.24l-.36,1.58c-.04.17-.06.3-.07.39-.01.1-.02.18-.02.26,0,.13.03.21.1.26.06.05.17.08.32.09l-.05.2h-1.72l.05-.2c.11-.02.19-.04.24-.08s.1-.09.14-.16c.04-.07.07-.15.1-.24.03-.1.08-.28.14-.56l.73-3.21c.03-.13.05-.25.07-.37.02-.12.03-.22.03-.3,0-.13-.03-.22-.1-.27-.07-.05-.17-.08-.32-.09l.05-.2h1.72l-.05.2c-.11.02-.19.05-.23.08-.05.03-.09.07-.13.13-.04.06-.08.14-.12.26-.04.12-.09.31-.15.58l-.3,1.33Z"/>
  <path d="M80.39,23.02h.14c.12,0,.23-.02.33-.06.1-.04.21-.11.35-.21.13-.1.34-.29.63-.57.29-.28.49-.48.61-.63.12-.14.21-.27.27-.37.06-.1.08-.2.08-.29,0-.07-.03-.13-.09-.17-.06-.04-.14-.07-.24-.08l.05-.2h1.84l-.05.2c-.11.02-.24.07-.39.17-.14.1-.37.29-.66.58l-1.67,1.58.91,2.13c.08.18.14.31.19.4.05.08.1.16.15.21.05.06.12.1.18.14.07.03.15.06.25.07l-.05.2h-1.66l.05-.2c.15-.01.23-.08.23-.2,0-.04,0-.07-.01-.11,0-.04-.02-.1-.05-.17-.02-.08-.06-.17-.1-.27l-.56-1.33c-.07-.16-.12-.27-.17-.33-.05-.06-.1-.11-.15-.13-.05-.03-.14-.04-.25-.04h-.24l-.36,1.58c-.04.17-.06.3-.07.39-.01.1-.02.18-.02.26,0,.13.03.21.1.26.06.05.17.08.32.09l-.05.2h-1.72l.05-.2c.11-.02.19-.04.24-.08.05-.04.1-.09.14-.16.04-.07.07-.15.1-.24.03-.1.08-.28.14-.56l.73-3.21c.03-.13.05-.25.07-.37.02-.12.03-.22.03-.3,0-.13-.03-.22-.1-.27-.07-.05-.17-.08-.32-.09l.05-.2h1.72l-.05.2c-.11.02-.19.05-.23.08-.05.03-.09.07-.13.13-.04.06-.08.14-.12.26-.04.12-.09.31-.15.58l-.3,1.33Z"/>
  <path d="M86.1,19.6v.24l-1.03,2.42-.36-.1.6-2.55h.8Z"/>
  <line class="st0" x1="89.04" y1="23.26" x2="95.02" y2="23.26"/>
  <line class="st0" x1="98.47" y1="23.26" x2="109.17" y2="23.26"/>
  <path d="M102.4,12.48l-.05.2c-.12.02-.22.06-.29.12-.07.06-.11.15-.11.27,0,.18.05.4.14.67l.36,1.01.92-1.13c.04-.05.09-.11.13-.16.04-.06.08-.11.11-.17.03-.05.06-.1.07-.14.02-.04.03-.07.03-.1,0-.03.01-.06.01-.09,0-.07-.02-.14-.07-.19-.05-.05-.12-.08-.24-.09l.05-.2h1.6l-.05.2c-.09.03-.17.07-.24.12-.08.06-.17.14-.27.25-.1.11-.3.33-.58.66l-1.28,1.48.63,1.69c.09.26.17.45.23.58.06.14.12.24.16.3.04.05.08.08.12.11.04.03.11.05.2.08l-.04.2h-1.73l.04-.2c.13-.02.23-.06.3-.13.07-.07.11-.16.11-.26,0-.16-.03-.35-.1-.55l-.45-1.27-.98,1.19c-.15.18-.25.32-.32.44-.07.11-.1.21-.1.29,0,.07,0,.12.03.16.02.04.05.07.09.09.04.02.11.04.18.05l-.05.2h-1.6l.04-.2c.06-.02.11-.04.15-.06.04-.02.09-.06.15-.1.05-.04.12-.11.21-.21.09-.1.19-.21.31-.34l1.67-1.93-.64-1.71c-.06-.17-.12-.31-.17-.42-.05-.11-.1-.2-.14-.27-.05-.07-.1-.12-.15-.15-.05-.03-.12-.06-.19-.07l.05-.2h1.73Z"/>
  <path d="M108.04,19.87c-.25.26-.49.45-.73.58-.24.13-.5.2-.77.2-.32,0-.56-.07-.71-.21-.16-.14-.23-.35-.23-.61,0-.16.03-.35.08-.55l.56-2.03h-.67l.05-.2c.18-.02.32-.05.42-.1.1-.05.19-.11.26-.19.07-.08.14-.18.2-.31.06-.13.14-.31.23-.56h.62l-.25.97h1.43l-.1.39h-1.43l-.43,1.52c-.12.42-.18.74-.18.95,0,.16.04.28.12.36.08.08.2.12.35.12.14,0,.28-.05.44-.14.15-.09.32-.23.5-.42l.26.23Z"/>
  <path d="M102.77,28.73h.14c.12,0,.23-.02.33-.06.1-.04.21-.11.35-.21.13-.1.34-.29.63-.57.29-.28.49-.48.61-.63.12-.14.21-.27.27-.37.06-.1.08-.2.08-.29,0-.07-.03-.13-.09-.17-.06-.04-.14-.07-.24-.08l.05-.2h1.84l-.05.2c-.11.02-.24.07-.39.17-.14.1-.37.29-.66.58l-1.67,1.58.91,2.13c.08.18.14.31.19.4.05.08.1.16.15.21.05.06.12.1.18.14.07.03.15.06.25.07l-.05.2h-1.66l.05-.2c.15-.01.23-.08.23-.2,0-.04,0-.07-.01-.11,0-.04-.02-.1-.05-.17-.02-.08-.06-.17-.1-.27l-.56-1.33c-.07-.16-.12-.27-.17-.33-.05-.06-.1-.11-.15-.13-.05-.03-.14-.04-.25-.04h-.24l-.36,1.58c-.04.17-.06.3-.07.39-.01.1-.02.18-.02.26,0,.13.03.21.1.26.06.05.17.08.32.09l-.05.2h-1.72l.05-.2c.11-.02.19-.04.24-.08.05-.04.1-.09.14-.16.04-.07.07-.15.1-.24.03-.1.08-.28.14-.56l.73-3.21c.03-.13.05-.25.07-.37.02-.12.03-.22.03-.3,0-.13-.03-.22-.1-.27-.07-.05-.17-.08-.32-.09l.05-.2h1.72l-.05.2c-.11.02-.19.05-.23.08-.05.03-.09.07-.13.13-.04.06-.08.14-.12.26-.04.12-.09.31-.15.58l-.3,1.33Z"/>
  <path d="M77.78,35.71c-3.89-4.27-3.89-20.62,0-24.89h.44c-3.62,4.27-3.62,20.62,0,24.89"/>
  <path d="M110.09,10.82c3.89,4.27,3.89,20.62,0,24.89h-.44c3.62-4.27,3.62-20.62,0-24.89"/>
  <line class="st0" x1="120.1" y1="23.26" x2="130.8" y2="23.26"/>
  <path d="M124.03,12.48l-.05.2c-.12.02-.22.06-.29.12-.07.06-.11.15-.11.27,0,.18.05.4.14.67l.36,1.01.92-1.13c.04-.05.09-.11.13-.16.04-.06.08-.11.11-.17.03-.05.06-.1.07-.14.02-.04.03-.07.03-.1,0-.03.01-.06.01-.09,0-.07-.02-.14-.07-.19-.05-.05-.12-.08-.24-.09l.05-.2h1.6l-.05.2c-.09.03-.17.07-.24.12-.08.06-.17.14-.27.25-.1.11-.3.33-.58.66l-1.28,1.48.63,1.69c.09.26.17.45.23.58.06.14.12.24.16.3.04.05.08.08.12.11.04.03.11.05.2.08l-.04.2h-1.73l.04-.2c.13-.02.23-.06.3-.13.07-.07.11-.16.11-.26,0-.16-.03-.35-.1-.55l-.45-1.27-.98,1.19c-.15.18-.25.32-.32.44-.07.11-.1.21-.1.29,0,.07,0,.12.03.16.02.04.05.07.09.09.04.02.11.04.18.05l-.05.2h-1.6l.04-.2c.06-.02.11-.04.15-.06.04-.02.09-.06.15-.1.05-.04.12-.11.21-.21.09-.1.19-.21.31-.34l1.67-1.93-.64-1.71c-.06-.17-.12-.31-.17-.42-.05-.11-.1-.2-.14-.27-.05-.07-.1-.12-.15-.15-.05-.03-.12-.06-.19-.07l.05-.2h1.73Z"/>
  <path d="M129.67,19.87c-.25.26-.49.45-.73.58-.24.13-.5.2-.77.2-.32,0-.56-.07-.71-.21-.16-.14-.23-.35-.23-.61,0-.16.03-.35.08-.55l.56-2.03h-.67l.05-.2c.18-.02.32-.05.42-.1.1-.05.19-.11.26-.19.07-.08.14-.18.2-.31.06-.13.14-.31.23-.56h.62l-.25.97h1.43l-.1.39h-1.43l-.43,1.52c-.12.42-.18.74-.18.95,0,.16.04.28.12.36.08.08.2.12.35.12.14,0,.28-.05.44-.14.15-.09.32-.23.5-.42l.26.23Z"/>
  <path d="M124.4,28.73h.14c.12,0,.23-.02.33-.06.1-.04.21-.11.35-.21.13-.1.34-.29.63-.57.29-.28.49-.48.61-.63.12-.14.21-.27.27-.37.06-.1.08-.2.08-.29,0-.07-.03-.13-.09-.17-.06-.04-.14-.07-.24-.08l.05-.2h1.84l-.05.2c-.11.02-.24.07-.39.17-.14.1-.37.29-.66.58l-1.67,1.58.91,2.13c.08.18.14.31.19.4.05.08.1.16.15.21.05.06.12.1.18.14.07.03.15.06.25.07l-.05.2h-1.66l.05-.2c.15-.01.23-.08.23-.2,0-.04,0-.07-.01-.11,0-.04-.02-.1-.05-.17-.02-.08-.06-.17-.1-.27l-.56-1.33c-.07-.16-.12-.27-.17-.33-.05-.06-.1-.11-.15-.13-.05-.03-.14-.04-.25-.04h-.24l-.36,1.58c-.04.17-.06.3-.07.39-.01.1-.02.18-.02.26,0,.13.03.21.1.26.06.05.17.08.32.09l-.05.2h-1.72l.05-.2c.11-.02.19-.04.24-.08.05-.04.1-.09.14-.16.04-.07.07-.15.1-.24.03-.1.08-.28.14-.56l.73-3.21c.03-.13.05-.25.07-.37.02-.12.03-.22.03-.3,0-.13-.03-.22-.1-.27-.07-.05-.17-.08-.32-.09l.05-.2h1.72l-.05.2c-.11.02-.19.05-.23.08-.05.03-.09.07-.13.13-.04.06-.08.14-.12.26-.04.12-.09.31-.15.58l-.31,1.33Z"/>
  <line class="st0" x1="134.26" y1="23.26" x2="140.24" y2="23.26"/>
  <path d="M145.49,23.15c0-.21-.02-.36-.05-.46-.03-.09-.08-.17-.15-.21-.07-.05-.16-.07-.28-.07-.29,0-.55.11-.78.34-.23.22-.42.54-.56.95-.15.41-.22.8-.22,1.18,0,.12.01.23.03.33.02.1.06.19.11.27s.12.13.21.18c.09.04.2.06.33.06.26,0,.49-.05.68-.14.19-.1.39-.25.6-.45l.26.25c-.27.29-.54.5-.81.63-.27.13-.57.2-.88.2-.41,0-.73-.12-.94-.36-.22-.24-.32-.59-.32-1.04,0-.3.06-.62.17-.98.11-.36.28-.67.5-.94.22-.27.48-.47.77-.6.29-.13.61-.2.94-.2.23,0,.43.01.6.04.17.03.32.05.45.09l-.21.94h-.45Z"/>
  <path d="M119.19,35.71c-3.89-4.27-3.89-20.62,0-24.89h.44c-3.62,4.27-3.62,20.62,0,24.89"/>
  <path d="M146.9,10.82c3.89,4.27,3.89,20.62,0,24.89h-.44c3.62-4.27,3.62-20.62,0-24.89"/>
  <line class="st0" x1="152.21" y1="23.26" x2="158.19" y2="23.26"/>
  <line class="st0" x1="155.2" y1="20.27" x2="155.2" y2="26.25"/>
  <path d="M164.36,22.15l.12.21c-.11.25-.19.43-.24.55-.06.12-.13.27-.23.45-.1.18-.2.37-.32.56-.12.2-.25.41-.41.63-.15.23-.32.47-.52.74-.19.27-.42.57-.68.9h-.54l-.4-3.15c-.03-.2-.05-.35-.08-.44-.03-.09-.07-.15-.13-.19-.06-.04-.15-.06-.27-.07l.05-.2h1.1l.33,3.31c.49-.66.86-1.21,1.09-1.66.24-.45.36-.82.36-1.1,0-.13-.03-.22-.09-.27-.06-.05-.15-.08-.29-.08l.04-.2h1.11Z"/>
  <line class="st0" x1="166.96" y1="23.26" x2="172.93" y2="23.26"/>
  <path d="M180.15,22.28c-.53.63-.99,1.23-1.37,1.81-.05.44-.07.78-.07,1.02s.03.41.08.51c.05.1.14.15.26.15.13,0,.3-.08.49-.25l.14.21c-.37.32-.72.48-1.05.48-.41,0-.61-.29-.61-.88,0-.1,0-.2.02-.32h-.02c-.57.8-1.14,1.2-1.7,1.2-.28,0-.51-.12-.67-.36-.16-.24-.25-.54-.25-.91,0-.72.22-1.37.66-1.97.44-.59.99-.89,1.65-.89.61,0,.96.38,1.04,1.15h.02l.56-1.07h.73l.08.12ZM178.17,24.11c.03-.39.05-.68.05-.85,0-.31-.04-.53-.13-.66-.08-.13-.22-.19-.42-.19-.42,0-.78.26-1.07.78-.29.52-.44,1.11-.44,1.78,0,.21.05.39.14.53.09.14.21.21.36.21.54,0,1.04-.53,1.51-1.6Z"/>
  <path d="M184.97,20.59l-.26,1.13h-.41c-.02-.34-.1-.59-.23-.74-.13-.15-.34-.23-.63-.23-.24,0-.47.07-.68.21-.21.14-.41.34-.6.6-.19.26-.35.56-.49.91-.14.35-.25.7-.32,1.07-.07.36-.11.69-.11.98,0,.45.08.79.23,1,.15.21.39.32.72.32.21,0,.4-.03.56-.09.16-.06.31-.17.45-.32.14-.15.28-.36.42-.62h.41l-.26,1.18c-.29.08-.57.13-.85.17-.27.03-.55.05-.84.05-.35,0-.66-.07-.91-.21-.25-.14-.44-.35-.56-.62-.13-.27-.19-.6-.19-.98,0-.2.01-.39.04-.58.03-.23.09-.49.16-.76.09-.34.21-.65.36-.93.15-.3.33-.56.53-.79.19-.21.39-.39.61-.53.2-.13.42-.23.65-.3.23-.07.48-.11.74-.11.26,0,.5.02.72.05.22.03.47.09.74.17Z"/>
  <path d="M186.74,20.17h.25l-1.12,4.92c-.03.13-.05.23-.06.3,0,.07-.01.13-.01.17,0,.08.01.15.04.2.03.05.07.08.13.11.06.03.16.04.3.06l-.03.2h-1.34l1.11-4.78c.03-.12.05-.21.06-.27.01-.06.02-.12.03-.18,0-.06,0-.1,0-.15,0-.08-.02-.15-.05-.19-.03-.04-.08-.07-.14-.09-.06-.02-.16-.03-.32-.04l.05-.22,1.08-.04Z"/>
  <path d="M190.97,22.97v.06s0,.04,0,.06c.25-.34.5-.59.74-.76.25-.16.5-.25.76-.25.27,0,.48.07.62.22.14.15.21.37.21.66,0,.18-.03.39-.09.64l-.36,1.48c-.05.2-.07.36-.07.48,0,.08.01.15.04.2.03.05.07.08.13.11.06.03.16.04.3.06l-.04.2h-1.35l.54-2.12c.04-.15.08-.31.11-.46.03-.16.05-.3.05-.43,0-.2-.04-.34-.11-.43-.07-.08-.18-.13-.34-.13-.11,0-.24.04-.38.13-.14.09-.28.23-.44.41-.15.18-.28.36-.37.54-.1.18-.17.4-.23.66l-.39,1.82h-.74l.49-2.12c.06-.26.1-.45.12-.57.02-.12.03-.23.03-.32,0-.2-.04-.34-.11-.43-.07-.08-.19-.13-.34-.13-.12,0-.24.05-.38.14-.14.09-.28.23-.44.42-.15.19-.28.37-.37.56-.09.18-.17.4-.22.65l-.39,1.8h-.74l.65-2.85c.01-.06.03-.16.06-.28.02-.13.04-.23.04-.31,0-.08-.01-.14-.04-.18-.02-.04-.07-.08-.12-.1-.06-.02-.16-.04-.3-.04l.05-.22.98-.04h.24l-.28,1.08.05.02c.26-.38.52-.66.79-.85.26-.18.52-.28.79-.28.28,0,.48.08.63.23.14.15.21.37.21.66Z"/>
  <path d="M196.54,27.84c-.25.26-.49.45-.73.58-.24.13-.5.2-.77.2-.32,0-.56-.07-.71-.21-.16-.14-.23-.35-.23-.61,0-.16.03-.35.08-.55l.56-2.03h-.67l.05-.2c.18-.02.32-.05.42-.1.1-.05.19-.11.26-.19.07-.08.14-.18.2-.31.06-.13.14-.31.23-.56h.62l-.25.97h1.43l-.1.39h-1.43l-.43,1.52c-.12.42-.18.74-.18.95,0,.16.04.28.12.36.08.08.2.12.35.12.14,0,.28-.05.44-.14.15-.09.32-.23.5-.42l.26.23Z"/>
  <path d="M201.26,20.45l-.05.2c-.12.02-.22.06-.29.12-.07.06-.11.15-.11.27,0,.18.05.4.14.67l.36,1.01.92-1.13c.04-.05.08-.11.13-.16.04-.06.08-.11.11-.17.03-.05.06-.1.07-.14.02-.04.03-.07.03-.1,0-.03.01-.06.01-.09,0-.07-.02-.14-.07-.19-.05-.05-.12-.08-.24-.09l.05-.2h1.6l-.05.2c-.09.03-.17.07-.24.12-.08.06-.17.14-.27.25-.11.11-.3.33-.58.66l-1.28,1.48.63,1.69c.09.26.17.45.23.58.06.14.12.24.16.3.04.05.08.08.12.11.04.03.11.05.2.08l-.04.2h-1.73l.04-.2c.13-.02.23-.06.3-.13.07-.07.11-.16.11-.26,0-.16-.03-.35-.1-.55l-.45-1.27-.98,1.19c-.15.18-.25.32-.32.44-.07.11-.1.21-.1.29,0,.07,0,.12.03.16.02.04.05.07.09.09.04.02.11.04.18.05l-.05.2h-1.6l.04-.2c.06-.02.11-.04.15-.06.05-.02.09-.06.15-.1.05-.04.12-.11.22-.21.09-.1.19-.21.31-.34l1.67-1.93-.64-1.71c-.06-.17-.12-.31-.17-.42-.05-.11-.1-.2-.14-.27-.05-.07-.1-.12-.15-.15-.05-.03-.12-.06-.19-.07l.05-.2h1.73Z"/>
  <path d="M206.9,27.84c-.25.26-.49.45-.73.58-.24.13-.5.2-.77.2-.32,0-.56-.07-.71-.21-.16-.14-.23-.35-.23-.61,0-.16.03-.35.08-.55l.56-2.03h-.67l.05-.2c.18-.02.32-.05.42-.1.1-.05.19-.11.26-.19.07-.08.14-.18.2-.31.06-.13.14-.31.23-.56h.62l-.25.97h1.43l-.1.39h-1.43l-.43,1.52c-.12.42-.18.74-.18.95,0,.16.04.28.12.36.08.08.2.12.35.12.14,0,.28-.05.44-.14.15-.09.32-.23.5-.42l.26.23Z"/>
</svg>