<?xml version="1.0"?>
<svg xmlns="http://www.w3.org/2000/svg" xmlns:xlink="http://www.w3.org/1999/xlink" width="225.927292" height="46.5250816">
	<defs />
	<rect x="-0" y="-0" width="225.927292" height="46.5250816" stroke="none" fill="#FFFFFF" />
	<g transform="matrix(1 0 -0 1 7.26082 7.75)">
		<svg width="660.005859" height="95.9571304">
			<defs />
			<polyline points="5.69232 15.5125 17.7317 15.5125" fill="none" stroke="#000000" stroke-width="0.385920018" stroke-linecap="round" stroke-linejoin="round" />
			<path d="M 10.5181 6.88908 C 10.544 6.78573, 10.5667 6.6712, 10.5861 6.54547, 10.6055 6.42004, 10.6152 6.30992, 10.6152 6.21541, 10.6152 6.12149, 10.5976 6.05023, 10.562 6.00136, 10.5263 5.95278, 10.4754 5.91744, 10.4091 5.89536, 10.3429 5.87357, 10.2239 5.85767, 10.0523 5.84796 L 10.1106 5.60299, 11.3284 5.56059, 11.6148 5.56059, 10.3579 10.9876 C 10.3129 11.1857, 10.2822 11.3336, 10.266 11.4307, 10.2499 11.5282, 10.2416 11.6097, 10.2416 11.6754, 10.2416 11.8043, 10.279 11.898, 10.3532 11.956, 10.4277 12.0143, 10.5699 12.0511, 10.7801 12.0664 L 10.7365 12.2972, 9.34888 12.2972, 9.65451 11.1148, 9.5915 11.0959 C 9.28087 11.5358, 8.98644 11.8579, 8.7082 12.062, 8.43025 12.2663, 8.13582 12.3679, 7.82519 12.3679, 7.46951 12.3679, 7.19363 12.2381, 6.99783 11.9772, 6.80233 11.7166, 6.70428 11.3506, 6.70428 10.8792, 6.70428 10.578, 6.73991 10.2759, 6.81116 9.97268, 6.88241 9.66971, 6.98988 9.38234, 7.13386 9.11058, 7.27784 8.83911, 7.45008 8.59944, 7.65059 8.39216, 7.8511 8.18488, 8.08311 8.01999, 8.34693 7.89751, 8.61074 7.77503, 8.89781 7.71378, 9.20814 7.71349, 9.40541 7.71378, 9.58737 7.73351, 9.75402 7.77267, 9.92067 7.81213, 10.0912 7.88014, 10.2657 7.9773 Z M 9.91655 9.42827 C 9.96513 9.20244, 9.98928 8.98898, 9.98928 8.78758, 9.98928 8.54291, 9.93598 8.36478, 9.82911 8.25319, 9.72252 8.14189, 9.54439 8.08595, 9.2953 8.08565, 9.15956 8.08595, 9.03031 8.10715, 8.90723 8.14955, 8.78445 8.19194, 8.65991 8.26261, 8.5336 8.36154, 8.40758 8.46047, 8.28686 8.59002, 8.17203 8.75019, 8.0572 8.91036, 7.95297 9.10528, 7.85905 9.33435, 7.76542 9.56371, 7.69269 9.80956, 7.64087 10.0716, 7.58905 10.3339, 7.56314 10.5889, 7.56314 10.8368, 7.56314 11.1637, 7.60937 11.408, 7.70153 11.5697, 7.79369 11.7316, 7.94797 11.8123, 8.16467 11.812, 8.26507 11.8123, 8.3693 11.7905, 8.47765 11.7463, 8.58601 11.7025, 8.70672 11.6215, 8.83922 11.5037, 8.97201 11.386, 9.12246 11.2125, 9.29059 10.9829, 9.44251 10.7727, 9.56323 10.5648, 9.65215 10.359, 9.74107 10.1535, 9.81468 9.91055, 9.87268 9.63084 Z" stroke="none" fill="#000000" />
			<path d="M 14.541 5.8668 L 14.4877 6.09764 C 14.3487 6.12002, 14.2377 6.16624, 14.1553 6.23691, 14.0729 6.30757, 14.0313 6.41033, 14.0313 6.54518, 14.0313 6.74657, 14.0849 6.99919, 14.1915 7.30364 L 14.5943 8.44368, 15.6328 7.16702 C 15.6813 7.10755, 15.729 7.04571, 15.7759 6.98123, 15.823 6.91705, 15.8651 6.85404, 15.9022 6.7928, 15.9393 6.73155, 15.967 6.67914, 15.9846 6.63498, 16.0023 6.59111, 16.0152 6.55195, 16.0235 6.51721, 16.0317 6.48276, 16.0356 6.44978, 16.0356 6.41798, 16.0356 6.33348, 16.0096 6.26134, 15.9578 6.20157, 15.906 6.1421, 15.8171 6.10735, 15.6911 6.09764 L 15.7444 5.8668, 17.5542 5.8668, 17.5009 6.09764 C 17.4038 6.1262, 17.3125 6.17184, 17.2268 6.23455, 17.1412 6.29756, 17.0393 6.39178, 16.9212 6.51721, 16.8031 6.64293, 16.5838 6.89084, 16.2634 7.26124 L 14.8175 8.93833, 15.5259 10.851 C 15.6328 11.1401, 15.7184 11.3586, 15.7832 11.5058, 15.8545 11.663, 15.9157 11.7779, 15.9675 11.8497, 16.0096 11.9033, 16.0532 11.9457, 16.0986 11.9769, 16.1439 12.0054, 16.2199 12.0352, 16.3265 12.0664 L 16.2782 12.2972, 14.3178 12.2972, 14.3664 12.0664 C 14.5154 12.0446, 14.6293 11.9954, 14.7085 11.9183, 14.7877 11.8414, 14.8272 11.7416, 14.8272 11.6189, 14.8272 11.434, 14.7886 11.2281, 14.7109 11.0017 L 14.2062 9.56489, 13.0998 10.9075 C 12.9349 11.1089, 12.8153 11.2729, 12.7408 11.4001, 12.6666 11.5273, 12.6293 11.6365, 12.6293 11.7272, 12.6293 11.8029, 12.6399 11.8626, 12.6608 11.9065, 12.682 11.9507, 12.7176 11.986, 12.7676 12.0125, 12.8177 12.0393, 12.8866 12.0573, 12.9737 12.0664 L 12.9202 12.2972, 11.1153 12.2972, 11.1639 12.0664 C 11.2286 12.0446, 11.286 12.0205, 11.3361 11.9937, 11.3864 11.9672, 11.4412 11.9295, 11.501 11.8806, 11.561 11.832, 11.6417 11.7528, 11.7436 11.6427, 11.8455 11.5329, 11.9612 11.4039, 12.0904 11.2561 L 13.9831 9.07024, 13.2649 7.13404 C 13.1937 6.94266, 13.1307 6.78279, 13.0756 6.65382, 13.0208 6.52516, 12.9667 6.42299, 12.9131 6.34761, 12.8598 6.27224, 12.8041 6.21571, 12.7458 6.17802, 12.6875 6.14033, 12.6148 6.11354, 12.5274 6.09764 L 12.5807 5.8668 Z" stroke="none" fill="#000000" />
			<path d="M 11.5097 19.8131 C 11.5356 19.7097, 11.5583 19.5952, 11.5777 19.4695, 11.5972 19.344, 11.6069 19.2339, 11.6069 19.1394, 11.6069 19.0455, 11.5892 18.9742, 11.5536 18.9253, 11.518 18.8768, 11.467 18.8414, 11.4008 18.8193, 11.3345 18.7976, 11.2156 18.7817, 11.0439 18.7719 L 11.1022 18.527, 12.32 18.4846, 12.6065 18.4846, 11.3496 23.9116 C 11.3045 24.1097, 11.2739 24.2575, 11.2577 24.3547, 11.2415 24.4522, 11.2333 24.5337, 11.2333 24.5994, 11.2333 24.7283, 11.2707 24.822, 11.3448 24.88, 11.4193 24.9383, 11.5616 24.9751, 11.7718 24.9904 L 11.7282 25.2212, 10.3405 25.2212, 10.6462 24.0388, 10.5831 24.0199 C 10.2725 24.4598, 9.97809 24.7819, 9.69985 24.986, 9.4219 25.1903, 9.12747 25.2919, 8.81684 25.2919, 8.46117 25.2919, 8.18528 25.162, 7.98948 24.9012, 7.79398 24.6406, 7.69593 24.2746, 7.69593 23.8032, 7.69593 23.502, 7.73156 23.1999, 7.80281 22.8967, 7.87407 22.5937, 7.98153 22.3063, 8.12551 22.0346, 8.26949 21.7631, 8.44173 21.5234, 8.64224 21.3161, 8.84275 21.1089, 9.07477 20.944, 9.33858 20.8215, 9.60239 20.699, 9.88946 20.6378, 10.1998 20.6375, 10.3971 20.6378, 10.579 20.6575, 10.7457 20.6967, 10.9123 20.7361, 11.0828 20.8041, 11.2574 20.9013 Z M 10.9082 22.3523 C 10.9568 22.1264, 10.9809 21.913, 10.9809 21.7116, 10.9809 21.4669, 10.9276 21.2888, 10.8208 21.1772, 10.7142 21.0659, 10.536 21.0099, 10.2869 21.0096, 10.1512 21.0099, 10.022 21.0311, 9.89889 21.0735, 9.77611 21.1159, 9.65156 21.1866, 9.52525 21.2855, 9.39923 21.3845, 9.27851 21.514, 9.16368 21.6742, 9.04886 21.8343, 8.94463 22.0293, 8.8507 22.2583, 8.75707 22.4877, 8.68435 22.7335, 8.63253 22.9956, 8.58071 23.2579, 8.5548 23.5129, 8.5548 23.7608, 8.5548 24.0876, 8.60102 24.332, 8.69318 24.4937, 8.78534 24.6556, 8.93962 24.7363, 9.15632 24.736, 9.25673 24.7363, 9.36096 24.7145, 9.46931 24.6703, 9.57766 24.6265, 9.69838 24.5455, 9.83087 24.4277, 9.96366 24.3099, 10.1141 24.1365, 10.2822 23.9069, 10.4342 23.6966, 10.5549 23.4888, 10.6438 23.283, 10.7327 23.0774, 10.8063 22.8345, 10.8643 22.5548 Z" stroke="none" fill="#000000" />
			<path d="M 15.7025 24.3544 C 15.4373 24.6656, 15.1752 24.9006, 14.9164 25.059, 14.6576 25.2177, 14.3826 25.2966, 14.0914 25.2966, 13.7487 25.2966, 13.4931 25.2121, 13.3247 25.0425, 13.1566 24.8729, 13.0724 24.6265, 13.0724 24.3026, 13.0724 24.105, 13.1015 23.8836, 13.1598 23.6383 L 13.7616 21.1934, 13.0385 21.1934, 13.0918 20.9531 C 13.2829 20.9313, 13.4342 20.8916, 13.5458 20.8333, 13.6574 20.7753, 13.751 20.6984, 13.827 20.6024, 13.903 20.5067, 13.9733 20.3819, 14.0381 20.2279, 14.1029 20.0742, 14.1839 19.8496, 14.2807 19.554 L 14.9503 19.554, 14.6835 20.7176, 16.2216 20.7176, 16.1148 21.1934, 14.5719 21.1934, 14.1061 23.0212 C 13.9766 23.5303, 13.9118 23.9104, 13.9118 24.1613, 13.9118 24.3532, 13.9548 24.4984, 14.0405 24.5973, 14.1264 24.6962, 14.2516 24.7457, 14.4165 24.7454, 14.5654 24.7457, 14.7215 24.6901, 14.8849 24.5785, 15.0483 24.4672, 15.227 24.2982, 15.4211 24.0717 Z" stroke="none" fill="#000000" />
			<path d="M 1.28125 11.525 C -3.11823 6.70103, -3.11823 -6.70103, 1.28125 -11.525 L 1.77523 -11.525 C -2.31552 -6.70103, -2.31552 6.70103, 1.77523 11.525" stroke="none" fill="#000000" transform="matrix(1 0 -0 1 3.3768 15.5125)" />
			<path d="M 1.28125 11.525 C -3.11823 6.70103, -3.11823 -6.70103, 1.28125 -11.525 L 1.77523 -11.525 C -2.31552 -6.70103, -2.31552 6.70103, 1.77523 11.525" stroke="none" fill="#000000" transform="matrix(-1 1.50996e-007 -1.50996e-007 -1 20.0472 15.5125)" />
			<path d="M 1.81685 2.23537 C 1.56814 2.52713, 1.32247 2.74741, 1.07984 2.89591, 0.837211 3.04469, 0.579398 3.11867, 0.306402 3.11867, -0.0148983 3.11867, -0.254494 3.03945, -0.412384 2.88045, -0.569998 2.72146, -0.648943 2.49042, -0.648943 2.18679, -0.648943 2.00157, -0.621615 1.79399, -0.566961 1.56406 L -0.0027529 -0.728105, -0.680686 -0.728105, -0.630724 -0.953347 C -0.45158 -0.973773, -0.3097 -1.01104, -0.205084 -1.06569, -0.100468 -1.12007, -0.0126899 -1.19211, 0.0585262 -1.2821, 0.129742 -1.37181, 0.195714 -1.48885, 0.256441 -1.63321, 0.317168 -1.7773, 0.393076 -1.98791, 0.483891 -2.26505 L 1.11159 -2.26505, 0.861502 -1.17417, 2.30349 -1.17417, 2.20329 -0.728105, 0.756886 -0.728105, 0.320204 0.985499 C 0.19875 1.46276, 0.138023 1.81911, 0.138023 2.05429, 0.138023 2.23427, 0.178324 2.37035, 0.258649 2.4631, 0.33925 2.55584, 0.456564 2.60222, 0.611141 2.60194, 0.750813 2.60222, 0.89711 2.55005, 1.05031 2.44543, 1.2035 2.34109, 1.37106 2.18265, 1.55296 1.97038 Z" stroke="none" fill="#000000" transform="matrix(1.12 0 0 1 25.7155 23.1394)" />
			<polyline points="-3.3768 -1.01304 3.3768 -1.01304" fill="none" stroke="#000000" stroke-width="0.385920018" stroke-linecap="round" stroke-linejoin="round" transform="matrix(1 0 0 1 34.4847 15.5125)" />
			<polyline points="-3.3768 1.01304 3.3768 1.01304" fill="none" stroke="#000000" stroke-width="0.385920018" stroke-linecap="round" stroke-linejoin="round" transform="matrix(1 0 0 1 34.4847 15.5125)" />
			<path d="M 42.3616 14.2132 L 42.6525 14.2132, 42.313 15.3721, 42.3713 15.3909 C 42.6787 14.9799, 42.9787 14.6751, 43.2714 14.4773, 43.564 14.2794, 43.8658 14.1805, 44.1762 14.1802, 44.4123 14.1805, 44.6099 14.1979, 44.7683 14.232 L 44.5354 15.2873, 44.0354 15.2873 C 44.0095 15.1241, 43.9692 15.0002, 43.9141 14.9154, 43.8593 14.8306, 43.7737 14.7882, 43.6571 14.7879, 43.5311 14.7882, 43.3853 14.8512, 43.2204 14.9766, 43.0555 15.1024, 42.8871 15.2752, 42.7158 15.4948, 42.5444 15.7148, 42.4157 15.9173, 42.3301 16.1025, 42.2444 16.288, 42.1787 16.4936, 42.1334 16.7194 L 41.6917 18.7592, 40.8523 18.7592, 41.5899 15.5417 C 41.6579 15.2466, 41.6917 15.0223, 41.6917 14.868, 41.6917 14.7802, 41.6773 14.7122, 41.6482 14.6634, 41.6193 14.6148, 41.5725 14.5786, 41.5077 14.555, 41.4429 14.5315, 41.3331 14.515, 41.1776 14.5052 L 41.2309 14.2556 Z" stroke="none" fill="#000000" />
			<polyline points="46.8427 15.5125 58.9394 15.5125" fill="none" stroke="#000000" stroke-width="0.385920018" stroke-linecap="round" stroke-linejoin="round" />
			<path d="M 51.278 3.32649 L 51.2247 3.55732 C 51.0858 3.5797, 50.9748 3.62593, 50.8923 3.69659, 50.8099 3.76725, 50.7684 3.87001, 50.7684 4.00486, 50.7684 4.20625, 50.822 4.45888, 50.9285 4.76332 L 51.3313 5.90337, 52.3698 4.62671 C 52.4184 4.56723, 52.4661 4.5054, 52.5129 4.44092, 52.56 4.37673, 52.6021 4.31372, 52.6392 4.25248, 52.6763 4.19124, 52.704 4.13883, 52.7216 4.09466, 52.7393 4.05079, 52.7523 4.01163, 52.7605 3.97689, 52.7688 3.94244, 52.7726 3.90947, 52.7726 3.87767, 52.7726 3.79316, 52.7467 3.72103, 52.6949 3.66126, 52.643 3.60178, 52.5541 3.56704, 52.4281 3.55732 L 52.4814 3.32649, 54.2913 3.32649, 54.238 3.55732 C 54.1408 3.58588, 54.0495 3.63152, 53.9639 3.69423, 53.8782 3.75724, 53.7763 3.85146, 53.6582 3.97689, 53.5402 4.10261, 53.3208 4.35053, 53.0005 4.72092 L 51.5545 6.39802, 52.2629 8.31066 C 52.3698 8.59979, 52.4555 8.81826, 52.5203 8.96548, 52.5915 9.12271, 52.6527 9.23754, 52.7046 9.30938, 52.7467 9.36296, 52.7902 9.40536, 52.8356 9.43657, 52.8809 9.46513, 52.9569 9.49487, 53.0635 9.52608 L 53.0152 9.75692, 51.0549 9.75692, 51.1034 9.52608 C 51.2524 9.50429, 51.3664 9.45512, 51.4456 9.37798, 51.5248 9.30113, 51.5642 9.20132, 51.5642 9.07854, 51.5642 8.89364, 51.5257 8.68783, 51.4479 8.46141 L 50.9433 7.02457, 49.8368 8.36719 C 49.6719 8.56858, 49.5524 8.73258, 49.4779 8.85978, 49.4037 8.98697, 49.3663 9.09621, 49.3663 9.18689, 49.3663 9.26256, 49.3769 9.32233, 49.3978 9.3662, 49.419 9.41037, 49.4546 9.4457, 49.5047 9.4722, 49.5547 9.49899, 49.6236 9.51695, 49.7108 9.52608 L 49.6572 9.75692, 47.8523 9.75692, 47.9009 9.52608 C 47.9657 9.50429, 48.0231 9.48015, 48.0731 9.45336, 48.1235 9.42686, 48.1782 9.38917, 48.238 9.34029, 48.2981 9.29171, 48.3787 9.21251, 48.4806 9.10239, 48.5825 8.99257, 48.6982 8.8636, 48.8275 8.7158 L 50.7201 6.52992, 50.002 4.59373 C 49.9307 4.40235, 49.8677 4.24247, 49.8126 4.11351, 49.7579 3.98484, 49.7037 3.88267, 49.6501 3.8073, 49.5968 3.73192, 49.5412 3.67539, 49.4829 3.6377, 49.4246 3.60002, 49.3519 3.57322, 49.2644 3.55732 L 49.3177 3.32649 Z" stroke="none" fill="#000000" />
			<path d="M 1.81685 2.23537 C 1.56814 2.52713, 1.32247 2.74741, 1.07984 2.89591, 0.837211 3.04469, 0.579398 3.11867, 0.306402 3.11867, -0.0148983 3.11867, -0.254494 3.03945, -0.412384 2.88045, -0.569998 2.72146, -0.648943 2.49042, -0.648943 2.18679, -0.648943 2.00157, -0.621615 1.79399, -0.566961 1.56406 L -0.0027529 -0.728105, -0.680686 -0.728105, -0.630724 -0.953347 C -0.45158 -0.973773, -0.3097 -1.01104, -0.205084 -1.06569, -0.100468 -1.12007, -0.0126899 -1.19211, 0.0585262 -1.2821, 0.129742 -1.37181, 0.195714 -1.48885, 0.256441 -1.63321, 0.317168 -1.7773, 0.393076 -1.98791, 0.483891 -2.26505 L 1.11159 -2.26505, 0.861502 -1.17417, 2.30349 -1.17417, 2.20329 -0.728105, 0.756886 -0.728105, 0.320204 0.985499 C 0.19875 1.46276, 0.138023 1.81911, 0.138023 2.05429, 0.138023 2.23427, 0.178324 2.37035, 0.258649 2.4631, 0.33925 2.55584, 0.456564 2.60222, 0.611141 2.60194, 0.750813 2.60222, 0.89711 2.55005, 1.05031 2.44543, 1.2035 2.34109, 1.37106 2.18265, 1.55296 1.97038 Z" stroke="none" fill="#000000" transform="matrix(1.12 0 0 1 55.6213 9.44359)" />
			<path d="M 51.7015 21.6974 L 51.8617 21.6974 C 51.9977 21.6977, 52.1214 21.6759, 52.233 21.6318, 52.3446 21.5879, 52.4747 21.5078, 52.6234 21.3915, 52.7724 21.2755, 53.0094 21.0618, 53.3344 20.7508, 53.6595 20.4399, 53.8909 20.2038, 54.0284 20.0418, 54.1659 19.8802, 54.266 19.7403, 54.329 19.6226, 54.3921 19.5048, 54.4236 19.3973, 54.4236 19.2996, 54.4236 19.2212, 54.3915 19.1579, 54.3267 19.1091, 54.2619 19.0605, 54.1698 19.0313, 54.0499 19.0216 L 54.1035 18.7908, 56.1852 18.7908, 56.1316 19.0216 C 56.0023 19.0408, 55.856 19.1061, 55.6926 19.2174, 55.5295 19.329, 55.2795 19.5463, 54.9429 19.8696 L 53.06 21.6503, 54.0938 24.0623 C 54.1812 24.2667, 54.2516 24.4168, 54.3049 24.5125, 54.3585 24.6085, 54.4159 24.6886, 54.4771 24.7528, 54.5387 24.8173, 54.6082 24.8691, 54.6859 24.9082, 54.7636 24.9477, 54.8573 24.9751, 54.9671 24.9904 L 54.9138 25.2212, 53.0409 25.2212, 53.0942 24.9904 C 53.2691 24.9751, 53.3562 24.8997, 53.3562 24.7643, 53.3562 24.7236, 53.3524 24.6815, 53.3442 24.6374, 53.3359 24.5935, 53.3183 24.529, 53.2906 24.4442, 53.2632 24.3594, 53.2252 24.2572, 53.1766 24.1377 L 52.546 22.6396 C 52.4718 22.4609, 52.407 22.3355, 52.3519 22.263, 52.2969 22.1909, 52.2386 22.1406, 52.177 22.1123, 52.1158 22.084, 52.0204 22.0699, 51.8908 22.0696 L 51.6191 22.0696, 51.2163 23.8503 C 51.1745 24.0391, 51.1468 24.1875, 51.1339 24.2958, 51.1209 24.4042, 51.1144 24.5007, 51.1144 24.5852, 51.1144 24.7269, 51.1509 24.8267, 51.2237 24.8847, 51.2967 24.943, 51.4186 24.978, 51.5899 24.9904 L 51.5366 25.2212, 49.5957 25.2212, 49.649 24.9904 C 49.7721 24.9718, 49.8643 24.9412, 49.9258 24.8988, 49.9873 24.8564, 50.0392 24.7975, 50.081 24.7222, 50.1231 24.6468, 50.1619 24.5549, 50.1976 24.4466, 50.2332 24.3382, 50.2865 24.1286, 50.3574 23.8174 L 51.1824 20.1899 C 51.2148 20.0457, 51.2407 19.907, 51.2602 19.7733, 51.2796 19.6399, 51.289 19.526, 51.289 19.4315, 51.289 19.2843, 51.2505 19.1815, 51.1727 19.1232, 51.095 19.0652, 50.9754 19.0313, 50.8135 19.0216 L 50.8671 18.7908, 52.808 18.7908, 52.7544 19.0216 C 52.6316 19.0469, 52.5436 19.0755, 52.49 19.1067, 52.4367 19.1382, 52.3881 19.1853, 52.3446 19.248, 52.301 19.3111, 52.2571 19.4091, 52.2135 19.5425, 52.17 19.6761, 52.114 19.8934, 52.046 20.1946 Z" stroke="none" fill="#000000" />
			<path d="M 68.1359 15.2354 L 68.2961 15.2354 C 68.4321 15.2357, 68.5558 15.2139, 68.6674 15.1698, 68.7789 15.1259, 68.9091 15.0458, 69.0578 14.9295, 69.2067 14.8135, 69.4438 14.5998, 69.7688 14.2888, 70.0939 13.9779, 70.3253 13.7418, 70.4628 13.5798, 70.6003 13.4182, 70.7004 13.2783, 70.7634 13.1606, 70.8264 13.0428, 70.8579 12.9353, 70.8579 12.8376, 70.8579 12.7593, 70.8258 12.696, 70.7611 12.6471, 70.6963 12.5985, 70.6041 12.5693, 70.4843 12.5596 L 70.5379 12.3288, 72.6195 12.3288, 72.5659 12.5596 C 72.4367 12.5788, 72.2904 12.6441, 72.1269 12.7554, 71.9638 12.867, 71.7139 13.0843, 71.3773 13.4076 L 69.4944 15.1883, 70.5282 17.6003 C 70.6156 17.8047, 70.686 17.9548, 70.7393 18.0505, 70.7929 18.1465, 70.8503 18.2266, 70.9115 18.2908, 70.9731 18.3553, 71.0425 18.4071, 71.1203 18.4462, 71.198 18.4857, 71.2916 18.5131, 71.4015 18.5284 L 71.3482 18.7592, 69.4753 18.7592, 69.5286 18.5284 C 69.7035 18.5131, 69.7906 18.4377, 69.7906 18.3023, 69.7906 18.2616, 69.7868 18.2195, 69.7785 18.1754, 69.7703 18.1315, 69.7526 18.067, 69.725 17.9822, 69.6976 17.8974, 69.6596 17.7952, 69.611 17.6757 L 68.9803 16.1776 C 68.9061 15.9989, 68.8414 15.8735, 68.7863 15.801, 68.7312 15.7289, 68.6729 15.6786, 68.6114 15.6503, 68.5502 15.622, 68.4548 15.6079, 68.3252 15.6076 L 68.0535 15.6076, 67.6507 17.3883 C 67.6089 17.5771, 67.5812 17.7255, 67.5682 17.8338, 67.5553 17.9422, 67.5488 18.0387, 67.5488 18.1232, 67.5488 18.2649, 67.5853 18.3647, 67.658 18.4227, 67.731 18.481, 67.8529 18.516, 68.0243 18.5284 L 67.971 18.7592, 66.0301 18.7592, 66.0834 18.5284 C 66.2065 18.5098, 66.2986 18.4792, 66.3602 18.4368, 66.4217 18.3944, 66.4735 18.3355, 66.5153 18.2602, 66.5574 18.1848, 66.5963 18.0929, 66.6319 17.9846, 66.6676 17.8762, 66.7208 17.6666, 66.7918 17.3554 L 67.6168 13.7279 C 67.6492 13.5837, 67.6751 13.445, 67.6945 13.3113, 67.714 13.1779, 67.7234 13.064, 67.7234 12.9695, 67.7234 12.8223, 67.6848 12.7195, 67.6071 12.6612, 67.5294 12.6032, 67.4098 12.5693, 67.2479 12.5596 L 67.3015 12.3288, 69.2424 12.3288, 69.1888 12.5596 C 69.066 12.585, 68.978 12.6135, 68.9244 12.6447, 68.8711 12.6762, 68.8225 12.7233, 68.7789 12.786, 68.7354 12.8491, 68.6915 12.9471, 68.6479 13.0805, 68.6043 13.2142, 68.5484 13.4314, 68.4804 13.7327 Z" stroke="none" fill="#000000" />
			<path d="M 74.5932 11.3725 L 74.5932 11.641, 73.4238 14.3733, 73.0113 14.2556, 73.6858 11.3725 Z" stroke="none" fill="#000000" />
			<polyline points="-3.3768 0 3.3768 0" fill="none" stroke="#000000" stroke-width="0.385920018" stroke-linecap="round" stroke-linejoin="round" transform="matrix(1 0 0 1 81.2948 15.5125)" />
			<polyline points="88.5791 15.5125 100.676 15.5125" fill="none" stroke="#000000" stroke-width="0.385920018" stroke-linecap="round" stroke-linejoin="round" />
			<path d="M 93.0145 3.32649 L 92.9612 3.55732 C 92.8222 3.5797, 92.7112 3.62593, 92.6288 3.69659, 92.5463 3.76725, 92.5048 3.87001, 92.5048 4.00486, 92.5048 4.20625, 92.5584 4.45888, 92.665 4.76332 L 93.0678 5.90337, 94.1062 4.62671 C 94.1548 4.56723, 94.2025 4.5054, 94.2493 4.44092, 94.2964 4.37673, 94.3386 4.31372, 94.3756 4.25248, 94.4128 4.19124, 94.4404 4.13883, 94.4581 4.09466, 94.4758 4.05079, 94.4887 4.01163, 94.497 3.97689, 94.5052 3.94244, 94.509 3.90947, 94.509 3.87767, 94.509 3.79316, 94.4831 3.72103, 94.4313 3.66126, 94.3795 3.60178, 94.2906 3.56704, 94.1645 3.55732 L 94.2178 3.32649, 96.0277 3.32649, 95.9744 3.55732 C 95.8773 3.58588, 95.786 3.63152, 95.7003 3.69423, 95.6146 3.75724, 95.5127 3.85146, 95.3947 3.97689, 95.2766 4.10261, 95.0573 4.35053, 94.7369 4.72092 L 93.291 6.39802, 93.9994 8.31066 C 94.1062 8.59979, 94.1919 8.81826, 94.2567 8.96548, 94.3279 9.12271, 94.3892 9.23754, 94.441 9.30938, 94.4831 9.36296, 94.5267 9.40536, 94.572 9.43657, 94.6174 9.46513, 94.6933 9.49487, 94.7999 9.52608 L 94.7516 9.75692, 92.7913 9.75692, 92.8399 9.52608 C 92.9889 9.50429, 93.1028 9.45512, 93.182 9.37798, 93.2612 9.30113, 93.3007 9.20132, 93.3007 9.07854, 93.3007 8.89364, 93.2621 8.68783, 93.1844 8.46141 L 92.6797 7.02457, 91.5732 8.36719 C 91.4083 8.56858, 91.2888 8.73258, 91.2143 8.85978, 91.1401 8.98697, 91.1027 9.09621, 91.1027 9.18689, 91.1027 9.26256, 91.1133 9.32233, 91.1342 9.3662, 91.1554 9.41037, 91.1911 9.4457, 91.2411 9.4722, 91.2912 9.49899, 91.3601 9.51695, 91.4472 9.52608 L 91.3936 9.75692, 89.5887 9.75692, 89.6373 9.52608 C 89.7021 9.50429, 89.7595 9.48015, 89.8096 9.45336, 89.8599 9.42686, 89.9147 9.38917, 89.9745 9.34029, 90.0345 9.29171, 90.1152 9.21251, 90.2171 9.10239, 90.3189 8.99257, 90.4347 8.8636, 90.5639 8.7158 L 92.4565 6.52992, 91.7384 4.59373 C 91.6672 4.40235, 91.6041 4.24247, 91.5491 4.11351, 91.4943 3.98484, 91.4401 3.88267, 91.3866 3.8073, 91.3333 3.73192, 91.2776 3.67539, 91.2193 3.6377, 91.161 3.60002, 91.0883 3.57322, 91.0009 3.55732 L 91.0541 3.32649 Z" stroke="none" fill="#000000" />
			<path d="M 1.81685 2.23537 C 1.56814 2.52713, 1.32247 2.74741, 1.07984 2.89591, 0.837211 3.04469, 0.579398 3.11867, 0.306402 3.11867, -0.0148983 3.11867, -0.254494 3.03945, -0.412384 2.88045, -0.569998 2.72146, -0.648943 2.49042, -0.648943 2.18679, -0.648943 2.00157, -0.621615 1.79399, -0.566961 1.56406 L -0.0027529 -0.728105, -0.680686 -0.728105, -0.630724 -0.953347 C -0.45158 -0.973773, -0.3097 -1.01104, -0.205084 -1.06569, -0.100468 -1.12007, -0.0126899 -1.19211, 0.0585262 -1.2821, 0.129742 -1.37181, 0.195714 -1.48885, 0.256441 -1.63321, 0.317168 -1.7773, 0.393076 -1.98791, 0.483891 -2.26505 L 1.11159 -2.26505, 0.861502 -1.17417, 2.30349 -1.17417, 2.20329 -0.728105, 0.756886 -0.728105, 0.320204 0.985499 C 0.19875 1.46276, 0.138023 1.81911, 0.138023 2.05429, 0.138023 2.23427, 0.178324 2.37035, 0.258649 2.4631, 0.33925 2.55584, 0.456564 2.60222, 0.611141 2.60194, 0.750813 2.60222, 0.89711 2.55005, 1.05031 2.44543, 1.2035 2.34109, 1.37106 2.18265, 1.55296 1.97038 Z" stroke="none" fill="#000000" transform="matrix(1.12 0 0 1 97.3577 9.44359)" />
			<path d="M 93.438 21.6974 L 93.5981 21.6974 C 93.7342 21.6977, 93.8578 21.6759, 93.9694 21.6318, 94.081 21.5879, 94.2111 21.5078, 94.3598 21.3915, 94.5088 21.2755, 94.7458 21.0618, 95.0709 20.7508, 95.3959 20.4399, 95.6274 20.2038, 95.7649 20.0418, 95.9024 19.8802, 96.0025 19.7403, 96.0655 19.6226, 96.1285 19.5048, 96.16 19.3973, 96.16 19.2996, 96.16 19.2212, 96.1279 19.1579, 96.0631 19.1091, 95.9984 19.0605, 95.9062 19.0313, 95.7864 19.0216 L 95.84 18.7908, 97.9216 18.7908, 97.868 19.0216 C 97.7388 19.0408, 97.5924 19.1061, 97.429 19.2174, 97.2659 19.329, 97.0159 19.5463, 96.6794 19.8696 L 94.7965 21.6503, 95.8302 24.0623 C 95.9177 24.2667, 95.9881 24.4168, 96.0413 24.5125, 96.0949 24.6085, 96.1523 24.6886, 96.2136 24.7528, 96.2751 24.8173, 96.3446 24.8691, 96.4223 24.9082, 96.5001 24.9477, 96.5937 24.9751, 96.7035 24.9904 L 96.6502 25.2212, 94.7773 25.2212, 94.8306 24.9904 C 95.0055 24.9751, 95.0927 24.8997, 95.0927 24.7643, 95.0927 24.7236, 95.0889 24.6815, 95.0806 24.6374, 95.0724 24.5935, 95.0547 24.529, 95.027 24.4442, 94.9996 24.3594, 94.9617 24.2572, 94.9131 24.1377 L 94.2824 22.6396 C 94.2082 22.4609, 94.1434 22.3355, 94.0884 22.263, 94.0333 22.1909, 93.975 22.1406, 93.9135 22.1123, 93.8522 22.084, 93.7568 22.0699, 93.6273 22.0696 L 93.3555 22.0696, 92.9527 23.8503 C 92.9109 24.0391, 92.8832 24.1875, 92.8703 24.2958, 92.8573 24.4042, 92.8509 24.5007, 92.8509 24.5852, 92.8509 24.7269, 92.8874 24.8267, 92.9601 24.8847, 93.0331 24.943, 93.155 24.978, 93.3264 24.9904 L 93.2731 25.2212, 91.3322 25.2212, 91.3855 24.9904 C 91.5085 24.9718, 91.6007 24.9412, 91.6622 24.8988, 91.7238 24.8564, 91.7756 24.7975, 91.8174 24.7222, 91.8595 24.6468, 91.8984 24.5549, 91.934 24.4466, 91.9696 24.3382, 92.0229 24.1286, 92.0939 23.8174 L 92.9189 20.1899 C 92.9513 20.0457, 92.9772 19.907, 92.9966 19.7733, 93.016 19.6399, 93.0255 19.526, 93.0255 19.4315, 93.0255 19.2843, 92.9869 19.1815, 92.9092 19.1232, 92.8314 19.0652, 92.7119 19.0313, 92.5499 19.0216 L 92.6035 18.7908, 94.5444 18.7908, 94.4909 19.0216 C 94.3681 19.0469, 94.28 19.0755, 94.2265 19.1067, 94.1732 19.1382, 94.1246 19.1853, 94.081 19.248, 94.0374 19.3111, 93.9936 19.4091, 93.95 19.5425, 93.9064 19.6761, 93.8505 19.8934, 93.7824 20.1946 Z" stroke="none" fill="#000000" />
			<path d="M 1.28125 14.0653 C -3.11823 9.24134, -3.11823 -9.24134, 1.28125 -14.0653 L 1.77523 -14.0653 C -2.31552 -9.24134, -2.31552 9.24134, 1.77523 14.0653" stroke="none" fill="#000000" transform="matrix(1 0 -0 1 63.9081 15.5125)" />
			<path d="M 1.28125 14.0653 C -3.11823 9.24134, -3.11823 -9.24134, 1.28125 -14.0653 L 1.77523 -14.0653 C -2.31552 -9.24134, -2.31552 9.24134, 1.77523 14.0653" stroke="none" fill="#000000" transform="matrix(-1 1.50996e-007 -1.50996e-007 -1 102.991 15.5125)" />
			<polyline points="113.025 15.5125 125.122 15.5125" fill="none" stroke="#000000" stroke-width="0.385920018" stroke-linecap="round" stroke-linejoin="round" />
			<path d="M 117.461 3.32649 L 117.407 3.55732 C 117.268 3.5797, 117.157 3.62593, 117.075 3.69659, 116.993 3.76725, 116.951 3.87001, 116.951 4.00486, 116.951 4.20625, 117.005 4.45888, 117.111 4.76332 L 117.514 5.90337, 118.552 4.62671 C 118.601 4.56723, 118.649 4.5054, 118.696 4.44092, 118.743 4.37673, 118.785 4.31372, 118.822 4.25248, 118.859 4.19124, 118.887 4.13883, 118.904 4.09466, 118.922 4.05079, 118.935 4.01163, 118.943 3.97689, 118.951 3.94244, 118.955 3.90947, 118.955 3.87767, 118.955 3.79316, 118.929 3.72103, 118.878 3.66126, 118.826 3.60178, 118.737 3.56704, 118.611 3.55732 L 118.664 3.32649, 120.474 3.32649, 120.421 3.55732 C 120.323 3.58588, 120.232 3.63152, 120.147 3.69423, 120.061 3.75724, 119.959 3.85146, 119.841 3.97689, 119.723 4.10261, 119.503 4.35053, 119.183 4.72092 L 117.737 6.39802, 118.446 8.31066 C 118.552 8.59979, 118.638 8.81826, 118.703 8.96548, 118.774 9.12271, 118.835 9.23754, 118.887 9.30938, 118.929 9.36296, 118.973 9.40536, 119.018 9.43657, 119.064 9.46513, 119.14 9.49487, 119.246 9.52608 L 119.198 9.75692, 117.238 9.75692, 117.286 9.52608 C 117.435 9.50429, 117.549 9.45512, 117.628 9.37798, 117.707 9.30113, 117.747 9.20132, 117.747 9.07854, 117.747 8.89364, 117.708 8.68783, 117.631 8.46141 L 117.126 7.02457, 116.019 8.36719 C 115.855 8.56858, 115.735 8.73258, 115.661 8.85978, 115.586 8.98697, 115.549 9.09621, 115.549 9.18689, 115.549 9.26256, 115.56 9.32233, 115.58 9.3662, 115.602 9.41037, 115.637 9.4457, 115.687 9.4722, 115.737 9.49899, 115.806 9.51695, 115.893 9.52608 L 115.84 9.75692, 114.035 9.75692, 114.084 9.52608 C 114.148 9.50429, 114.206 9.48015, 114.256 9.45336, 114.306 9.42686, 114.361 9.38917, 114.421 9.34029, 114.481 9.29171, 114.561 9.21251, 114.663 9.10239, 114.765 8.99257, 114.881 8.8636, 115.01 8.7158 L 116.903 6.52992, 116.185 4.59373 C 116.113 4.40235, 116.05 4.24247, 115.995 4.11351, 115.941 3.98484, 115.886 3.88267, 115.833 3.8073, 115.779 3.73192, 115.724 3.67539, 115.666 3.6377, 115.607 3.60002, 115.535 3.57322, 115.447 3.55732 L 115.5 3.32649 Z" stroke="none" fill="#000000" />
			<path d="M 1.81685 2.23537 C 1.56814 2.52713, 1.32247 2.74741, 1.07984 2.89591, 0.837211 3.04469, 0.579398 3.11867, 0.306402 3.11867, -0.0148983 3.11867, -0.254494 3.03945, -0.412384 2.88045, -0.569998 2.72146, -0.648943 2.49042, -0.648943 2.18679, -0.648943 2.00157, -0.621615 1.79399, -0.566961 1.56406 L -0.0027529 -0.728105, -0.680686 -0.728105, -0.630724 -0.953347 C -0.45158 -0.973773, -0.3097 -1.01104, -0.205084 -1.06569, -0.100468 -1.12007, -0.0126899 -1.19211, 0.0585262 -1.2821, 0.129742 -1.37181, 0.195714 -1.48885, 0.256441 -1.63321, 0.317168 -1.7773, 0.393076 -1.98791, 0.483891 -2.26505 L 1.11159 -2.26505, 0.861502 -1.17417, 2.30349 -1.17417, 2.20329 -0.728105, 0.756886 -0.728105, 0.320204 0.985499 C 0.19875 1.46276, 0.138023 1.81911, 0.138023 2.05429, 0.138023 2.23427, 0.178324 2.37035, 0.258649 2.4631, 0.33925 2.55584, 0.456564 2.60222, 0.611141 2.60194, 0.750813 2.60222, 0.89711 2.55005, 1.05031 2.44543, 1.2035 2.34109, 1.37106 2.18265, 1.55296 1.97038 Z" stroke="none" fill="#000000" transform="matrix(1.12 0 0 1 121.804 9.44359)" />
			<path d="M 117.884 21.6974 L 118.044 21.6974 C 118.18 21.6977, 118.304 21.6759, 118.416 21.6318, 118.527 21.5879, 118.657 21.5078, 118.806 21.3915, 118.955 21.2755, 119.192 21.0618, 119.517 20.7508, 119.842 20.4399, 120.074 20.2038, 120.211 20.0418, 120.349 19.8802, 120.449 19.7403, 120.512 19.6226, 120.575 19.5048, 120.606 19.3973, 120.606 19.2996, 120.606 19.2212, 120.574 19.1579, 120.509 19.1091, 120.445 19.0605, 120.352 19.0313, 120.233 19.0216 L 120.286 18.7908, 122.368 18.7908, 122.314 19.0216 C 122.185 19.0408, 122.039 19.1061, 121.875 19.2174, 121.712 19.329, 121.462 19.5463, 121.126 19.8696 L 119.243 21.6503, 120.276 24.0623 C 120.364 24.2667, 120.434 24.4168, 120.488 24.5125, 120.541 24.6085, 120.599 24.6886, 120.66 24.7528, 120.721 24.8173, 120.791 24.8691, 120.869 24.9082, 120.946 24.9477, 121.04 24.9751, 121.15 24.9904 L 121.096 25.2212, 119.224 25.2212, 119.277 24.9904 C 119.452 24.9751, 119.539 24.8997, 119.539 24.7643, 119.539 24.7236, 119.535 24.6815, 119.527 24.6374, 119.519 24.5935, 119.501 24.529, 119.473 24.4442, 119.446 24.3594, 119.408 24.2572, 119.359 24.1377 L 118.729 22.6396 C 118.654 22.4609, 118.59 22.3355, 118.535 22.263, 118.48 22.1909, 118.421 22.1406, 118.36 22.1123, 118.298 22.084, 118.203 22.0699, 118.073 22.0696 L 117.802 22.0696, 117.399 23.8503 C 117.357 24.0391, 117.329 24.1875, 117.317 24.2958, 117.304 24.4042, 117.297 24.5007, 117.297 24.5852, 117.297 24.7269, 117.334 24.8267, 117.406 24.8847, 117.479 24.943, 117.601 24.978, 117.773 24.9904 L 117.719 25.2212, 115.778 25.2212, 115.832 24.9904 C 115.955 24.9718, 116.047 24.9412, 116.108 24.8988, 116.17 24.8564, 116.222 24.7975, 116.264 24.7222, 116.306 24.6468, 116.345 24.5549, 116.38 24.4466, 116.416 24.3382, 116.469 24.1286, 116.54 23.8174 L 117.365 20.1899 C 117.397 20.0457, 117.423 19.907, 117.443 19.7733, 117.462 19.6399, 117.472 19.526, 117.472 19.4315, 117.472 19.2843, 117.433 19.1815, 117.355 19.1232, 117.278 19.0652, 117.158 19.0313, 116.996 19.0216 L 117.05 18.7908, 118.991 18.7908, 118.937 19.0216 C 118.814 19.0469, 118.726 19.0755, 118.673 19.1067, 118.619 19.1382, 118.571 19.1853, 118.527 19.248, 118.484 19.3111, 118.44 19.4091, 118.396 19.5425, 118.353 19.6761, 118.297 19.8934, 118.229 20.1946 Z" stroke="none" fill="#000000" />
			<polyline points="-3.3768 0 3.3768 0" fill="none" stroke="#000000" stroke-width="0.385920018" stroke-linecap="round" stroke-linejoin="round" transform="matrix(1 0 0 1 132.406 15.5125)" />
			<path d="M 141.725 15.3862 C 141.718 15.1477, 141.698 14.9752, 141.664 14.8683, 141.63 14.7617, 141.575 14.6816, 141.499 14.628, 141.423 14.5747, 141.316 14.5479, 141.177 14.5476, 140.85 14.5479, 140.557 14.6745, 140.296 14.9272, 140.036 15.1801, 139.823 15.5381, 139.658 16.0013, 139.493 16.4647, 139.41 16.9096, 139.41 17.3365, 139.41 17.4687, 139.423 17.593, 139.447 17.709, 139.471 17.8253, 139.513 17.9257, 139.573 18.0105, 139.633 18.0953, 139.712 18.1621, 139.811 18.2107, 139.91 18.2596, 140.035 18.2837, 140.187 18.2834, 140.481 18.2837, 140.736 18.2295, 140.951 18.1212, 141.166 18.0128, 141.394 17.8424, 141.633 17.6098 L 141.929 17.8971 C 141.625 18.2239, 141.318 18.4627, 141.009 18.6135, 140.701 18.7642, 140.368 18.8393, 140.012 18.8393, 139.543 18.8393, 139.187 18.7048, 138.945 18.4345, 138.702 18.1645, 138.581 17.7717, 138.581 17.2564, 138.581 16.9208, 138.645 16.5519, 138.775 16.1497, 138.904 15.7478, 139.093 15.3944, 139.343 15.0897, 139.592 14.7853, 139.883 14.5574, 140.216 14.4066, 140.549 14.2559, 140.905 14.1805, 141.283 14.1802, 141.542 14.1805, 141.768 14.1946, 141.96 14.2229, 142.153 14.2512, 142.323 14.2841, 142.472 14.3215 L 142.234 15.3862 Z" stroke="none" fill="#000000" />
			<path d="M 1.28125 14.0653 C -3.11823 9.24134, -3.11823 -9.24134, 1.28125 -14.0653 L 1.77523 -14.0653 C -2.31552 -9.24134, -2.31552 9.24134, 1.77523 14.0653" stroke="none" fill="#000000" transform="matrix(1 0 -0 1 110.71 15.5125)" />
			<path d="M 1.28125 14.0653 C -3.11823 9.24134, -3.11823 -9.24134, 1.28125 -14.0653 L 1.77523 -14.0653 C -2.31552 -9.24134, -2.31552 9.24134, 1.77523 14.0653" stroke="none" fill="#000000" transform="matrix(-1 1.50996e-007 -1.50996e-007 -1 144.595 15.5125)" />
			<polyline points="-3.3768 0 3.3768 0" fill="none" stroke="#000000" stroke-width="0.385920018" stroke-linecap="round" stroke-linejoin="round" transform="matrix(1 0 0 1 152.699 15.5125)" />
			<polyline points="0 -3.3768 0 3.3768" fill="none" stroke="#000000" stroke-width="0.385920018" stroke-linecap="round" stroke-linejoin="round" transform="matrix(1 0 0 1 152.699 15.5125)" />
			<path d="M 163.054 14.2556 L 163.185 14.4911 C 163.066 14.7708, 162.974 14.9784, 162.911 15.1133, 162.848 15.2484, 162.762 15.4171, 162.654 15.6197, 162.546 15.8222, 162.424 16.0351, 162.29 16.258, 162.156 16.4812, 162.003 16.7197, 161.832 16.9741, 161.66 17.2285, 161.466 17.5082, 161.247 17.8126, 161.029 18.1174, 160.772 18.458, 160.478 18.8346 L 159.871 18.8346, 159.42 15.2778 C 159.391 15.0488, 159.359 14.8848, 159.325 14.7858, 159.291 14.6869, 159.242 14.6148, 159.178 14.5691, 159.113 14.5238, 159.011 14.4961, 158.872 14.4864 L 158.925 14.2556, 160.172 14.2556, 160.541 18.0008 C 161.097 17.2567, 161.51 16.6302, 161.778 16.1214, 162.047 15.6126, 162.181 15.1995, 162.181 14.8821, 162.181 14.7349, 162.149 14.6345, 162.084 14.5809, 162.019 14.5276, 161.909 14.4961, 161.754 14.4864 L 161.802 14.2556 Z" stroke="none" fill="#000000" />
			<polyline points="-3.3768 0 3.3768 0" fill="none" stroke="#000000" stroke-width="0.385920018" stroke-linecap="round" stroke-linejoin="round" transform="matrix(1 0 0 1 169.363 15.5125)" />
			<polyline points="0 -3.3768 0 3.3768" fill="none" stroke="#000000" stroke-width="0.385920018" stroke-linecap="round" stroke-linejoin="round" transform="matrix(1 0 0 1 169.363 15.5125)" />
			<path d="M 180.893 14.3969 C 180.292 15.11, 179.777 15.7916, 179.35 16.4414, 179.299 16.9379, 179.273 17.3227, 179.273 17.5956, 179.273 17.8659, 179.302 18.057, 179.36 18.1683, 179.418 18.2799, 179.515 18.3355, 179.651 18.3352, 179.803 18.3355, 179.989 18.2413, 180.209 18.0526 L 180.364 18.2881 C 179.95 18.6526, 179.554 18.8346, 179.175 18.8346, 178.716 18.8346, 178.486 18.5037, 178.486 17.8406, 178.486 17.7311, 178.493 17.61, 178.506 17.4778 L 178.486 17.4778 C 177.84 18.3826, 177.201 18.8346, 176.57 18.8346, 176.25 18.8346, 175.997 18.7, 175.813 18.4298, 175.629 18.1598, 175.536 17.8159, 175.536 17.3978, 175.536 16.5845, 175.785 15.8443, 176.281 15.1768, 176.778 14.5097, 177.398 14.1758, 178.142 14.1755, 178.837 14.1758, 179.23 14.6077, 179.321 15.471 L 179.34 15.471, 179.976 14.265, 180.801 14.265 Z M 178.656 16.4744 C 178.695 16.0286, 178.714 15.7101, 178.714 15.5181, 178.714 15.1665, 178.667 14.9177, 178.571 14.7717, 178.476 14.6257, 178.318 14.5527, 178.098 14.5524, 177.623 14.5527, 177.219 14.8447, 176.888 15.4289, 176.556 16.013, 176.39 16.682, 176.39 17.4354, 176.39 17.6745, 176.441 17.8747, 176.543 18.0364, 176.645 18.1983, 176.78 18.279, 176.948 18.2787, 177.557 18.279, 178.126 17.6775, 178.656 16.4744 Z" stroke="none" fill="#000000" />
			<path d="M 186.35 12.4937 L 186.058 13.7703, 185.593 13.7703 C 185.567 13.3843, 185.481 13.1058, 185.333 12.9344, 185.186 12.7634, 184.949 12.6777, 184.622 12.6774, 184.351 12.6777, 184.095 12.7554, 183.856 12.9109, 183.616 13.0663, 183.39 13.291, 183.176 13.5846, 182.963 13.8784, 182.777 14.2223, 182.618 14.6162, 182.46 15.0105, 182.339 15.4124, 182.254 15.8222, 182.17 16.2321, 182.128 16.6019, 182.128 16.9314, 182.128 17.4437, 182.215 17.8197, 182.388 18.0599, 182.561 18.3002, 182.832 18.4203, 183.2 18.42, 183.443 18.4203, 183.655 18.385, 183.836 18.3143, 184.017 18.2437, 184.187 18.1244, 184.346 17.9563, 184.504 17.7885, 184.661 17.5535, 184.816 17.2517 L 185.282 17.2517, 184.986 18.5896 C 184.656 18.678, 184.338 18.7407, 184.03 18.7781, 183.723 18.8158, 183.408 18.8346, 183.084 18.8346, 182.683 18.8346, 182.342 18.7542, 182.06 18.5923, 181.779 18.4306, 181.567 18.1966, 181.425 17.8903, 181.282 17.5841, 181.211 17.2158, 181.211 16.7853, 181.211 16.5595, 181.227 16.3396, 181.26 16.1258, 181.298 15.8623, 181.36 15.5749, 181.444 15.2637, 181.551 14.8777, 181.685 14.5259, 181.847 14.2085, 182.022 13.8728, 182.221 13.576, 182.444 13.3181, 182.654 13.0796, 182.882 12.8803, 183.128 12.7198, 183.354 12.5726, 183.598 12.458, 183.861 12.3762, 184.123 12.2946, 184.401 12.2537, 184.695 12.2534, 184.989 12.2537, 185.262 12.2711, 185.513 12.3055, 185.763 12.3403, 186.042 12.403, 186.35 12.4937 Z" stroke="none" fill="#000000" />
			<path d="M 188.349 12.0226 L 188.635 12.0226, 187.373 17.5815 C 187.338 17.7325, 187.315 17.8465, 187.305 17.9233, 187.296 18.0005, 187.291 18.0655, 187.291 18.1185, 187.291 18.213, 187.307 18.287, 187.339 18.3402, 187.372 18.3938, 187.422 18.4345, 187.49 18.4627, 187.558 18.491, 187.669 18.5131, 187.824 18.5284 L 187.786 18.7592, 186.272 18.7592, 187.524 13.3511 C 187.556 13.2133, 187.579 13.1096, 187.592 13.0404, 187.605 12.9715, 187.614 12.9056, 187.621 12.8426, 187.627 12.7799, 187.63 12.7248, 187.63 12.6774, 187.63 12.5835, 187.613 12.5122, 187.577 12.4633, 187.541 12.4148, 187.491 12.3794, 187.424 12.3574, 187.358 12.3356, 187.239 12.3197, 187.067 12.3099 L 187.126 12.065 Z" stroke="none" fill="#000000" />
			<path d="M 193.132 15.1789 L 193.132 15.2449 C 193.132 15.2672, 193.13 15.2908, 193.127 15.3155, 193.408 14.9295, 193.688 14.6439, 193.966 14.4584, 194.244 14.2732, 194.532 14.1805, 194.83 14.1802, 195.137 14.1805, 195.371 14.2647, 195.531 14.4325, 195.691 14.6006, 195.771 14.8494, 195.771 15.1789, 195.771 15.3803, 195.739 15.622, 195.674 15.9044 L 195.266 17.5815 C 195.212 17.8079, 195.184 17.9869, 195.184 18.1185, 195.184 18.213, 195.2 18.287, 195.233 18.3402, 195.265 18.3938, 195.315 18.4345, 195.383 18.4627, 195.451 18.491, 195.563 18.5131, 195.718 18.5284 L 195.674 18.7592, 194.151 18.7592, 194.762 16.3661 C 194.807 16.1935, 194.847 16.0186, 194.881 15.8411, 194.915 15.6638, 194.932 15.5028, 194.932 15.3579, 194.932 15.1321, 194.891 14.9713, 194.81 14.8753, 194.73 14.7797, 194.602 14.7317, 194.427 14.7314, 194.301 14.7317, 194.159 14.782, 194.002 14.8824, 193.846 14.9831, 193.682 15.1368, 193.51 15.3441, 193.339 15.5514, 193.199 15.7563, 193.09 15.9589, 192.982 16.1614, 192.895 16.4088, 192.831 16.7005 L 192.389 18.7592, 191.55 18.7592, 192.108 16.3661 C 192.176 16.0743, 192.222 15.8585, 192.246 15.7186, 192.27 15.579, 192.282 15.4586, 192.282 15.3579, 192.282 15.1321, 192.241 14.9713, 192.159 14.8753, 192.076 14.7797, 191.948 14.7317, 191.773 14.7314, 191.643 14.7317, 191.5 14.7829, 191.343 14.8848, 191.187 14.9869, 191.021 15.1448, 190.846 15.3582, 190.672 15.572, 190.532 15.7816, 190.427 15.9871, 190.321 16.1929, 190.24 16.437, 190.181 16.7194 L 189.74 18.7592, 188.9 18.7592, 189.638 15.5417 C 189.654 15.4698, 189.676 15.3629, 189.703 15.2216, 189.731 15.0803, 189.745 14.9625, 189.745 14.868, 189.745 14.7802, 189.731 14.7122, 189.703 14.6634, 189.676 14.6148, 189.629 14.5786, 189.563 14.555, 189.496 14.5315, 189.384 14.515, 189.226 14.5052 L 189.284 14.2556, 190.39 14.2132, 190.662 14.2132, 190.341 15.4333, 190.4 15.4521 C 190.697 15.0223, 190.993 14.7028, 191.288 14.4938, 191.582 14.285, 191.88 14.1805, 192.18 14.1802, 192.491 14.1805, 192.727 14.2662, 192.889 14.4372, 193.051 14.6086, 193.132 14.8556, 193.132 15.1789 Z" stroke="none" fill="#000000" />
			<path d="M 1.81685 2.23537 C 1.56814 2.52713, 1.32247 2.74741, 1.07984 2.89591, 0.837211 3.04469, 0.579398 3.11867, 0.306402 3.11867, -0.0148983 3.11867, -0.254494 3.03945, -0.412384 2.88045, -0.569998 2.72146, -0.648943 2.49042, -0.648943 2.18679, -0.648943 2.00157, -0.621615 1.79399, -0.566961 1.56406 L -0.0027529 -0.728105, -0.680686 -0.728105, -0.630724 -0.953347 C -0.45158 -0.973773, -0.3097 -1.01104, -0.205084 -1.06569, -0.100468 -1.12007, -0.0126899 -1.19211, 0.0585262 -1.2821, 0.129742 -1.37181, 0.195714 -1.48885, 0.256441 -1.63321, 0.317168 -1.7773, 0.393076 -1.98791, 0.483891 -2.26505 L 1.11159 -2.26505, 0.861502 -1.17417, 2.30349 -1.17417, 2.20329 -0.728105, 0.756886 -0.728105, 0.320204 0.985499 C 0.19875 1.46276, 0.138023 1.81911, 0.138023 2.05429, 0.138023 2.23427, 0.178324 2.37035, 0.258649 2.4631, 0.33925 2.55584, 0.456564 2.60222, 0.611141 2.60194, 0.750813 2.60222, 0.89711 2.55005, 1.05031 2.44543, 1.2035 2.34109, 1.37106 2.18265, 1.55296 1.97038 Z" stroke="none" fill="#000000" transform="matrix(1.12 0 0 1 197.39 18.4459)" />
			<path d="M 204.757 12.3288 L 204.704 12.5596 C 204.565 12.582, 204.454 12.6282, 204.372 12.6989, 204.289 12.7696, 204.248 12.8723, 204.248 13.0072, 204.248 13.2086, 204.301 13.4612, 204.408 13.7656 L 204.811 14.9057, 205.849 13.629 C 205.898 13.5695, 205.945 13.5077, 205.992 13.4432, 206.039 13.379, 206.081 13.316, 206.118 13.2548, 206.156 13.1935, 206.183 13.1411, 206.201 13.097, 206.219 13.0531, 206.232 13.0139, 206.24 12.9792, 206.248 12.9447, 206.252 12.9118, 206.252 12.88, 206.252 12.7955, 206.226 12.7233, 206.174 12.6636, 206.122 12.6041, 206.033 12.5693, 205.907 12.5596 L 205.961 12.3288, 207.771 12.3288, 207.717 12.5596 C 207.62 12.5882, 207.529 12.6338, 207.443 12.6965, 207.357 12.7596, 207.256 12.8538, 207.138 12.9792, 207.019 13.1049, 206.8 13.3528, 206.48 13.7232 L 205.034 15.4003, 205.742 17.313 C 205.849 17.6021, 205.935 17.8206, 206 17.9678, 206.071 18.125, 206.132 18.2398, 206.184 18.3117, 206.226 18.3653, 206.27 18.4077, 206.315 18.4389, 206.36 18.4674, 206.436 18.4972, 206.543 18.5284 L 206.494 18.7592, 204.534 18.7592, 204.583 18.5284 C 204.732 18.5066, 204.846 18.4574, 204.925 18.3803, 205.004 18.3034, 205.044 18.2036, 205.044 18.0808, 205.044 17.8959, 205.005 17.6901, 204.927 17.4637 L 204.423 16.0269, 203.316 17.3695 C 203.151 17.5709, 203.032 17.7349, 202.957 17.8621, 202.883 17.9893, 202.846 18.0985, 202.846 18.1892, 202.846 18.2649, 202.856 18.3246, 202.877 18.3685, 202.898 18.4127, 202.934 18.448, 202.984 18.4745, 203.034 18.5013, 203.103 18.5193, 203.19 18.5284 L 203.136 18.7592, 201.332 18.7592, 201.38 18.5284 C 201.445 18.5066, 201.502 18.4825, 201.552 18.4557, 201.603 18.4292, 201.658 18.3915, 201.717 18.3426, 201.777 18.294, 201.858 18.2148, 201.96 18.1047, 202.062 17.9949, 202.177 17.8659, 202.307 17.7181 L 204.199 15.5322, 203.481 13.596 C 203.41 13.4047, 203.347 13.2448, 203.292 13.1158, 203.237 12.9871, 203.183 12.885, 203.129 12.8096, 203.076 12.7342, 203.02 12.6777, 202.962 12.64, 202.904 12.6023, 202.831 12.5755, 202.744 12.5596 L 202.797 12.3288 Z" stroke="none" fill="#000000" />
			<path d="M 1.81685 2.23537 C 1.56814 2.52713, 1.32247 2.74741, 1.07984 2.89591, 0.837211 3.04469, 0.579398 3.11867, 0.306402 3.11867, -0.0148983 3.11867, -0.254494 3.03945, -0.412384 2.88045, -0.569998 2.72146, -0.648943 2.49042, -0.648943 2.18679, -0.648943 2.00157, -0.621615 1.79399, -0.566961 1.56406 L -0.0027529 -0.728105, -0.680686 -0.728105, -0.630724 -0.953347 C -0.45158 -0.973773, -0.3097 -1.01104, -0.205084 -1.06569, -0.100468 -1.12007, -0.0126899 -1.19211, 0.0585262 -1.2821, 0.129742 -1.37181, 0.195714 -1.48885, 0.256441 -1.63321, 0.317168 -1.7773, 0.393076 -1.98791, 0.483891 -2.26505 L 1.11159 -2.26505, 0.861502 -1.17417, 2.30349 -1.17417, 2.20329 -0.728105, 0.756886 -0.728105, 0.320204 0.985499 C 0.19875 1.46276, 0.138023 1.81911, 0.138023 2.05429, 0.138023 2.23427, 0.178324 2.37035, 0.258649 2.4631, 0.33925 2.55584, 0.456564 2.60222, 0.611141 2.60194, 0.750813 2.60222, 0.89711 2.55005, 1.05031 2.44543, 1.2035 2.34109, 1.37106 2.18265, 1.55296 1.97038 Z" stroke="none" fill="#000000" transform="matrix(1.12 0 0 1 209.101 18.4459)" />
			<rect />
		</svg>
	</g>
</svg>
