<?xml version="1.0"?>
<svg xmlns="http://www.w3.org/2000/svg" xmlns:xlink="http://www.w3.org/1999/xlink" width="236.675339" height="43.8882942">
	<defs />
	<rect x="-0" y="-0" width="236.675339" height="43.8882942" stroke="none" fill="#FFFFFF" />
	<g transform="matrix(1 0 -0 1 6.48218 7.75)">
		<svg width="672.046021" height="113.989273">
			<defs />
			<path d="M 2.20237 14.4644 C 2.20237 14.8448, 2.29306 15.1283, 2.47414 15.315, 2.65551 15.502, 2.93846 15.5953, 3.32328 15.595, 3.62096 15.5953, 3.87652 15.542, 4.08999 15.4351, 4.30345 15.3285, 4.4651 15.1769, 4.57521 14.9805, 4.68533 14.7844, 4.7401 14.5509, 4.7401 14.2806, 4.7401 14.0893, 4.70535 13.9205, 4.63587 13.7745, 4.56638 13.6285, 4.46127 13.4889, 4.32053 13.3552, 4.17979 13.2219, 3.97693 13.0688, 3.71135 12.8956, 3.47227 12.739, 3.27323 12.5844, 3.11482 12.4319, 2.95642 12.2797, 2.83011 12.1092, 2.73618 11.9208, 2.64255 11.7323, 2.59544 11.5218, 2.59544 11.2892, 2.59544 10.9188, 2.6879 10.5923, 2.87221 10.3096, 3.05653 10.027, 3.3171 9.80878, 3.65334 9.65479, 3.98959 9.5011, 4.37794 9.42396, 4.81783 9.42366, 5.1155 9.42396, 5.39138 9.44369, 5.64519 9.48285, 5.89899 9.5223, 6.17958 9.58884, 6.48697 9.68277 L 6.21521 10.8935, 5.74942 10.8935 C 5.73646 10.6267, 5.69465 10.4174, 5.6234 10.2649, 5.55215 10.1126, 5.45027 10.0034, 5.31748 9.93745, 5.18499 9.8715, 5.00862 9.83852, 4.78868 9.83823, 4.52016 9.83852, 4.28402 9.89211, 4.08027 9.99869, 3.87652 10.1056, 3.72106 10.2507, 3.61448 10.4345, 3.50789 10.6182, 3.45431 10.8231, 3.45431 11.0489, 3.45431 11.2126, 3.48345 11.3587, 3.54175 11.4873, 3.60005 11.6163, 3.6928 11.7426, 3.82058 11.8666, 3.94837 11.9908, 4.13533 12.1342, 4.38089 12.2973, 4.69799 12.5111, 4.93972 12.7022, 5.10637 12.87, 5.27302 13.0381, 5.3961 13.2163, 5.4753 13.4047, 5.5545 13.5931, 5.59396 13.8113, 5.59396 14.0592, 5.59396 14.4396, 5.49944 14.7779, 5.31012 15.0747, 5.12109 15.3715, 4.85404 15.6009, 4.50956 15.7625, 4.16507 15.9245, 3.77288 16.0048, 3.333 16.0048, 3.03209 16.0048, 2.71263 15.9831, 2.37462 15.9389, 2.03661 15.8953, 1.72686 15.8355, 1.44539 15.7599 L 1.73658 14.4644 Z" stroke="none" fill="#000000" />
			<path d="M 9.42446 15.0627 C 9.15917 15.3739, 8.89713 15.6088, 8.63832 15.7672, 8.37951 15.9259, 8.10451 16.0048, 7.81332 16.0048, 7.4706 16.0048, 7.21503 15.9203, 7.04661 15.7507, 6.87849 15.5812, 6.79428 15.3347, 6.79428 15.0108, 6.79428 14.8133, 6.82343 14.5919, 6.88173 14.3466 L 7.48355 11.9016, 6.76042 11.9016, 6.81372 11.6614 C 7.0048 11.6396, 7.15614 11.5998, 7.26773 11.5415, 7.37932 11.4835, 7.47295 11.4067, 7.54892 11.3107, 7.62488 11.215, 7.69525 11.0902, 7.76003 10.9362, 7.8248 10.7825, 7.90577 10.5578, 8.00264 10.2622 L 8.67218 10.2622, 8.40542 11.4258, 9.94355 11.4258, 9.83667 11.9016, 8.29383 11.9016, 7.82804 13.7295 C 7.69849 14.2385, 7.63371 14.6187, 7.63371 14.8695, 7.63371 15.0615, 7.6767 15.2066, 7.76238 15.3056, 7.84836 15.4045, 7.97349 15.454, 8.13837 15.4537, 8.28736 15.454, 8.44341 15.3983, 8.60682 15.2867, 8.77023 15.1754, 8.94895 15.0064, 9.14298 14.78 Z" stroke="none" fill="#000000" />
			<path d="M 13.558 11.6566 L 14.0043 11.3457, 14.315 11.4211, 13.5724 14.6198 C 13.5274 14.8086, 13.4967 14.954, 13.4805 15.0559, 13.4643 15.1581, 13.4561 15.242, 13.4561 15.3076, 13.4561 15.4366, 13.4935 15.5302, 13.5677 15.5882, 13.6422 15.6465, 13.7844 15.6833, 13.9946 15.6986 L 13.951 15.9295, 12.5634 15.9295, 12.869 14.747, 12.806 14.7282 C 12.4954 15.1681, 12.2009 15.4902, 11.9227 15.6942, 11.6447 15.8986, 11.3503 16.0001, 11.0397 16.0001, 10.684 16.0001, 10.4081 15.8703, 10.2123 15.6094, 10.0168 15.3488, 9.91878 14.9829, 9.91878 14.5115, 9.91878 14.2103, 9.9544 13.9082, 10.0257 13.6049, 10.0969 13.3019, 10.2044 13.0146, 10.3484 12.7428, 10.4923 12.4713, 10.6646 12.2317, 10.8651 12.0244, 11.0656 11.8171, 11.2976 11.6522, 11.5614 11.5297, 11.8252 11.4073, 12.1123 11.346, 12.4226 11.3457, 12.6231 11.346, 12.8139 11.369, 12.995 11.4143, 13.1764 11.46, 13.3639 11.5406, 13.558 11.6566 Z M 13.131 13.0605 C 13.1602 12.9321, 13.1796 12.8205, 13.1893 12.7263, 13.1991 12.6321, 13.2038 12.5299, 13.2038 12.4198, 13.2038 12.1751, 13.1505 11.997, 13.0436 11.8854, 12.937 11.7741, 12.7589 11.7182, 12.5098 11.7179, 12.3741 11.7182, 12.2448 11.7394, 12.1217 11.7818, 11.999 11.8242, 11.8744 11.8948, 11.7481 11.9938, 11.6221 12.0927, 11.5014 12.2223, 11.3865 12.3824, 11.2717 12.5426, 11.1675 12.7375, 11.0735 12.9666, 10.9799 13.1959, 10.9072 13.4418, 10.8554 13.7038, 10.8035 13.9662, 10.7776 14.2212, 10.7776 14.4691, 10.7776 14.7959, 10.8239 15.0403, 10.916 15.2019, 11.0082 15.3639, 11.1625 15.4445, 11.3792 15.4442, 11.4796 15.4445, 11.5838 15.4227, 11.6922 15.3786, 11.8005 15.3347, 11.9212 15.2537, 12.0537 15.136, 12.1865 15.0182, 12.337 14.8448, 12.5051 14.6151, 12.657 14.4049, 12.7777 14.197, 12.8666 13.9912, 12.9556 13.7857, 13.0292 13.5428, 13.0872 13.2631 Z" stroke="none" fill="#000000" />
			<path d="M 15.7986 15.6986 L 15.3522 16.0048, 15.0419 15.9295, 16.2985 10.5449 C 16.318 10.4665, 16.3415 10.3538, 16.3689 10.206, 16.3966 10.0585, 16.4101 9.93892, 16.4101 9.84765, 16.4101 9.71604, 16.3689 9.62358, 16.2865 9.57, 16.204 9.51671, 16.0559 9.48667, 15.8425 9.4802 L 15.9007 9.23523, 17.1282 9.19283, 17.4097 9.19283, 16.5556 12.4905, 16.6189 12.5093 C 16.9327 12.1012, 17.2269 11.8062, 17.5019 11.624, 17.7769 11.442, 18.0519 11.3507, 18.3269 11.3504, 18.6796 11.3507, 18.9537 11.4812, 19.1492 11.7417, 19.345 12.0026, 19.4428 12.3698, 19.4428 12.8438, 19.4428 13.1833, 19.3951 13.5242, 19.2997 13.8664, 19.2043 14.2088, 19.0718 14.5182, 18.9019 14.7944, 18.732 15.0709, 18.5427 15.2979, 18.3339 15.4752, 18.1255 15.6527, 17.9055 15.7855, 17.6741 15.8732, 17.443 15.961, 17.1995 16.0048, 16.9439 16.0048, 16.5138 16.0048, 16.1319 15.903, 15.7986 15.6986 Z M 16.2258 14.2901 C 16.1934 14.4317, 16.1734 14.5518, 16.1651 14.6507, 16.1569 14.7497, 16.1528 14.843, 16.1528 14.9308, 16.1528 15.1793, 16.2087 15.3583, 16.3203 15.4681, 16.4322 15.5782, 16.6174 15.633, 16.8759 15.6327, 17.0443 15.633, 17.198 15.6018, 17.337 15.5388, 17.476 15.476, 17.6079 15.3842, 17.7324 15.2632, 17.857 15.1424, 17.97 14.9955, 18.0719 14.8227, 18.1738 14.6502, 18.2636 14.4529, 18.3413 14.2315, 18.419 14.0101, 18.4779 13.781, 18.5183 13.5437, 18.5589 13.3067, 18.5789 13.0858, 18.5789 12.8815, 18.5789 12.5553, 18.5312 12.3103, 18.4358 12.1469, 18.3404 11.9838, 18.1876 11.9019, 17.9774 11.9016, 17.8222 11.9019, 17.6694 11.9499, 17.519 12.0456, 17.3685 12.1416, 17.201 12.3, 17.0167 12.5214, 16.8323 12.7428, 16.6822 12.9698, 16.5656 13.2021, 16.449 13.4347, 16.3503 13.7312, 16.2694 14.0922 Z" stroke="none" fill="#000000" />
			<path d="M 22.4951 9.57913 L 22.272 10.493, 21.4131 10.493, 21.6363 9.57913 Z M 21.2968 14.7517 C 21.2615 14.9122, 21.2388 15.0294, 21.2291 15.103, 21.2194 15.1769, 21.2144 15.2387, 21.2144 15.2888, 21.2144 15.3833, 21.2305 15.4572, 21.2629 15.5105, 21.2953 15.5641, 21.3454 15.6047, 21.4131 15.633, 21.4811 15.6612, 21.5927 15.6833, 21.7479 15.6986 L 21.7043 15.9295, 20.2 15.9295, 20.9329 12.7543 C 20.975 12.5723, 21.0041 12.4272, 21.0203 12.3188, 21.0365 12.2105, 21.0445 12.1201, 21.0445 12.0477, 21.0445 11.957, 21.0309 11.8863, 21.0032 11.836, 20.9759 11.7859, 20.9299 11.7482, 20.8652 11.7229, 20.8004 11.6979, 20.6888 11.682, 20.5301 11.6755 L 20.5834 11.4258, 21.7673 11.3834, 22.0538 11.3834 Z" stroke="none" fill="#000000" />
			<path d="M 24.8556 9.19283 L 25.1418 9.19283, 23.8804 14.7517 C 23.8448 14.9028, 23.8221 15.0167, 23.8124 15.0936, 23.8027 15.1707, 23.7977 15.2358, 23.7977 15.2888, 23.7977 15.3833, 23.8139 15.4572, 23.8463 15.5105, 23.8786 15.5641, 23.929 15.6047, 23.9967 15.633, 24.0647 15.6612, 24.1763 15.6833, 24.3315 15.6986 L 24.2926 15.9295, 22.7789 15.9295, 24.0306 10.5213 C 24.063 10.3835, 24.0856 10.2799, 24.0986 10.2107, 24.1115 10.1418, 24.1213 10.0758, 24.1277 10.0128, 24.1342 9.95011, 24.1375 9.89505, 24.1375 9.84765, 24.1375 9.75372, 24.1198 9.68247, 24.0842 9.6336, 24.0485 9.58501, 23.9976 9.54968, 23.9314 9.5276, 23.8651 9.50581, 23.7462 9.48991, 23.5745 9.4802 L 23.6328 9.23523 Z" stroke="none" fill="#000000" />
			<path d="M 27.7024 9.57913 L 27.4792 10.493, 26.6204 10.493, 26.8436 9.57913 Z M 26.5041 14.7517 C 26.4687 14.9122, 26.4461 15.0294, 26.4364 15.103, 26.4266 15.1769, 26.4216 15.2387, 26.4216 15.2888, 26.4216 15.3833, 26.4378 15.4572, 26.4702 15.5105, 26.5026 15.5641, 26.5527 15.6047, 26.6204 15.633, 26.6884 15.6612, 26.8 15.6833, 26.9551 15.6986 L 26.9116 15.9295, 25.4073 15.9295, 26.1402 12.7543 C 26.1823 12.5723, 26.2114 12.4272, 26.2276 12.3188, 26.2438 12.2105, 26.2517 12.1201, 26.2517 12.0477, 26.2517 11.957, 26.2382 11.8863, 26.2105 11.836, 26.1831 11.7859, 26.1372 11.7482, 26.0724 11.7229, 26.0077 11.6979, 25.8961 11.682, 25.7374 11.6755 L 25.7907 11.4258, 26.9746 11.3834, 27.2611 11.3834 Z" stroke="none" fill="#000000" />
			<path d="M 30.8879 15.0627 C 30.6226 15.3739, 30.3605 15.6088, 30.1017 15.7672, 29.8429 15.9259, 29.5679 16.0048, 29.2767 16.0048, 28.934 16.0048, 28.6784 15.9203, 28.51 15.7507, 28.3419 15.5812, 28.2577 15.3347, 28.2577 15.0108, 28.2577 14.8133, 28.2868 14.5919, 28.3451 14.3466 L 28.947 11.9016, 28.2238 11.9016, 28.2771 11.6614 C 28.4682 11.6396, 28.6195 11.5998, 28.7311 11.5415, 28.8427 11.4835, 28.9364 11.4067, 29.0123 11.3107, 29.0883 11.215, 29.1587 11.0902, 29.2234 10.9362, 29.2882 10.7825, 29.3692 10.5578, 29.466 10.2622 L 30.1356 10.2622, 29.8688 11.4258, 31.4069 11.4258, 31.3001 11.9016, 29.7572 11.9016, 29.2914 13.7295 C 29.1619 14.2385, 29.0971 14.6187, 29.0971 14.8695, 29.0971 15.0615, 29.1401 15.2066, 29.2258 15.3056, 29.3118 15.4045, 29.4369 15.454, 29.6018 15.4537, 29.7508 15.454, 29.9068 15.3983, 30.0702 15.2867, 30.2336 15.1754, 30.4124 15.0064, 30.6064 14.78 Z" stroke="none" fill="#000000" />
			<path d="M 32.6938 12.4528 C 32.6617 12.2143, 32.6311 12.0488, 32.6019 11.9561, 32.5728 11.8636, 32.526 11.793, 32.4612 11.7441, 32.3964 11.6955, 32.2913 11.6664, 32.1456 11.6566 L 32.1989 11.4258, 33.4461 11.4258, 33.8147 15.171 C 34.9082 13.7203, 35.455 12.6807, 35.455 12.0524, 35.455 11.9052, 35.4226 11.8047, 35.3578 11.7512, 35.2931 11.6979, 35.1833 11.6664, 35.0278 11.6566 L 35.0764 11.4258, 36.3283 11.4258, 36.4593 11.6614 C 36.288 12.0983, 36.0686 12.5505, 35.8019 13.0184, 35.5351 13.4866, 35.2083 13.9983, 34.8217 14.5542, 34.4354 15.1101, 34.0058 15.688, 33.5332 16.2875, 33.1711 16.7492, 32.8672 17.0978, 32.6211 17.3333, 32.4303 17.5123, 32.2548 17.6484, 32.0946 17.7408, 31.9345 17.8336, 31.7796 17.8995, 31.6291 17.9387, 31.479 17.9781, 31.3194 17.9976, 31.151 17.9976, 31.0638 17.9976, 30.9652 17.989, 30.8551 17.9717, 30.7453 17.9546, 30.6513 17.9316, 30.5736 17.9034 L 30.7821 17.0224, 31.1607 17.0224 C 31.1642 17.1293, 31.1901 17.2141, 31.2384 17.2768, 31.2873 17.3398, 31.3583 17.371, 31.4519 17.371, 31.5555 17.371, 31.6447 17.361, 31.7189 17.3404, 31.7934 17.3201, 31.8715 17.2862, 31.9539 17.2391, 32.0363 17.192, 32.1367 17.1166, 32.2548 17.013, 32.3732 16.9093, 32.5066 16.7721, 32.6552 16.6008, 32.8042 16.4297, 32.9706 16.2233, 33.1549 15.9813 Z" stroke="none" fill="#000000" />
			<path d="M 1.81685 2.23537 C 1.56814 2.52713, 1.32247 2.74741, 1.07984 2.89591, 0.837211 3.04469, 0.579398 3.11867, 0.306402 3.11867, -0.0148983 3.11867, -0.254494 3.03945, -0.412384 2.88045, -0.569998 2.72146, -0.648943 2.49042, -0.648943 2.18679, -0.648943 2.00157, -0.621615 1.79399, -0.566961 1.56406 L -0.0027529 -0.728105, -0.680686 -0.728105, -0.630724 -0.953347 C -0.45158 -0.973773, -0.3097 -1.01104, -0.205084 -1.06569, -0.100468 -1.12007, -0.0126899 -1.19211, 0.0585262 -1.2821, 0.129742 -1.37181, 0.195714 -1.48885, 0.256441 -1.63321, 0.317168 -1.7773, 0.393076 -1.98791, 0.483891 -2.26505 L 1.11159 -2.26505, 0.861502 -1.17417, 2.30349 -1.17417, 2.20329 -0.728105, 0.756886 -0.728105, 0.320204 0.985499 C 0.19875 1.46276, 0.138023 1.81911, 0.138023 2.05429, 0.138023 2.23427, 0.178324 2.37035, 0.258649 2.4631, 0.33925 2.55584, 0.456564 2.60222, 0.611141 2.60194, 0.750813 2.60222, 0.89711 2.55005, 1.05031 2.44543, 1.2035 2.34109, 1.37106 2.18265, 1.55296 1.97038 Z" stroke="none" fill="#000000" transform="matrix(1.12 0 0 1 37.2562 15.6161)" />
			<polyline points="-3.3768 -1.01304 3.3768 -1.01304" fill="none" stroke="#000000" stroke-width="0.385920018" stroke-linecap="round" stroke-linejoin="round" transform="matrix(1 0 0 1 46.0254 12.6828)" />
			<polyline points="-3.3768 1.01304 3.3768 1.01304" fill="none" stroke="#000000" stroke-width="0.385920018" stroke-linecap="round" stroke-linejoin="round" transform="matrix(1 0 0 1 46.0254 12.6828)" />
			<polyline points="53.3096 12.6828 67.3876 12.6828" fill="none" stroke="#000000" stroke-width="0.385920018" stroke-linecap="round" stroke-linejoin="round" />
			<path d="M 56.0117 4.43356 L 56.0117 3.55638 C 56.3796 3.38729, 56.7235 3.2612, 57.0438 3.1781, 57.3641 3.095, 57.6731 3.05345, 57.9709 3.05316, 58.3293 3.05345, 58.6429 3.10741, 58.9124 3.21503, 59.1819 3.32295, 59.3882 3.47761, 59.5308 3.67901, 59.6733 3.88071, 59.7446 4.12135, 59.7446 4.40124, 59.7446 4.66324, 59.6909 4.89321, 59.583 5.09173, 59.4751 5.29025, 59.3239 5.46337, 59.1288 5.61111, 58.9338 5.75884, 58.681 5.90341, 58.3702 6.04479 L 58.3702 6.08634 C 58.5636 6.12039, 58.75 6.17839, 58.9292 6.25976, 59.1083 6.34142, 59.2676 6.44674, 59.407 6.576, 59.5466 6.70527, 59.6583 6.85993, 59.7423 7.03998, 59.8262 7.22004, 59.8681 7.42548, 59.8681 7.65603, 59.8681 8.01325, 59.7882 8.33036, 59.628 8.60736, 59.4682 8.88436, 59.2232 9.10308, 58.8934 9.26293, 58.5639 9.42308, 58.1628 9.50272, 57.6901 9.50272, 57.4178 9.50272, 57.1237 9.47299, 56.8083 9.41298, 56.493 9.35296, 56.2036 9.27361, 55.9404 9.17493 L 55.9404 8.19618, 56.5109 8.19618 C 56.6219 8.51647, 56.7685 8.74904, 56.9509 8.8936, 57.1332 9.03845, 57.3811 9.11058, 57.695 9.11029, 58.1071 9.11058, 58.4187 9.00151, 58.6294 8.7828, 58.8403 8.56437, 58.9456 8.2412, 58.9456 7.813, 58.9456 7.36402, 58.8062 7.02094, 58.5272 6.78376, 58.2485 6.54686, 57.8393 6.42827, 57.3003 6.42798 L 56.8724 6.42798, 56.8724 6.02171 C 57.3006 5.99747, 57.661 5.91754, 57.9542 5.78193, 58.2473 5.6466, 58.4655 5.47261, 58.608 5.26024, 58.7508 5.04787, 58.8221 4.80924, 58.8221 4.54436, 58.8221 4.20301, 58.7286 3.93986, 58.5416 3.75519, 58.3547 3.57052, 58.082 3.47819, 57.7236 3.4779, 57.4258 3.47819, 57.1832 3.55667, 56.9962 3.71364, 56.8092 3.87061, 56.6713 4.11068, 56.5824 4.43356 Z" stroke="none" fill="#000000" />
			<path d="M 62.8099 4.92142 L 63.1008 4.92142, 62.7613 6.08031, 62.8196 6.09916 C 63.127 5.68813, 63.427 5.38339, 63.7197 5.18553, 64.0124 4.98767, 64.3142 4.88874, 64.6245 4.88844, 64.8606 4.88874, 65.0582 4.90611, 65.2166 4.94027 L 64.9837 5.99552, 64.4838 5.99552 C 64.4578 5.8324, 64.4175 5.70844, 64.3625 5.62365, 64.3077 5.53885, 64.222 5.49645, 64.1054 5.49616, 63.9794 5.49645, 63.8337 5.55946, 63.6688 5.68489, 63.5039 5.81061, 63.3355 5.98344, 63.1641 6.20309, 62.9928 6.42303, 62.8641 6.6256, 62.7784 6.8108, 62.6927 6.9963, 62.6271 7.20181, 62.5817 7.42764 L 62.1401 9.46748, 61.3006 9.46748, 62.0382 6.24991 C 62.1062 5.95488, 62.1401 5.73053, 62.1401 5.57624, 62.1401 5.4885, 62.1256 5.42049, 62.0965 5.37161, 62.0676 5.32303, 62.0208 5.28681, 61.9561 5.26326, 61.8913 5.2397, 61.7815 5.22322, 61.626 5.2135 L 61.6793 4.96382 Z" stroke="none" fill="#000000" />
			<path d="M 56.4279 21.8904 L 56.5881 21.8904 C 56.7241 21.8907, 56.8477 21.8689, 56.9593 21.8247, 57.0709 21.7809, 57.2011 21.7008, 57.3498 21.5845, 57.4987 21.4685, 57.7358 21.2547, 58.0608 20.9438, 58.3859 20.6329, 58.6173 20.3967, 58.7548 20.2348, 58.8923 20.0732, 58.9924 19.9333, 59.0554 19.8155, 59.1184 19.6978, 59.1499 19.5903, 59.1499 19.4925, 59.1499 19.4142, 59.1178 19.3509, 59.0531 19.302, 58.9883 19.2534, 58.8961 19.2243, 58.7763 19.2146 L 58.8299 18.9837, 60.9115 18.9837, 60.8579 19.2146 C 60.7287 19.2337, 60.5823 19.2991, 60.4189 19.4104, 60.2558 19.522, 60.0058 19.7393, 59.6693 20.0626 L 57.7864 21.8433, 58.8202 24.2553 C 58.9076 24.4596, 58.978 24.6098, 59.0313 24.7055, 59.0849 24.8015, 59.1423 24.8815, 59.2035 24.9457, 59.265 25.0102, 59.3345 25.062, 59.4123 25.1012, 59.49 25.1406, 59.5836 25.168, 59.6934 25.1833 L 59.6402 25.4142, 57.7673 25.4142, 57.8206 25.1833 C 57.9954 25.168, 58.0826 25.0927, 58.0826 24.9572, 58.0826 24.9166, 58.0788 24.8745, 58.0705 24.8303, 58.0623 24.7864, 58.0446 24.722, 58.0169 24.6372, 57.9896 24.5524, 57.9516 24.4502, 57.903 24.3307 L 57.2723 22.8326 C 57.1981 22.6539, 57.1333 22.5284, 57.0783 22.456, 57.0232 22.3839, 56.9649 22.3335, 56.9034 22.3053, 56.8422 22.277, 56.7468 22.2629, 56.6172 22.2626 L 56.3454 22.2626, 55.9427 24.0433 C 55.9008 24.232, 55.8732 24.3804, 55.8602 24.4888, 55.8473 24.5971, 55.8408 24.6937, 55.8408 24.7782, 55.8408 24.9198, 55.8773 25.0196, 55.95 25.0776, 56.023 25.1359, 56.1449 25.171, 56.3163 25.1833 L 56.263 25.4142, 54.3221 25.4142, 54.3754 25.1833 C 54.4985 25.1648, 54.5906 25.1342, 54.6522 25.0918, 54.7137 25.0494, 54.7655 24.9905, 54.8073 24.9151, 54.8494 24.8397, 54.8883 24.7479, 54.9239 24.6395, 54.9595 24.5312, 55.0128 24.3215, 55.0838 24.0103 L 55.9088 20.3829 C 55.9412 20.2386, 55.9671 20.0999, 55.9865 19.9663, 56.006 19.8329, 56.0154 19.7189, 56.0154 19.6244, 56.0154 19.4772, 55.9768 19.3745, 55.8991 19.3162, 55.8214 19.2582, 55.7018 19.2243, 55.5399 19.2146 L 55.5935 18.9837, 57.5344 18.9837, 57.4808 19.2146 C 57.358 19.2399, 57.27 19.2685, 57.2164 19.2997, 57.1631 19.3312, 57.1145 19.3783, 57.0709 19.441, 57.0273 19.504, 56.9835 19.6021, 56.9399 19.7354, 56.8963 19.8691, 56.8404 20.0864, 56.7724 20.3876 Z" stroke="none" fill="#000000" />
			<path d="M -1.50262 -1.73065 L -1.50262 -2.56979 C -1.15068 -2.73154, -0.821649 -2.85217, -0.515254 -2.93166, -0.208859 -3.01116, 0.0867705 -3.05091, 0.371635 -3.05119, 0.714466 -3.05091, 1.01451 -2.99929, 1.27233 -2.89633, 1.53014 -2.7931, 1.7275 -2.64514, 1.86386 -2.45247, 2.00022 -2.25953, 2.0684 -2.02932, 2.0684 -1.76157, 2.0684 -1.51093, 2.01706 -1.29093, 1.91382 -1.10102, 1.81059 -0.911114, 1.66595 -0.745495, 1.47935 -0.604167, 1.29275 -0.462839, 1.05095 -0.324547, 0.753663 -0.189291 L 0.753663 -0.149543 C 0.938604 -0.116971, 1.11692 -0.0614889, 1.28834 0.0163519, 1.45975 0.0944688, 1.61212 0.19522, 1.74544 0.318882, 1.87904 0.442545, 1.98587 0.590497, 2.06619 0.762741, 2.14652 0.934985, 2.18654 1.13152, 2.18654 1.35207, 2.18654 1.6938, 2.11008 1.99715, 1.95688 2.26214, 1.80396 2.52713, 1.56961 2.73637, 1.25411 2.88929, 0.93888 3.04249, 0.555196 3.11867, 0.103056 3.11867, -0.157517 3.11867, -0.438793 3.09024, -0.740496 3.03282, -1.0422 2.97541, -1.31906 2.8995, -1.5708 2.8051 L -1.5708 1.8688, -1.02508 1.8688 C -0.918812 2.17519, -0.778588 2.39768, -0.604136 2.53597, -0.429684 2.67454, -0.192573 2.74354, 0.107749 2.74327, 0.501922 2.74354, 0.800036 2.6392, 1.00154 2.42997, 1.20332 2.22102, 1.30407 1.91186, 1.30407 1.50223, 1.30407 1.07272, 1.17075 0.744523, 0.903824 0.517625, 0.637177 0.291003, 0.245765 0.177554, -0.269862 0.177278 L -0.679217 0.177278, -0.679217 -0.211374 C -0.269586 -0.234561, 0.0751772 -0.311021, 0.355625 -0.440756, 0.636073 -0.570215, 0.844753 -0.736662, 0.981112 -0.939821, 1.11775 -1.14298, 1.18593 -1.37126, 1.18593 -1.62466, 1.18593 -1.9512, 1.09649 -2.20294, 0.917625 -2.3796, 0.738757 -2.55626, 0.477907 -2.64459, 0.135076 -2.64487, -0.149788 -2.64459, -0.381931 -2.56951, -0.560799 -2.41935, -0.739668 -2.26919, -0.871611 -2.03953, -0.956628 -1.73065 Z" stroke="none" fill="#000000" transform="matrix(1.12 0 0 1 64.0906 18.7517)" />
			<path d="M 72.6924 9.49904 L 72.6391 9.72988 C 72.5002 9.75225, 72.3892 9.79848, 72.3067 9.86914, 72.2243 9.93981, 72.1828 10.0426, 72.1828 10.1774, 72.1828 10.3788, 72.2364 10.6314, 72.3429 10.9359 L 72.7457 12.0759, 73.7842 10.7993 C 73.8328 10.7398, 73.8805 10.678, 73.9273 10.6135, 73.9744 10.5493, 74.0165 10.4863, 74.0536 10.425, 74.0907 10.3638, 74.1184 10.3114, 74.136 10.2672, 74.1537 10.2233, 74.1667 10.1842, 74.1749 10.1494, 74.1832 10.115, 74.187 10.082, 74.187 10.0502, 74.187 9.96572, 74.1611 9.89358, 74.1093 9.83381, 74.0574 9.77433, 73.9685 9.73959, 73.8425 9.72988 L 73.8958 9.49904, 75.7057 9.49904, 75.6524 9.72988 C 75.5552 9.75844, 75.4639 9.80407, 75.3783 9.86679, 75.2926 9.9298, 75.1907 10.024, 75.0726 10.1494, 74.9546 10.2752, 74.7352 10.5231, 74.4149 10.8935 L 72.9689 12.5706, 73.6773 14.4832 C 73.7842 14.7723, 73.8699 14.9908, 73.9347 15.138, 74.0059 15.2953, 74.0671 15.4101, 74.119 15.4819, 74.1611 15.5355, 74.2047 15.5779, 74.25 15.6091, 74.2953 15.6377, 74.3713 15.6674, 74.4779 15.6986 L 74.4296 15.9295, 72.4693 15.9295, 72.5178 15.6986 C 72.6668 15.6768, 72.7808 15.6277, 72.86 15.5505, 72.9392 15.4737, 72.9786 15.3739, 72.9786 15.2511, 72.9786 15.0662, 72.9401 14.8604, 72.8623 14.634 L 72.3577 13.1971, 71.2512 14.5397 C 71.0863 14.7411, 70.9668 14.9051, 70.8923 15.0323, 70.8181 15.1595, 70.7807 15.2688, 70.7807 15.3594, 70.7807 15.4351, 70.7913 15.4949, 70.8122 15.5388, 70.8334 15.5829, 70.869 15.6183, 70.9191 15.6448, 70.9691 15.6715, 71.038 15.6895, 71.1252 15.6986 L 71.0716 15.9295, 69.2667 15.9295, 69.3153 15.6986 C 69.3801 15.6768, 69.4375 15.6527, 69.4875 15.6259, 69.5379 15.5994, 69.5926 15.5617, 69.6524 15.5128, 69.7125 15.4643, 69.7932 15.3851, 69.895 15.2749, 69.9969 15.1651, 70.1126 15.0362, 70.2419 14.8884 L 72.1345 12.7025, 71.4164 10.7663 C 71.3451 10.5749, 71.2821 10.415, 71.227 10.2861, 71.1723 10.1574, 71.1181 10.0552, 71.0645 9.97985, 71.0112 9.90447, 70.9556 9.84794, 70.8973 9.81026, 70.839 9.77257, 70.7663 9.74578, 70.6788 9.72988 L 70.7321 9.49904 Z" stroke="none" fill="#000000" />
			<path d="M 0.966461 2.34137 C 1.11497 2.34164, 1.23476 2.33281, 1.32585 2.31514, 1.41694 2.29748, 1.48954 2.26822, 1.54419 2.22681, 1.59885 2.18568, 1.64191 2.13186, 1.67365 2.06561, 1.70567 1.99936, 1.7457 1.89695, 1.79428 1.75839 L 2.181 1.75839, 2.10371 3.04801, -1.6401 3.04801, -1.6401 2.83601 C -1.50982 2.52713, -1.33399 2.2108, -1.11261 1.88674, -0.891231 1.56296, -0.577107 1.18148, -0.170789 0.742591, 0.180875 0.366084, 0.434272 0.0803914, 0.58885 -0.114211, 0.758885 -0.325927, 0.885308 -0.509212, 0.968669 -0.66379, 1.05203 -0.818367, 1.11193 -0.964112, 1.14837 -1.10102, 1.1848 -1.23794, 1.20302 -1.37567, 1.20302 -1.51424, 1.20302 -1.73479, 1.16658 -1.92967, 1.09371 -2.09915, 1.02084 -2.26836, 0.909598 -2.40168, 0.759437 -2.49885, 0.609276 -2.59601, 0.42047 -2.64459, 0.193021 -2.64487, -0.373948 -2.64459, -0.756252 -2.33847, -0.953338 -1.72623 L -1.50375 -1.72623, -1.50375 -2.5742 C -1.13662 -2.74176, -0.79324 -2.86321, -0.47332 -2.93829, -0.153399 -3.01337, 0.13395 -3.05091, 0.388727 -3.05119, 0.952935 -3.05091, 1.37885 -2.93084, 1.66703 -2.69097, 1.95521 -2.45082, 2.09902 -2.10274, 2.09902 -1.64674, 2.09902 -1.4905, 2.08328 -1.34669, 2.05126 -1.21585, 2.01952 -1.08474, 1.96956 -0.955279, 1.9011 -0.8272, 1.83292 -0.699122, 1.74128 -0.561382, 1.6259 -0.414257, 1.51079 -0.266856, 1.38354 -0.117523, 1.24387 0.034018, 1.10448 0.185835, 0.863501 0.438128, 0.52067 0.791173, -0.0556839 1.38326, -0.478564 1.89999, -0.748523 2.34137 Z" stroke="none" fill="#000000" transform="matrix(1.12 0 0 1 78.9546 9.26703)" />
			<path d="M 1.81685 2.23537 C 1.56814 2.52713, 1.32247 2.74741, 1.07984 2.89591, 0.837211 3.04469, 0.579398 3.11867, 0.306402 3.11867, -0.0148983 3.11867, -0.254494 3.03945, -0.412384 2.88045, -0.569998 2.72146, -0.648943 2.49042, -0.648943 2.18679, -0.648943 2.00157, -0.621615 1.79399, -0.566961 1.56406 L -0.0027529 -0.728105, -0.680686 -0.728105, -0.630724 -0.953347 C -0.45158 -0.973773, -0.3097 -1.01104, -0.205084 -1.06569, -0.100468 -1.12007, -0.0126899 -1.19211, 0.0585262 -1.2821, 0.129742 -1.37181, 0.195714 -1.48885, 0.256441 -1.63321, 0.317168 -1.7773, 0.393076 -1.98791, 0.483891 -2.26505 L 1.11159 -2.26505, 0.861502 -1.17417, 2.30349 -1.17417, 2.20329 -0.728105, 0.756886 -0.728105, 0.320204 0.985499 C 0.19875 1.46276, 0.138023 1.81911, 0.138023 2.05429, 0.138023 2.23427, 0.178324 2.37035, 0.258649 2.4631, 0.33925 2.55584, 0.456564 2.60222, 0.611141 2.60194, 0.750813 2.60222, 0.89711 2.55005, 1.05031 2.44543, 1.2035 2.34109, 1.37106 2.18265, 1.55296 1.97038 Z" stroke="none" fill="#000000" transform="matrix(1.12 0 0 1 77.0346 15.6161)" />
			<polyline points="-3.3768 0 3.3768 0" fill="none" stroke="#000000" stroke-width="0.385920018" stroke-linecap="round" stroke-linejoin="round" transform="matrix(1 0 0 1 87.706 12.6828)" />
			<polyline points="94.9902 12.6828 141.183 12.6828" fill="none" stroke="#000000" stroke-width="0.385920018" stroke-linecap="round" stroke-linejoin="round" />
			<path d="M 98.7699 8.69017 C 98.9251 8.69046, 99.0503 8.68123, 99.1456 8.66276, 99.2408 8.64429, 99.3167 8.61371, 99.3738 8.57043, 99.4309 8.52743, 99.4759 8.47117, 99.5091 8.40192, 99.5426 8.33267, 99.5844 8.22562, 99.6352 8.08077 L 100.039 8.08077, 99.9587 9.42885, 96.0451 9.42885, 96.0451 9.20724 C 96.1813 8.88436, 96.3651 8.55369, 96.5966 8.21494, 96.828 7.87648, 97.1563 7.47771, 97.5811 7.01892, 97.9487 6.62535, 98.2136 6.3267, 98.3751 6.12328, 98.5529 5.90196, 98.685 5.71037, 98.7722 5.54878, 98.8593 5.3872, 98.9219 5.23485, 98.96 5.09173, 98.9981 4.94861, 99.0172 4.80463, 99.0172 4.65978, 99.0172 4.42923, 98.9791 4.22552, 98.9029 4.04835, 98.8267 3.87147, 98.7104 3.73211, 98.5535 3.63054, 98.3965 3.52897, 98.1991 3.47819, 97.9614 3.4779, 97.3687 3.47819, 96.9691 3.79818, 96.763 4.43817 L 96.1877 4.43817, 96.1877 3.55176 C 96.5714 3.37662, 96.9304 3.24966, 97.2648 3.17117, 97.5993 3.09269, 97.8996 3.05345, 98.1659 3.05316, 98.7557 3.05345, 99.201 3.17896, 99.5022 3.42971, 99.8034 3.68074, 99.9538 4.0446, 99.9538 4.52128, 99.9538 4.68459, 99.9373 4.83492, 99.9039 4.97169, 99.8707 5.10875, 99.8184 5.24408, 99.7469 5.37797, 99.6756 5.51185, 99.5798 5.65583, 99.4592 5.80963, 99.3389 5.96371, 99.2059 6.11981, 99.0599 6.27823, 98.9141 6.43693, 98.6622 6.70066, 98.3039 7.0697, 97.7014 7.68863, 97.2593 8.22879, 96.9771 8.69017 Z" stroke="none" fill="#000000" />
			<path d="M 102.982 4.92142 L 103.273 4.92142, 102.934 6.08031, 102.992 6.09916 C 103.299 5.68813, 103.599 5.38339, 103.892 5.18553, 104.185 4.98767, 104.486 4.88874, 104.797 4.88844, 105.033 4.88874, 105.23 4.90611, 105.389 4.94027 L 105.156 5.99552, 104.656 5.99552 C 104.63 5.8324, 104.59 5.70844, 104.535 5.62365, 104.48 5.53885, 104.394 5.49645, 104.278 5.49616, 104.152 5.49645, 104.006 5.55946, 103.841 5.68489, 103.676 5.81061, 103.508 5.98344, 103.336 6.20309, 103.165 6.42303, 103.036 6.6256, 102.951 6.8108, 102.865 6.9963, 102.799 7.20181, 102.754 7.42764 L 102.312 9.46748, 101.473 9.46748, 102.21 6.24991 C 102.278 5.95488, 102.312 5.73053, 102.312 5.57624, 102.312 5.4885, 102.298 5.42049, 102.269 5.37161, 102.24 5.32303, 102.193 5.28681, 102.128 5.26326, 102.063 5.2397, 101.954 5.22322, 101.798 5.2135 L 101.852 4.96382 Z" stroke="none" fill="#000000" />
			<path d="M 107.447 5.9437 L 107.607 5.9437 C 107.743 5.94399, 107.867 5.9222, 107.978 5.87804, 108.09 5.83417, 108.22 5.75408, 108.369 5.63778, 108.518 5.52177, 108.755 5.30801, 109.08 4.99709, 109.405 4.68617, 109.636 4.45003, 109.774 4.28809, 109.911 4.12645, 110.011 3.98659, 110.074 3.86882, 110.137 3.75105, 110.169 3.64358, 110.169 3.54583, 110.169 3.46751, 110.137 3.40421, 110.072 3.35533, 110.007 3.30675, 109.915 3.2776, 109.795 3.26788 L 109.849 3.03705, 111.93 3.03705, 111.877 3.26788 C 111.748 3.28702, 111.601 3.35239, 111.438 3.46368, 111.275 3.57527, 111.025 3.79256, 110.688 4.11585 L 108.805 5.89659, 109.839 8.30859 C 109.927 8.51292, 109.997 8.66308, 110.05 8.75877, 110.104 8.85476, 110.161 8.93485, 110.222 8.99903, 110.284 9.06351, 110.353 9.11533, 110.431 9.15449, 110.509 9.19395, 110.603 9.22133, 110.712 9.23664 L 110.659 9.46748, 108.786 9.46748, 108.839 9.23664 C 109.014 9.22133, 109.102 9.14596, 109.102 9.01052, 109.102 8.96988, 109.098 8.92778, 109.089 8.88361, 109.081 8.83974, 109.064 8.77526, 109.036 8.69047, 109.008 8.60567, 108.971 8.5035, 108.922 8.38396 L 108.291 6.88588 C 108.217 6.70716, 108.152 6.58173, 108.097 6.5093, 108.042 6.43717, 107.984 6.38682, 107.922 6.35855, 107.861 6.33029, 107.766 6.31615, 107.636 6.31586 L 107.364 6.31586, 106.962 8.09659 C 106.92 8.28533, 106.892 8.43372, 106.879 8.54207, 106.866 8.65042, 106.86 8.747, 106.86 8.8315, 106.86 8.97312, 106.896 9.07294, 106.969 9.13094, 107.042 9.18924, 107.164 9.22427, 107.335 9.23664 L 107.282 9.46748, 105.341 9.46748, 105.394 9.23664 C 105.517 9.21809, 105.61 9.18747, 105.671 9.14507, 105.733 9.10267, 105.784 9.04379, 105.826 8.96841, 105.868 8.89304, 105.907 8.80117, 105.943 8.69282, 105.978 8.58447, 106.032 8.37483, 106.103 8.06362 L 106.928 4.43619 C 106.96 4.29192, 106.986 4.15324, 107.005 4.01957, 107.025 3.88619, 107.034 3.77225, 107.034 3.67773, 107.034 3.53052, 106.996 3.42776, 106.918 3.36946, 106.84 3.31146, 106.721 3.2776, 106.559 3.26788 L 106.612 3.03705, 108.553 3.03705, 108.5 3.26788 C 108.377 3.2932, 108.289 3.32176, 108.235 3.35297, 108.182 3.38448, 108.133 3.43159, 108.09 3.4943, 108.046 3.55731, 108.002 3.65536, 107.959 3.78874, 107.915 3.92241, 107.859 4.1397, 107.791 4.44091 Z" stroke="none" fill="#000000" />
			<path d="M 114.088 2.08073 L 114.088 2.34925, 112.919 5.08159, 112.506 4.96382, 113.181 2.08073 Z" stroke="none" fill="#000000" />
			<polyline points="-3.3768 0 3.3768 0" fill="none" stroke="#000000" stroke-width="0.385920018" stroke-linecap="round" stroke-linejoin="round" transform="matrix(1 0 0 1 120.79 6.22079)" />
			<polyline points="0 -3.3768 0 3.3768" fill="none" stroke="#000000" stroke-width="0.385920018" stroke-linecap="round" stroke-linejoin="round" transform="matrix(1 0 0 1 120.79 6.22079)" />
			<path d="M 129.731 8.69017 C 129.887 8.69046, 130.012 8.68123, 130.107 8.66276, 130.202 8.64429, 130.278 8.61371, 130.335 8.57043, 130.392 8.52743, 130.437 8.47117, 130.471 8.40192, 130.504 8.33267, 130.546 8.22562, 130.597 8.08077 L 131.001 8.08077, 130.92 9.42885, 127.007 9.42885, 127.007 9.20724 C 127.143 8.88436, 127.327 8.55369, 127.558 8.21494, 127.789 7.87648, 128.118 7.47771, 128.542 7.01892, 128.91 6.62535, 129.175 6.3267, 129.337 6.12328, 129.514 5.90196, 129.646 5.71037, 129.734 5.54878, 129.821 5.3872, 129.883 5.23485, 129.921 5.09173, 129.96 4.94861, 129.979 4.80463, 129.979 4.65978, 129.979 4.42923, 129.941 4.22552, 129.864 4.04835, 129.788 3.87147, 129.672 3.73211, 129.515 3.63054, 129.358 3.52897, 129.161 3.47819, 128.923 3.4779, 128.33 3.47819, 127.93 3.79818, 127.724 4.43817 L 127.149 4.43817, 127.149 3.55176 C 127.533 3.37662, 127.892 3.24966, 128.226 3.17117, 128.561 3.09269, 128.861 3.05345, 129.127 3.05316, 129.717 3.05345, 130.162 3.17896, 130.464 3.42971, 130.765 3.68074, 130.915 4.0446, 130.915 4.52128, 130.915 4.68459, 130.899 4.83492, 130.865 4.97169, 130.832 5.10875, 130.78 5.24408, 130.708 5.37797, 130.637 5.51185, 130.541 5.65583, 130.421 5.80963, 130.3 5.96371, 130.167 6.11981, 130.021 6.27823, 129.876 6.43693, 129.624 6.70066, 129.265 7.0697, 128.663 7.68863, 128.221 8.22879, 127.939 8.69017 Z" stroke="none" fill="#000000" />
			<path d="M 133.944 4.92142 L 134.234 4.92142, 133.895 6.08031, 133.953 6.09916 C 134.261 5.68813, 134.561 5.38339, 134.853 5.18553, 135.146 4.98767, 135.448 4.88874, 135.758 4.88844, 135.994 4.88874, 136.192 4.90611, 136.35 4.94027 L 136.117 5.99552, 135.617 5.99552 C 135.592 5.8324, 135.551 5.70844, 135.496 5.62365, 135.441 5.53885, 135.356 5.49645, 135.239 5.49616, 135.113 5.49645, 134.967 5.55946, 134.802 5.68489, 134.638 5.81061, 134.469 5.98344, 134.298 6.20309, 134.126 6.42303, 133.998 6.6256, 133.912 6.8108, 133.826 6.9963, 133.761 7.20181, 133.715 7.42764 L 133.274 9.46748, 132.434 9.46748, 133.172 6.24991 C 133.24 5.95488, 133.274 5.73053, 133.274 5.57624, 133.274 5.4885, 133.259 5.42049, 133.23 5.37161, 133.201 5.32303, 133.154 5.28681, 133.09 5.26326, 133.025 5.2397, 132.915 5.22322, 132.76 5.2135 L 132.813 4.96382 Z" stroke="none" fill="#000000" />
			<path d="M 139.56 6.09445 C 139.553 5.85595, 139.533 5.68342, 139.499 5.57654, 139.465 5.46995, 139.41 5.38987, 139.334 5.33628, 139.258 5.28299, 139.151 5.25619, 139.012 5.2559, 138.685 5.25619, 138.392 5.3828, 138.131 5.63542, 137.871 5.88834, 137.658 6.24637, 137.493 6.70952, 137.328 7.17296, 137.245 7.61784, 137.245 8.04477, 137.245 8.17697, 137.258 8.30122, 137.282 8.41723, 137.306 8.53353, 137.348 8.63393, 137.408 8.71873, 137.468 8.80353, 137.547 8.87037, 137.646 8.91895, 137.745 8.96782, 137.87 8.99197, 138.022 8.99167, 138.316 8.99197, 138.571 8.93779, 138.786 8.82944, 139.001 8.72109, 139.229 8.55061, 139.468 8.31801 L 139.764 8.60537 C 139.46 8.9322, 139.153 9.17098, 138.844 9.32173, 138.536 9.47248, 138.203 9.54756, 137.847 9.54756, 137.378 9.54756, 137.022 9.41301, 136.78 9.14272, 136.537 8.87272, 136.416 8.47995, 136.416 7.96469, 136.416 7.62903, 136.48 7.26011, 136.61 6.85791, 136.739 6.45601, 136.928 6.10269, 137.178 5.79795, 137.427 5.49351, 137.718 5.26561, 138.051 5.11486, 138.384 4.96411, 138.74 4.88874, 139.118 4.88844, 139.377 4.88874, 139.603 4.90287, 139.795 4.93114, 139.988 4.9594, 140.158 4.99238, 140.307 5.02977 L 140.07 6.09445 Z" stroke="none" fill="#000000" />
			<path d="M 114.13 21.8904 L 114.29 21.8904 C 114.426 21.8907, 114.55 21.8689, 114.661 21.8247, 114.773 21.7809, 114.903 21.7008, 115.052 21.5845, 115.201 21.4685, 115.438 21.2547, 115.763 20.9438, 116.088 20.6329, 116.319 20.3967, 116.457 20.2348, 116.594 20.0732, 116.695 19.9333, 116.758 19.8155, 116.821 19.6978, 116.852 19.5903, 116.852 19.4925, 116.852 19.4142, 116.82 19.3509, 116.755 19.302, 116.69 19.2534, 116.598 19.2243, 116.478 19.2146 L 116.532 18.9837, 118.614 18.9837, 118.56 19.2146 C 118.431 19.2337, 118.284 19.2991, 118.121 19.4104, 117.958 19.522, 117.708 19.7393, 117.371 20.0626 L 115.489 21.8433, 116.522 24.2553 C 116.61 24.4596, 116.68 24.6098, 116.733 24.7055, 116.787 24.8015, 116.844 24.8815, 116.906 24.9457, 116.967 25.0102, 117.037 25.062, 117.114 25.1012, 117.192 25.1406, 117.286 25.168, 117.396 25.1833 L 117.342 25.4142, 115.469 25.4142, 115.523 25.1833 C 115.698 25.168, 115.785 25.0927, 115.785 24.9572, 115.785 24.9166, 115.781 24.8745, 115.773 24.8303, 115.764 24.7864, 115.747 24.722, 115.719 24.6372, 115.692 24.5524, 115.654 24.4502, 115.605 24.3307 L 114.974 22.8326 C 114.9 22.6539, 114.835 22.5284, 114.78 22.456, 114.725 22.3839, 114.667 22.3335, 114.606 22.3053, 114.544 22.277, 114.449 22.2629, 114.319 22.2626 L 114.048 22.2626, 113.645 24.0433 C 113.603 24.232, 113.575 24.3804, 113.562 24.4888, 113.549 24.5971, 113.543 24.6937, 113.543 24.7782, 113.543 24.9198, 113.579 25.0196, 113.652 25.0776, 113.725 25.1359, 113.847 25.171, 114.018 25.1833 L 113.965 25.4142, 112.024 25.4142, 112.078 25.1833 C 112.201 25.1648, 112.293 25.1342, 112.354 25.0918, 112.416 25.0494, 112.468 24.9905, 112.509 24.9151, 112.552 24.8397, 112.59 24.7479, 112.626 24.6395, 112.662 24.5312, 112.715 24.3215, 112.786 24.0103 L 113.611 20.3829 C 113.643 20.2386, 113.669 20.0999, 113.689 19.9663, 113.708 19.8329, 113.718 19.7189, 113.718 19.6244, 113.718 19.4772, 113.679 19.3745, 113.601 19.3162, 113.523 19.2582, 113.404 19.2243, 113.242 19.2146 L 113.296 18.9837, 115.236 18.9837, 115.183 19.2146 C 115.06 19.2399, 114.972 19.2685, 114.919 19.2997, 114.865 19.3312, 114.817 19.3783, 114.773 19.441, 114.729 19.504, 114.686 19.6021, 114.642 19.7354, 114.598 19.8691, 114.543 20.0864, 114.474 20.3876 Z" stroke="none" fill="#000000" />
			<path d="M 0.966461 2.34137 C 1.11497 2.34164, 1.23476 2.33281, 1.32585 2.31514, 1.41694 2.29748, 1.48954 2.26822, 1.54419 2.22681, 1.59885 2.18568, 1.64191 2.13186, 1.67365 2.06561, 1.70567 1.99936, 1.7457 1.89695, 1.79428 1.75839 L 2.181 1.75839, 2.10371 3.04801, -1.6401 3.04801, -1.6401 2.83601 C -1.50982 2.52713, -1.33399 2.2108, -1.11261 1.88674, -0.891231 1.56296, -0.577107 1.18148, -0.170789 0.742591, 0.180875 0.366084, 0.434272 0.0803914, 0.58885 -0.114211, 0.758885 -0.325927, 0.885308 -0.509212, 0.968669 -0.66379, 1.05203 -0.818367, 1.11193 -0.964112, 1.14837 -1.10102, 1.1848 -1.23794, 1.20302 -1.37567, 1.20302 -1.51424, 1.20302 -1.73479, 1.16658 -1.92967, 1.09371 -2.09915, 1.02084 -2.26836, 0.909598 -2.40168, 0.759437 -2.49885, 0.609276 -2.59601, 0.42047 -2.64459, 0.193021 -2.64487, -0.373948 -2.64459, -0.756252 -2.33847, -0.953338 -1.72623 L -1.50375 -1.72623, -1.50375 -2.5742 C -1.13662 -2.74176, -0.79324 -2.86321, -0.47332 -2.93829, -0.153399 -3.01337, 0.13395 -3.05091, 0.388727 -3.05119, 0.952935 -3.05091, 1.37885 -2.93084, 1.66703 -2.69097, 1.95521 -2.45082, 2.09902 -2.10274, 2.09902 -1.64674, 2.09902 -1.4905, 2.08328 -1.34669, 2.05126 -1.21585, 2.01952 -1.08474, 1.96956 -0.955279, 1.9011 -0.8272, 1.83292 -0.699122, 1.74128 -0.561382, 1.6259 -0.414257, 1.51079 -0.266856, 1.38354 -0.117523, 1.24387 0.034018, 1.10448 0.185835, 0.863501 0.438128, 0.52067 0.791173, -0.0556839 1.38326, -0.478564 1.89999, -0.748523 2.34137 Z" stroke="none" fill="#000000" transform="matrix(1.12 0 0 1 121.861 18.7517)" />
			<path d="M 146.488 9.49904 L 146.434 9.72988 C 146.295 9.75225, 146.184 9.79848, 146.102 9.86914, 146.019 9.93981, 145.978 10.0426, 145.978 10.1774, 145.978 10.3788, 146.031 10.6314, 146.138 10.9359 L 146.541 12.0759, 147.579 10.7993 C 147.628 10.7398, 147.676 10.678, 147.722 10.6135, 147.769 10.5493, 147.812 10.4863, 147.849 10.425, 147.886 10.3638, 147.913 10.3114, 147.931 10.2672, 147.949 10.2233, 147.962 10.1842, 147.97 10.1494, 147.978 10.115, 147.982 10.082, 147.982 10.0502, 147.982 9.96572, 147.956 9.89358, 147.904 9.83381, 147.853 9.77433, 147.764 9.73959, 147.638 9.72988 L 147.691 9.49904, 149.501 9.49904, 149.447 9.72988 C 149.35 9.75844, 149.259 9.80407, 149.173 9.86679, 149.088 9.9298, 148.986 10.024, 148.868 10.1494, 148.75 10.2752, 148.53 10.5231, 148.21 10.8935 L 146.764 12.5706, 147.472 14.4832 C 147.579 14.7723, 147.665 14.9908, 147.73 15.138, 147.801 15.2953, 147.862 15.4101, 147.914 15.4819, 147.956 15.5355, 148 15.5779, 148.045 15.6091, 148.09 15.6377, 148.166 15.6674, 148.273 15.6986 L 148.225 15.9295, 146.264 15.9295, 146.313 15.6986 C 146.462 15.6768, 146.576 15.6277, 146.655 15.5505, 146.734 15.4737, 146.774 15.3739, 146.774 15.2511, 146.774 15.0662, 146.735 14.8604, 146.657 14.634 L 146.153 13.1971, 145.046 14.5397 C 144.881 14.7411, 144.762 14.9051, 144.687 15.0323, 144.613 15.1595, 144.576 15.2688, 144.576 15.3594, 144.576 15.4351, 144.586 15.4949, 144.607 15.5388, 144.628 15.5829, 144.664 15.6183, 144.714 15.6448, 144.764 15.6715, 144.833 15.6895, 144.92 15.6986 L 144.867 15.9295, 143.062 15.9295, 143.11 15.6986 C 143.175 15.6768, 143.233 15.6527, 143.283 15.6259, 143.333 15.5994, 143.388 15.5617, 143.447 15.5128, 143.508 15.4643, 143.588 15.3851, 143.69 15.2749, 143.792 15.1651, 143.908 15.0362, 144.037 14.8884 L 145.93 12.7025, 145.211 10.7663 C 145.14 10.5749, 145.077 10.415, 145.022 10.2861, 144.967 10.1574, 144.913 10.0552, 144.86 9.97985, 144.806 9.90447, 144.751 9.84794, 144.692 9.81026, 144.634 9.77257, 144.561 9.74578, 144.474 9.72988 L 144.527 9.49904 Z" stroke="none" fill="#000000" />
			<path d="M 1.81685 2.23537 C 1.56814 2.52713, 1.32247 2.74741, 1.07984 2.89591, 0.837211 3.04469, 0.579398 3.11867, 0.306402 3.11867, -0.0148983 3.11867, -0.254494 3.03945, -0.412384 2.88045, -0.569998 2.72146, -0.648943 2.49042, -0.648943 2.18679, -0.648943 2.00157, -0.621615 1.79399, -0.566961 1.56406 L -0.0027529 -0.728105, -0.680686 -0.728105, -0.630724 -0.953347 C -0.45158 -0.973773, -0.3097 -1.01104, -0.205084 -1.06569, -0.100468 -1.12007, -0.0126899 -1.19211, 0.0585262 -1.2821, 0.129742 -1.37181, 0.195714 -1.48885, 0.256441 -1.63321, 0.317168 -1.7773, 0.393076 -1.98791, 0.483891 -2.26505 L 1.11159 -2.26505, 0.861502 -1.17417, 2.30349 -1.17417, 2.20329 -0.728105, 0.756886 -0.728105, 0.320204 0.985499 C 0.19875 1.46276, 0.138023 1.81911, 0.138023 2.05429, 0.138023 2.23427, 0.178324 2.37035, 0.258649 2.4631, 0.33925 2.55584, 0.456564 2.60222, 0.611141 2.60194, 0.750813 2.60222, 0.89711 2.55005, 1.05031 2.44543, 1.2035 2.34109, 1.37106 2.18265, 1.55296 1.97038 Z" stroke="none" fill="#000000" transform="matrix(1.12 0 0 1 150.83 15.6161)" />
			<polyline points="-3.3768 0 3.3768 0" fill="none" stroke="#000000" stroke-width="0.385920018" stroke-linecap="round" stroke-linejoin="round" transform="matrix(1 0 0 1 159.599 12.6828)" />
			<polyline points="0 -3.3768 0 3.3768" fill="none" stroke="#000000" stroke-width="0.385920018" stroke-linecap="round" stroke-linejoin="round" transform="matrix(1 0 0 1 159.599 12.6828)" />
			<polyline points="166.883 12.6828 186.095 12.6828" fill="none" stroke="#000000" stroke-width="0.385920018" stroke-linecap="round" stroke-linejoin="round" />
			<path d="M 169.402 4.92142 L 169.693 4.92142, 169.354 6.08031, 169.412 6.09916 C 169.72 5.68813, 170.02 5.38339, 170.312 5.18553, 170.605 4.98767, 170.907 4.88874, 171.217 4.88844, 171.453 4.88874, 171.651 4.90611, 171.809 4.94027 L 171.576 5.99552, 171.076 5.99552 C 171.05 5.8324, 171.01 5.70844, 170.955 5.62365, 170.9 5.53885, 170.815 5.49645, 170.698 5.49616, 170.572 5.49645, 170.426 5.55946, 170.261 5.68489, 170.096 5.81061, 169.928 5.98344, 169.757 6.20309, 169.585 6.42303, 169.457 6.6256, 169.371 6.8108, 169.285 6.9963, 169.22 7.20181, 169.174 7.42764 L 168.733 9.46748, 167.893 9.46748, 168.631 6.24991 C 168.699 5.95488, 168.733 5.73053, 168.733 5.57624, 168.733 5.4885, 168.718 5.42049, 168.689 5.37161, 168.66 5.32303, 168.613 5.28681, 168.549 5.26326, 168.484 5.2397, 168.374 5.22322, 168.219 5.2135 L 168.272 4.96382 Z" stroke="none" fill="#000000" />
			<path d="M 175.017 6.09445 C 175.011 5.85595, 174.991 5.68342, 174.957 5.57654, 174.923 5.46995, 174.868 5.38987, 174.792 5.33628, 174.716 5.28299, 174.608 5.25619, 174.469 5.2559, 174.142 5.25619, 173.849 5.3828, 173.588 5.63542, 173.328 5.88834, 173.115 6.24637, 172.95 6.70952, 172.785 7.17296, 172.703 7.61784, 172.703 8.04477, 172.703 8.17697, 172.715 8.30122, 172.739 8.41723, 172.764 8.53353, 172.806 8.63393, 172.865 8.71873, 172.925 8.80353, 173.004 8.87037, 173.103 8.91895, 173.202 8.96782, 173.327 8.99197, 173.479 8.99167, 173.773 8.99197, 174.028 8.93779, 174.243 8.82944, 174.459 8.72109, 174.686 8.55061, 174.925 8.31801 L 175.221 8.60537 C 174.917 8.9322, 174.611 9.17098, 174.302 9.32173, 173.993 9.47248, 173.66 9.54756, 173.304 9.54756, 172.835 9.54756, 172.479 9.41301, 172.237 9.14272, 171.994 8.87272, 171.873 8.47995, 171.873 7.96469, 171.873 7.62903, 171.938 7.26011, 172.067 6.85791, 172.197 6.45601, 172.386 6.10269, 172.635 5.79795, 172.884 5.49351, 173.175 5.26561, 173.509 5.11486, 173.842 4.96411, 174.197 4.88874, 174.576 4.88844, 174.835 4.88874, 175.06 4.90287, 175.253 4.93114, 175.445 4.9594, 175.616 4.99238, 175.764 5.02977 L 175.527 6.09445 Z" stroke="none" fill="#000000" />
			<path d="M 178.106 5.9437 L 178.266 5.9437 C 178.402 5.94399, 178.526 5.9222, 178.637 5.87804, 178.749 5.83417, 178.879 5.75408, 179.028 5.63778, 179.177 5.52177, 179.414 5.30801, 179.739 4.99709, 180.064 4.68617, 180.295 4.45003, 180.433 4.28809, 180.57 4.12645, 180.671 3.98659, 180.734 3.86882, 180.797 3.75105, 180.828 3.64358, 180.828 3.54583, 180.828 3.46751, 180.796 3.40421, 180.731 3.35533, 180.666 3.30675, 180.574 3.2776, 180.454 3.26788 L 180.508 3.03705, 182.59 3.03705, 182.536 3.26788 C 182.407 3.28702, 182.26 3.35239, 182.097 3.46368, 181.934 3.57527, 181.684 3.79256, 181.347 4.11585 L 179.465 5.89659, 180.498 8.30859 C 180.586 8.51292, 180.656 8.66308, 180.709 8.75877, 180.763 8.85476, 180.82 8.93485, 180.882 8.99903, 180.943 9.06351, 181.013 9.11533, 181.09 9.15449, 181.168 9.19395, 181.262 9.22133, 181.372 9.23664 L 181.318 9.46748, 179.445 9.46748, 179.499 9.23664 C 179.674 9.22133, 179.761 9.14596, 179.761 9.01052, 179.761 8.96988, 179.757 8.92778, 179.749 8.88361, 179.74 8.83974, 179.723 8.77526, 179.695 8.69047, 179.668 8.60567, 179.63 8.5035, 179.581 8.38396 L 178.95 6.88588 C 178.876 6.70716, 178.811 6.58173, 178.756 6.5093, 178.701 6.43717, 178.643 6.38682, 178.581 6.35855, 178.52 6.33029, 178.425 6.31615, 178.295 6.31586 L 178.024 6.31586, 177.621 8.09659 C 177.579 8.28533, 177.551 8.43372, 177.538 8.54207, 177.525 8.65042, 177.519 8.747, 177.519 8.8315, 177.519 8.97312, 177.555 9.07294, 177.628 9.13094, 177.701 9.18924, 177.823 9.22427, 177.994 9.23664 L 177.941 9.46748, 176 9.46748, 176.053 9.23664 C 176.177 9.21809, 176.269 9.18747, 176.33 9.14507, 176.392 9.10267, 176.444 9.04379, 176.485 8.96841, 176.528 8.89304, 176.566 8.80117, 176.602 8.69282, 176.638 8.58447, 176.691 8.37483, 176.762 8.06362 L 177.587 4.43619 C 177.619 4.29192, 177.645 4.15324, 177.665 4.01957, 177.684 3.88619, 177.693 3.77225, 177.693 3.67773, 177.693 3.53052, 177.655 3.42776, 177.577 3.36946, 177.499 3.31146, 177.38 3.2776, 177.218 3.26788 L 177.272 3.03705, 179.212 3.03705, 179.159 3.26788 C 179.036 3.2932, 178.948 3.32176, 178.894 3.35297, 178.841 3.38448, 178.793 3.43159, 178.749 3.4943, 178.705 3.55731, 178.662 3.65536, 178.618 3.78874, 178.574 3.92241, 178.518 4.1397, 178.45 4.44091 Z" stroke="none" fill="#000000" />
			<path d="M 184.75 2.08073 L 184.75 2.34925, 183.58 5.08159, 183.168 4.96382, 183.842 2.08073 Z" stroke="none" fill="#000000" />
			<path d="M 175.299 18.8677 L 175.459 18.8677 C 175.596 18.868, 175.719 18.8462, 175.831 18.802, 175.942 18.7582, 176.073 18.6781, 176.221 18.5618, 176.37 18.4458, 176.607 18.232, 176.932 17.9211, 177.257 17.6102, 177.489 17.374, 177.626 17.2121, 177.764 17.0504, 177.864 16.9106, 177.927 16.7928, 177.99 16.675, 178.021 16.5676, 178.021 16.4698, 178.021 16.3915, 177.989 16.3282, 177.924 16.2793, 177.86 16.2307, 177.768 16.2016, 177.648 16.1919 L 177.701 15.961, 179.783 15.961, 179.729 16.1919 C 179.6 16.211, 179.454 16.2764, 179.29 16.3877, 179.127 16.4993, 178.877 16.7165, 178.541 17.0398 L 176.658 18.8206, 177.692 21.2326 C 177.779 21.4369, 177.849 21.5871, 177.903 21.6828, 177.956 21.7787, 178.014 21.8588, 178.075 21.923, 178.136 21.9875, 178.206 22.0393, 178.284 22.0785, 178.361 22.1179, 178.455 22.1453, 178.565 22.1606 L 178.512 22.3915, 176.639 22.3915, 176.692 22.1606 C 176.867 22.1453, 176.954 22.0699, 176.954 21.9345, 176.954 21.8939, 176.95 21.8518, 176.942 21.8076, 176.934 21.7637, 176.916 21.6992, 176.888 21.6145, 176.861 21.5297, 176.823 21.4275, 176.774 21.3079 L 176.144 19.8099 C 176.07 19.6311, 176.005 19.5057, 175.95 19.4333, 175.895 19.3612, 175.836 19.3108, 175.775 19.2825, 175.714 19.2543, 175.618 19.2401, 175.489 19.2398 L 175.217 19.2398, 174.814 21.0206 C 174.772 21.2093, 174.745 21.3577, 174.732 21.4661, 174.719 21.5744, 174.712 21.671, 174.712 21.7555, 174.712 21.8971, 174.749 21.9969, 174.821 22.0549, 174.894 22.1132, 175.016 22.1483, 175.188 22.1606 L 175.134 22.3915, 173.194 22.3915, 173.247 22.1606 C 173.37 22.1421, 173.462 22.1115, 173.524 22.0691, 173.585 22.0267, 173.637 21.9678, 173.679 21.8924, 173.721 21.817, 173.76 21.7252, 173.795 21.6168, 173.831 21.5085, 173.884 21.2988, 173.955 20.9876 L 174.78 17.3602 C 174.813 17.2159, 174.839 17.0772, 174.858 16.9436, 174.877 16.8102, 174.887 16.6962, 174.887 16.6017, 174.887 16.4545, 174.848 16.3517, 174.771 16.2934, 174.693 16.2354, 174.573 16.2016, 174.411 16.1919 L 174.465 15.961, 176.406 15.961, 176.352 16.1919 C 176.229 16.2172, 176.141 16.2457, 176.088 16.277, 176.035 16.3085, 175.986 16.3556, 175.942 16.4183, 175.899 16.4813, 175.855 16.5793, 175.811 16.7127, 175.768 16.8464, 175.712 17.0637, 175.644 17.3649 Z" stroke="none" fill="#000000" />
			<polyline points="-3.3768 0 3.3768 0" fill="none" stroke="#000000" stroke-width="0.385920018" stroke-linecap="round" stroke-linejoin="round" transform="matrix(1 0 0 1 193.379 12.6828)" />
			<path d="M 204.909 11.5671 C 204.308 12.2803, 203.793 12.9619, 203.366 13.6117, 203.315 14.1081, 203.289 14.4929, 203.289 14.7659, 203.289 15.0362, 203.318 15.2272, 203.376 15.3385, 203.434 15.4501, 203.531 15.5058, 203.667 15.5055, 203.819 15.5058, 204.005 15.4116, 204.225 15.2228 L 204.381 15.4584 C 203.967 15.8229, 203.57 16.0048, 203.192 16.0048, 202.732 16.0048, 202.503 15.6739, 202.503 15.0108, 202.503 14.9013, 202.509 14.7803, 202.522 14.6481 L 202.503 14.6481 C 201.856 15.5529, 201.217 16.0048, 200.586 16.0048, 200.266 16.0048, 200.013 15.8703, 199.829 15.6, 199.645 15.33, 199.552 14.9861, 199.552 14.568, 199.552 13.7548, 199.801 13.0146, 200.297 12.3471, 200.794 11.6799, 201.414 11.346, 202.158 11.3457, 202.854 11.346, 203.247 11.778, 203.337 12.6412 L 203.356 12.6412, 203.992 11.4352, 204.817 11.4352 Z M 202.673 13.6447 C 202.711 13.1989, 202.73 12.8803, 202.73 12.6883, 202.73 12.3368, 202.683 12.088, 202.587 11.942, 202.492 11.7959, 202.334 11.7229, 202.114 11.7226, 201.639 11.7229, 201.235 12.015, 200.904 12.5991, 200.572 13.1833, 200.406 13.8522, 200.406 14.6057, 200.406 14.8448, 200.457 15.045, 200.559 15.2066, 200.661 15.3686, 200.796 15.4492, 200.964 15.449, 201.573 15.4492, 202.142 14.8477, 202.673 13.6447 Z" stroke="none" fill="#000000" />
			<path d="M 210.366 9.66392 L 210.075 10.9406, 209.609 10.9406 C 209.583 10.5546, 209.497 10.276, 209.349 10.1047, 209.202 9.93362, 208.965 9.84794, 208.638 9.84765, 208.367 9.84794, 208.111 9.92567, 207.872 10.0811, 207.633 10.2366, 207.406 10.4612, 207.192 10.7548, 206.979 11.0486, 206.793 11.3925, 206.634 11.7865, 206.476 12.1807, 206.355 12.5826, 206.271 12.9925, 206.186 13.4023, 206.144 13.7722, 206.144 14.1016, 206.144 14.6139, 206.231 14.9899, 206.404 15.2302, 206.577 15.4704, 206.848 15.5906, 207.217 15.5903, 207.459 15.5906, 207.671 15.5552, 207.852 15.4846, 208.034 15.4139, 208.204 15.2947, 208.362 15.1265, 208.52 14.9587, 208.677 14.7238, 208.832 14.422 L 209.298 14.422, 209.002 15.7599 C 208.673 15.8482, 208.354 15.9109, 208.047 15.9483, 207.739 15.986, 207.424 16.0048, 207.1 16.0048, 206.699 16.0048, 206.358 15.9245, 206.077 15.7625, 205.795 15.6009, 205.583 15.3668, 205.441 15.0606, 205.299 14.7544, 205.227 14.386, 205.227 13.9556, 205.227 13.7298, 205.244 13.5098, 205.276 13.2961, 205.315 13.0325, 205.376 12.7452, 205.46 12.434, 205.567 12.048, 205.701 11.6961, 205.863 11.3787, 206.038 11.043, 206.237 10.7463, 206.46 10.4883, 206.67 10.2498, 206.898 10.0505, 207.144 9.89005, 207.371 9.74283, 207.615 9.6283, 207.877 9.54644, 208.139 9.46488, 208.417 9.42396, 208.711 9.42366, 209.006 9.42396, 209.278 9.44133, 209.529 9.47578, 209.78 9.51052, 210.058 9.57324, 210.366 9.66392 Z" stroke="none" fill="#000000" />
			<path d="M 212.365 9.19283 L 212.651 9.19283, 211.39 14.7517 C 211.354 14.9028, 211.331 15.0167, 211.322 15.0936, 211.312 15.1707, 211.307 15.2358, 211.307 15.2888, 211.307 15.3833, 211.323 15.4572, 211.355 15.5105, 211.388 15.5641, 211.438 15.6047, 211.506 15.633, 211.574 15.6612, 211.685 15.6833, 211.841 15.6986 L 211.802 15.9295, 210.288 15.9295, 211.54 10.5213 C 211.572 10.3835, 211.595 10.2799, 211.608 10.2107, 211.621 10.1418, 211.63 10.0758, 211.637 10.0128, 211.643 9.95011, 211.647 9.89505, 211.647 9.84765, 211.647 9.75372, 211.629 9.68247, 211.593 9.6336, 211.558 9.58501, 211.507 9.54968, 211.44 9.5276, 211.374 9.50581, 211.255 9.48991, 211.084 9.4802 L 211.142 9.23523 Z" stroke="none" fill="#000000" />
			<path d="M 217.148 12.3492 L 217.148 12.4151 C 217.148 12.4375, 217.146 12.461, 217.143 12.4858, 217.424 12.0998, 217.704 11.8142, 217.982 11.6287, 218.261 11.4435, 218.549 11.3507, 218.846 11.3504, 219.153 11.3507, 219.387 11.4349, 219.547 11.6028, 219.707 11.7709, 219.787 12.0197, 219.787 12.3492, 219.787 12.5505, 219.755 12.7923, 219.69 13.0746 L 219.283 14.7517 C 219.228 14.9782, 219.2 15.1572, 219.2 15.2888, 219.2 15.3833, 219.216 15.4572, 219.249 15.5105, 219.281 15.5641, 219.331 15.6047, 219.399 15.633, 219.467 15.6612, 219.579 15.6833, 219.734 15.6986 L 219.69 15.9295, 218.167 15.9295, 218.778 13.5363 C 218.823 13.3638, 218.863 13.1889, 218.897 13.0113, 218.931 12.8341, 218.948 12.673, 218.948 12.5282, 218.948 12.3023, 218.908 12.1416, 218.827 12.0456, 218.746 11.9499, 218.618 11.9019, 218.443 11.9016, 218.317 11.9019, 218.176 11.9523, 218.019 12.0527, 217.862 12.1534, 217.698 12.3071, 217.526 12.5143, 217.355 12.7216, 217.215 12.9265, 217.106 13.1291, 216.998 13.3317, 216.912 13.579, 216.847 13.8708 L 216.405 15.9295, 215.566 15.9295, 216.124 13.5363 C 216.192 13.2445, 216.238 13.0287, 216.262 12.8889, 216.286 12.7493, 216.299 12.6289, 216.299 12.5282, 216.299 12.3023, 216.257 12.1416, 216.175 12.0456, 216.092 11.9499, 215.964 11.9019, 215.789 11.9016, 215.66 11.9019, 215.517 11.9531, 215.36 12.055, 215.203 12.1572, 215.037 12.315, 214.862 12.5285, 214.688 12.7422, 214.548 12.9519, 214.443 13.1574, 214.338 13.3632, 214.256 13.6073, 214.197 13.8896 L 213.756 15.9295, 212.916 15.9295, 213.654 12.7119 C 213.67 12.6401, 213.692 12.5332, 213.72 12.3918, 213.747 12.2505, 213.761 12.1327, 213.761 12.0382, 213.761 11.9505, 213.747 11.8825, 213.72 11.8336, 213.692 11.785, 213.645 11.7488, 213.579 11.7253, 213.513 11.7017, 213.4 11.6852, 213.242 11.6755 L 213.3 11.4258, 214.406 11.3834, 214.678 11.3834, 214.358 12.6035, 214.416 12.6224 C 214.714 12.1925, 215.009 11.8731, 215.304 11.664, 215.598 11.4553, 215.896 11.3507, 216.197 11.3504, 216.507 11.3507, 216.743 11.4364, 216.905 11.6075, 217.067 11.7788, 217.148 12.0259, 217.148 12.3492 Z" stroke="none" fill="#000000" />
			<path d="M 1.81685 2.23537 C 1.56814 2.52713, 1.32247 2.74741, 1.07984 2.89591, 0.837211 3.04469, 0.579398 3.11867, 0.306402 3.11867, -0.0148983 3.11867, -0.254494 3.03945, -0.412384 2.88045, -0.569998 2.72146, -0.648943 2.49042, -0.648943 2.18679, -0.648943 2.00157, -0.621615 1.79399, -0.566961 1.56406 L -0.0027529 -0.728105, -0.680686 -0.728105, -0.630724 -0.953347 C -0.45158 -0.973773, -0.3097 -1.01104, -0.205084 -1.06569, -0.100468 -1.12007, -0.0126899 -1.19211, 0.0585262 -1.2821, 0.129742 -1.37181, 0.195714 -1.48885, 0.256441 -1.63321, 0.317168 -1.7773, 0.393076 -1.98791, 0.483891 -2.26505 L 1.11159 -2.26505, 0.861502 -1.17417, 2.30349 -1.17417, 2.20329 -0.728105, 0.756886 -0.728105, 0.320204 0.985499 C 0.19875 1.46276, 0.138023 1.81911, 0.138023 2.05429, 0.138023 2.23427, 0.178324 2.37035, 0.258649 2.4631, 0.33925 2.55584, 0.456564 2.60222, 0.611141 2.60194, 0.750813 2.60222, 0.89711 2.55005, 1.05031 2.44543, 1.2035 2.34109, 1.37106 2.18265, 1.55296 1.97038 Z" stroke="none" fill="#000000" transform="matrix(1.12 0 0 1 221.406 15.6161)" />
			<rect />
		</svg>
	</g>
</svg>
