<?xml version="1.0"?>
<svg xmlns="http://www.w3.org/2000/svg" xmlns:xlink="http://www.w3.org/1999/xlink" width="188.946655" height="33.5046234">
	<defs />
	<rect x="-0" y="-0" width="188.946655" height="33.5046234" stroke="none" fill="#FFFFFF" />
	<g transform="matrix(1 0 -0 1 7.74745 7.75001)">
		<svg width="521.977844" height="96.0535431">
			<defs />
			<path d="M 2.20237 11.0251 C 2.20237 11.4055, 2.29306 11.689, 2.47414 11.8757, 2.65551 12.0627, 2.93846 12.156, 3.32328 12.1557, 3.62096 12.156, 3.87652 12.1027, 4.08999 11.9958, 4.30345 11.8893, 4.4651 11.7376, 4.57521 11.5412, 4.68533 11.3451, 4.7401 11.1117, 4.7401 10.8414, 4.7401 10.65, 4.70535 10.4813, 4.63587 10.3352, 4.56638 10.1892, 4.46127 10.0496, 4.32053 9.91596, 4.17979 9.78258, 3.97693 9.62947, 3.71135 9.45635, 3.47227 9.29971, 3.27323 9.14513, 3.11482 8.99261, 2.95642 8.84039, 2.83011 8.66992, 2.73618 8.48148, 2.64255 8.29304, 2.59544 8.08252, 2.59544 7.84992, 2.59544 7.47952, 2.6879 7.15299, 2.87221 6.87034, 3.05653 6.58768, 3.3171 6.36951, 3.65334 6.21552, 3.98959 6.06182, 4.37794 5.98468, 4.81783 5.98439, 5.1155 5.98468, 5.39138 6.00441, 5.64519 6.04357, 5.89899 6.08302, 6.17958 6.14956, 6.48697 6.24349 L 6.21521 7.4542, 5.74942 7.4542 C 5.73646 7.18744, 5.69465 6.9781, 5.6234 6.82558, 5.55215 6.67336, 5.45027 6.56413, 5.31748 6.49817, 5.18499 6.43222, 5.00862 6.39924, 4.78868 6.39895, 4.52016 6.39924, 4.28402 6.45283, 4.08027 6.55941, 3.87652 6.66629, 3.72106 6.81145, 3.61448 6.99518, 3.50789 7.1789, 3.45431 7.38383, 3.45431 7.60966, 3.45431 7.77336, 3.48345 7.9194, 3.54175 8.04807, 3.60005 8.17703, 3.6928 8.30334, 3.82058 8.4273, 3.94837 8.55155, 4.13533 8.69494, 4.38089 8.85806, 4.69799 9.07182, 4.93972 9.2629, 5.10637 9.43073, 5.27302 9.59885, 5.3961 9.77699, 5.4753 9.96542, 5.5545 10.1539, 5.59396 10.372, 5.59396 10.6199, 5.59396 11.0004, 5.49944 11.3387, 5.31012 11.6355, 5.12109 11.9322, 4.85404 12.1616, 4.50956 12.3232, 4.16507 12.4852, 3.77288 12.5656, 3.333 12.5656, 3.03209 12.5656, 2.71263 12.5438, 2.37462 12.4996, 2.03661 12.456, 1.72686 12.3963, 1.44539 12.3206 L 1.73658 11.0251 Z" stroke="none" fill="#000000" />
			<path d="M 9.42446 11.6234 C 9.15917 11.9346, 8.89713 12.1696, 8.63832 12.328, 8.37951 12.4867, 8.10451 12.5656, 7.81332 12.5656, 7.4706 12.5656, 7.21503 12.4811, 7.04661 12.3115, 6.87849 12.1419, 6.79428 11.8954, 6.79428 11.5716, 6.79428 11.374, 6.82343 11.1526, 6.88173 10.9073 L 7.48355 8.46234, 6.76042 8.46234, 6.81372 8.22208 C 7.0048 8.20029, 7.15614 8.16054, 7.26773 8.10225, 7.37932 8.04424, 7.47295 7.9674, 7.54892 7.87141, 7.62488 7.77572, 7.69525 7.65088, 7.76003 7.49689, 7.8248 7.3432, 7.90577 7.11854, 8.00264 6.82293 L 8.67218 6.82293, 8.40542 7.98653, 9.94355 7.98653, 9.83667 8.46234, 8.29383 8.46234, 7.82804 10.2902 C 7.69849 10.7993, 7.63371 11.1794, 7.63371 11.4302, 7.63371 11.6222, 7.6767 11.7674, 7.76238 11.8663, 7.84836 11.9652, 7.97349 12.0147, 8.13837 12.0144, 8.28736 12.0147, 8.44341 11.959, 8.60682 11.8474, 8.77023 11.7361, 8.94895 11.5671, 9.14298 11.3407 Z" stroke="none" fill="#000000" />
			<path d="M 13.558 8.21737 L 14.0043 7.90645, 14.315 7.98182, 13.5724 11.1806 C 13.5274 11.3693, 13.4967 11.5147, 13.4805 11.6166, 13.4643 11.7188, 13.4561 11.8027, 13.4561 11.8683, 13.4561 11.9973, 13.4935 12.0909, 13.5677 12.1489, 13.6422 12.2072, 13.7844 12.244, 13.9946 12.2594 L 13.951 12.4902, 12.5634 12.4902, 12.869 11.3077, 12.806 11.2889 C 12.4954 11.7288, 12.2009 12.0509, 11.9227 12.2549, 11.6447 12.4593, 11.3503 12.5609, 11.0397 12.5609, 10.684 12.5609, 10.4081 12.431, 10.2123 12.1701, 10.0168 11.9096, 9.91878 11.5436, 9.91878 11.0722, 9.91878 10.771, 9.9544 10.4689, 10.0257 10.1656, 10.0969 9.86267, 10.2044 9.5753, 10.3484 9.30354, 10.4923 9.03207, 10.6646 8.7924, 10.8651 8.58512, 11.0656 8.37784, 11.2976 8.21295, 11.5614 8.09047, 11.8252 7.96799, 12.1123 7.90674, 12.4226 7.90645, 12.6231 7.90674, 12.8139 7.92971, 12.995 7.97505, 13.1764 8.02069, 13.3639 8.10136, 13.558 8.21737 Z M 13.131 9.62123 C 13.1602 9.49286, 13.1796 9.38127, 13.1893 9.28705, 13.1991 9.19283, 13.2038 9.09066, 13.2038 8.98054, 13.2038 8.73587, 13.1505 8.55774, 13.0436 8.44615, 12.937 8.33485, 12.7589 8.27891, 12.5098 8.27861, 12.3741 8.27891, 12.2448 8.30011, 12.1217 8.3425, 11.999 8.3849, 11.8744 8.45557, 11.7481 8.5545, 11.6221 8.65343, 11.5014 8.78298, 11.3865 8.94315, 11.2717 9.10332, 11.1675 9.29824, 11.0735 9.52731, 10.9799 9.75667, 10.9072 10.0025, 10.8554 10.2646, 10.8035 10.5269, 10.7776 10.7819, 10.7776 11.0298, 10.7776 11.3566, 10.8239 11.601, 10.916 11.7626, 11.0082 11.9246, 11.1625 12.0053, 11.3792 12.005, 11.4796 12.0053, 11.5838 11.9835, 11.6922 11.9393, 11.8005 11.8954, 11.9212 11.8145, 12.0537 11.6967, 12.1865 11.5789, 12.337 11.4055, 12.5051 11.1758, 12.657 10.9656, 12.7777 10.7577, 12.8666 10.5519, 12.9556 10.3464, 13.0292 10.1035, 13.0872 9.8238 Z" stroke="none" fill="#000000" />
			<path d="M 15.7986 12.2594 L 15.3522 12.5656, 15.0419 12.4902, 16.2985 7.10559 C 16.318 7.02727, 16.3415 6.9145, 16.3689 6.7667, 16.3966 6.61918, 16.4101 6.49964, 16.4101 6.40837, 16.4101 6.27676, 16.3689 6.18431, 16.2865 6.13072, 16.204 6.07743, 16.0559 6.04739, 15.8425 6.04092 L 15.9007 5.79595, 17.1282 5.75355, 17.4097 5.75355, 16.5556 9.05121, 16.6189 9.07005 C 16.9327 8.66197, 17.2269 8.36694, 17.5019 8.18469, 17.7769 8.00273, 18.0519 7.91145, 18.3269 7.91116, 18.6796 7.91145, 18.9537 8.04189, 19.1492 8.30246, 19.345 8.56333, 19.4428 8.93049, 19.4428 9.40453, 19.4428 9.74401, 19.3951 10.085, 19.2997 10.4271, 19.2043 10.7695, 19.0718 11.079, 18.9019 11.3551, 18.732 11.6316, 18.5427 11.8586, 18.3339 12.0359, 18.1255 12.2134, 17.9055 12.3462, 17.6741 12.434, 17.443 12.5217, 17.1995 12.5656, 16.9439 12.5656, 16.5138 12.5656, 16.1319 12.4637, 15.7986 12.2594 Z M 16.2258 10.8508 C 16.1934 10.9924, 16.1734 11.1125, 16.1651 11.2115, 16.1569 11.3104, 16.1528 11.4037, 16.1528 11.4915, 16.1528 11.74, 16.2087 11.919, 16.3203 12.0288, 16.4322 12.1389, 16.6174 12.1937, 16.8759 12.1934, 17.0443 12.1937, 17.198 12.1625, 17.337 12.0995, 17.476 12.0368, 17.6079 11.9449, 17.7324 11.8239, 17.857 11.7032, 17.97 11.5562, 18.0719 11.3834, 18.1738 11.2109, 18.2636 11.0136, 18.3413 10.7922, 18.419 10.5708, 18.4779 10.3417, 18.5183 10.1044, 18.5589 9.86738, 18.5789 9.64655, 18.5789 9.44221, 18.5789 9.11598, 18.5312 8.87101, 18.4358 8.7076, 18.3404 8.54449, 18.1876 8.46263, 17.9774 8.46234, 17.8222 8.46263, 17.6694 8.51063, 17.519 8.60632, 17.3685 8.7023, 17.201 8.86071, 17.0167 9.08212, 16.8323 9.30354, 16.6822 9.53054, 16.5656 9.76285, 16.449 9.99545, 16.3503 10.2919, 16.2694 10.6529 Z" stroke="none" fill="#000000" />
			<path d="M 22.4951 6.13985 L 22.272 7.05377, 21.4131 7.05377, 21.6363 6.13985 Z M 21.2968 11.3125 C 21.2615 11.4729, 21.2388 11.5901, 21.2291 11.6637, 21.2194 11.7376, 21.2144 11.7994, 21.2144 11.8495, 21.2144 11.944, 21.2305 12.0179, 21.2629 12.0712, 21.2953 12.1248, 21.3454 12.1654, 21.4131 12.1937, 21.4811 12.222, 21.5927 12.244, 21.7479 12.2594 L 21.7043 12.4902, 20.2 12.4902, 20.9329 9.31502 C 20.975 9.13306, 21.0041 8.9879, 21.0203 8.87955, 21.0365 8.7712, 21.0445 8.68081, 21.0445 8.60838, 21.0445 8.51769, 21.0309 8.44703, 21.0032 8.39668, 20.9759 8.34663, 20.9299 8.30894, 20.8652 8.28362, 20.8004 8.25859, 20.6888 8.24269, 20.5301 8.23621 L 20.5834 7.98653, 21.7673 7.94414, 22.0538 7.94414 Z" stroke="none" fill="#000000" />
			<path d="M 24.8556 5.75355 L 25.1418 5.75355, 23.8804 11.3125 C 23.8448 11.4635, 23.8221 11.5774, 23.8124 11.6543, 23.8027 11.7314, 23.7977 11.7965, 23.7977 11.8495, 23.7977 11.944, 23.8139 12.0179, 23.8463 12.0712, 23.8786 12.1248, 23.929 12.1654, 23.9967 12.1937, 24.0647 12.222, 24.1763 12.244, 24.3315 12.2594 L 24.2926 12.4902, 22.7789 12.4902, 24.0306 7.08203 C 24.063 6.94424, 24.0856 6.8406, 24.0986 6.77141, 24.1115 6.70251, 24.1213 6.63656, 24.1277 6.57355, 24.1342 6.51083, 24.1375 6.45577, 24.1375 6.40837, 24.1375 6.31445, 24.1198 6.24319, 24.0842 6.19432, 24.0485 6.14574, 23.9976 6.1104, 23.9314 6.08832, 23.8651 6.06653, 23.7462 6.05063, 23.5745 6.04092 L 23.6328 5.79595 Z" stroke="none" fill="#000000" />
			<path d="M 27.7024 6.13985 L 27.4792 7.05377, 26.6204 7.05377, 26.8436 6.13985 Z M 26.5041 11.3125 C 26.4687 11.4729, 26.4461 11.5901, 26.4364 11.6637, 26.4266 11.7376, 26.4216 11.7994, 26.4216 11.8495, 26.4216 11.944, 26.4378 12.0179, 26.4702 12.0712, 26.5026 12.1248, 26.5527 12.1654, 26.6204 12.1937, 26.6884 12.222, 26.8 12.244, 26.9551 12.2594 L 26.9116 12.4902, 25.4073 12.4902, 26.1402 9.31502 C 26.1823 9.13306, 26.2114 8.9879, 26.2276 8.87955, 26.2438 8.7712, 26.2517 8.68081, 26.2517 8.60838, 26.2517 8.51769, 26.2382 8.44703, 26.2105 8.39668, 26.1831 8.34663, 26.1372 8.30894, 26.0724 8.28362, 26.0077 8.25859, 25.8961 8.24269, 25.7374 8.23621 L 25.7907 7.98653, 26.9746 7.94414, 27.2611 7.94414 Z" stroke="none" fill="#000000" />
			<path d="M 30.8879 11.6234 C 30.6226 11.9346, 30.3605 12.1696, 30.1017 12.328, 29.8429 12.4867, 29.5679 12.5656, 29.2767 12.5656, 28.934 12.5656, 28.6784 12.4811, 28.51 12.3115, 28.3419 12.1419, 28.2577 11.8954, 28.2577 11.5716, 28.2577 11.374, 28.2868 11.1526, 28.3451 10.9073 L 28.947 8.46234, 28.2238 8.46234, 28.2771 8.22208 C 28.4682 8.20029, 28.6195 8.16054, 28.7311 8.10225, 28.8427 8.04424, 28.9364 7.9674, 29.0123 7.87141, 29.0883 7.77572, 29.1587 7.65088, 29.2234 7.49689, 29.2882 7.3432, 29.3692 7.11854, 29.466 6.82293 L 30.1356 6.82293, 29.8688 7.98653, 31.4069 7.98653, 31.3001 8.46234, 29.7572 8.46234, 29.2914 10.2902 C 29.1619 10.7993, 29.0971 11.1794, 29.0971 11.4302, 29.0971 11.6222, 29.1401 11.7674, 29.2258 11.8663, 29.3118 11.9652, 29.4369 12.0147, 29.6018 12.0144, 29.7508 12.0147, 29.9068 11.959, 30.0702 11.8474, 30.2336 11.7361, 30.4124 11.5671, 30.6064 11.3407 Z" stroke="none" fill="#000000" />
			<path d="M 32.6938 9.01352 C 32.6617 8.77503, 32.6311 8.60956, 32.6019 8.51681, 32.5728 8.42436, 32.526 8.35369, 32.4612 8.30482, 32.3964 8.25624, 32.2913 8.22709, 32.1456 8.21737 L 32.1989 7.98653, 33.4461 7.98653, 33.8147 11.7317 C 34.9082 10.2811, 35.455 9.24141, 35.455 8.61309, 35.455 8.46587, 35.4226 8.36547, 35.3578 8.31188, 35.2931 8.25859, 35.1833 8.22709, 35.0278 8.21737 L 35.0764 7.98653, 36.3283 7.98653, 36.4593 8.22208 C 36.288 8.65902, 36.0686 9.11127, 35.8019 9.57913, 35.5351 10.0473, 35.2083 10.559, 34.8217 11.1149, 34.4354 11.6708, 34.0058 12.2488, 33.5332 12.8482, 33.1711 13.3099, 32.8672 13.6585, 32.6211 13.8941, 32.4303 14.0731, 32.2548 14.2091, 32.0946 14.3015, 31.9345 14.3943, 31.7796 14.4602, 31.6291 14.4994, 31.479 14.5389, 31.3194 14.5583, 31.151 14.5583, 31.0638 14.5583, 30.9652 14.5498, 30.8551 14.5324, 30.7453 14.5153, 30.6513 14.4923, 30.5736 14.4641 L 30.7821 13.5831, 31.1607 13.5831 C 31.1642 13.69, 31.1901 13.7748, 31.2384 13.8375, 31.2873 13.9005, 31.3583 13.9317, 31.4519 13.9317, 31.5555 13.9317, 31.6447 13.9217, 31.7189 13.9011, 31.7934 13.8808, 31.8715 13.8469, 31.9539 13.7998, 32.0363 13.7527, 32.1367 13.6773, 32.2548 13.5737, 32.3732 13.4701, 32.5066 13.3329, 32.6552 13.1615, 32.8042 12.9904, 32.9706 12.784, 33.1549 12.542 Z" stroke="none" fill="#000000" />
			<path d="M 1.81685 2.23537 C 1.56814 2.52713, 1.32247 2.74741, 1.07984 2.89591, 0.837211 3.04469, 0.579398 3.11867, 0.306402 3.11867, -0.0148983 3.11867, -0.254494 3.03945, -0.412384 2.88045, -0.569998 2.72146, -0.648943 2.49042, -0.648943 2.18679, -0.648943 2.00157, -0.621615 1.79399, -0.566961 1.56406 L -0.0027529 -0.728105, -0.680686 -0.728105, -0.630724 -0.953347 C -0.45158 -0.973773, -0.3097 -1.01104, -0.205084 -1.06569, -0.100468 -1.12007, -0.0126899 -1.19211, 0.0585262 -1.2821, 0.129742 -1.37181, 0.195714 -1.48885, 0.256441 -1.63321, 0.317168 -1.7773, 0.393076 -1.98791, 0.483891 -2.26505 L 1.11159 -2.26505, 0.861502 -1.17417, 2.30349 -1.17417, 2.20329 -0.728105, 0.756886 -0.728105, 0.320204 0.985499 C 0.19875 1.46276, 0.138023 1.81911, 0.138023 2.05429, 0.138023 2.23427, 0.178324 2.37035, 0.258649 2.4631, 0.33925 2.55584, 0.456564 2.60222, 0.611141 2.60194, 0.750813 2.60222, 0.89711 2.55005, 1.05031 2.44543, 1.2035 2.34109, 1.37106 2.18265, 1.55296 1.97038 Z" stroke="none" fill="#000000" transform="matrix(1.12 0 0 1 37.2562 12.1769)" />
			<polyline points="-3.3768 -1.01304 3.3768 -1.01304" fill="none" stroke="#000000" stroke-width="0.385920018" stroke-linecap="round" stroke-linejoin="round" transform="matrix(1 0 0 1 46.0254 9.24351)" />
			<polyline points="-3.3768 1.01304 3.3768 1.01304" fill="none" stroke="#000000" stroke-width="0.385920018" stroke-linecap="round" stroke-linejoin="round" transform="matrix(1 0 0 1 46.0254 9.24351)" />
			<path d="M 56.9989 12.0003 C 56.7145 12.3774, 56.4168 12.5656, 56.1062 12.5656, 55.9316 12.5656, 55.7885 12.5076, 55.6766 12.3916, 55.5651 12.2755, 55.4794 12.1042, 55.4196 11.8781, 55.3598 11.6519, 55.3186 11.3819, 55.2956 11.0675 L 55.1502 9.01823, 55.121 9.01823 C 54.927 9.37656, 54.5872 9.98427, 54.102 10.8414, 53.6527 11.6299, 53.3503 12.1796, 53.1949 12.4902 L 52.2 12.4902, 52.2486 12.2594, 52.4379 12.0709 C 52.6028 11.911, 52.7888 11.6646, 52.9958 11.3313 L 55.0627 8.03364 C 55.0015 7.37765, 54.9052 6.93011, 54.7742 6.69132, 54.6432 6.45283, 54.4371 6.33329, 54.1556 6.333, 53.8903 6.33329, 53.6459 6.44311, 53.4228 6.66276 L 53.2431 6.43193 C 53.6574 5.96113, 54.0584 5.72558, 54.4465 5.72528, 54.783 5.72558, 55.0404 5.85277, 55.2182 6.10716, 55.396 6.36156, 55.5062 6.78878, 55.548 7.38825, 55.6387 8.60396, 55.7279 9.56352, 55.815 10.2669, 55.9025 10.9706, 55.9946 11.4314, 56.0915 11.6496, 56.1887 11.8681, 56.3082 11.977, 56.4507 11.9767, 56.5867 11.977, 56.7063 11.9063, 56.8096 11.7647 Z" stroke="none" fill="#000000" />
			<path d="M 0.934992 1.8953 C 0.934992 2.06644, 0.944929 2.19534, 0.964528 2.28202, 0.984402 2.36897, 1.01918 2.43963, 1.06914 2.49401, 1.11938 2.54867, 1.19143 2.59117, 1.28528 2.62209, 1.3794 2.653, 1.49782 2.67674, 1.64025 2.69275, 1.78269 2.70904, 1.97066 2.72008, 2.20418 2.7256 L 2.20418 3.04801, -1.1576 3.04801, -1.1576 2.7256 C -0.820844 2.71125, -0.580421 2.69137, -0.436332 2.66625, -0.292244 2.64141, -0.182383 2.60387, -0.10675 2.55363, -0.0308418 2.50367, 0.0246403 2.43301, 0.0594203 2.34164, 0.0942004 2.25055, 0.11159 2.10177, 0.11159 1.8953 L 0.11159 -1.68649 C 0.11159 -1.80408, 0.0906119 -1.88992, 0.0481031 -1.94458, 0.00559425 -1.99895, -0.0565128 -2.02628, -0.138494 -2.02656, -0.235381 -2.02628, -0.373397 -1.9777, -0.552265 -1.88054, -0.731134 -1.78337, -0.952787 -1.6495, -1.21667 -1.47891 L -1.4168 -1.81898, 0.712235 -3.05119, 0.962319 -3.05119 C 0.944101 -2.76825, 0.934992 -2.37656, 0.934992 -1.8764 Z" stroke="none" fill="#000000" transform="matrix(1.12 0 0 1 59.0582 12.1769)" />
			<path d="M 66.4065 6.05976 L 66.3532 6.2906 C 66.2143 6.31297, 66.1033 6.3592, 66.0208 6.42986, 65.9384 6.50053, 65.8969 6.60329, 65.8969 6.73814, 65.8969 6.93953, 65.9505 7.19215, 66.057 7.4966 L 66.4598 8.63664, 67.4983 7.35998 C 67.5469 7.3005, 67.5946 7.23867, 67.6414 7.17419, 67.6885 7.11001, 67.7306 7.047, 67.7677 6.98575, 67.8048 6.92451, 67.8325 6.8721, 67.8501 6.82794, 67.8678 6.78407, 67.8808 6.74491, 67.889 6.71017, 67.8973 6.67572, 67.9011 6.64274, 67.9011 6.61094, 67.9011 6.52644, 67.8752 6.4543, 67.8233 6.39453, 67.7715 6.33506, 67.6826 6.30031, 67.5566 6.2906 L 67.6099 6.05976, 69.4198 6.05976, 69.3665 6.2906 C 69.2693 6.31916, 69.178 6.36479, 69.0924 6.42751, 69.0067 6.49052, 68.9048 6.58474, 68.7867 6.71017, 68.6687 6.83589, 68.4493 7.0838, 68.129 7.4542 L 66.683 9.13129, 67.3914 11.0439 C 67.4983 11.3331, 67.584 11.5515, 67.6488 11.6988, 67.72 11.856, 67.7812 11.9708, 67.8331 12.0427, 67.8752 12.0962, 67.9187 12.1386, 67.9641 12.1698, 68.0094 12.1984, 68.0854 12.2281, 68.192 12.2594 L 68.1437 12.4902, 66.1834 12.4902, 66.2319 12.2594 C 66.3809 12.2376, 66.4949 12.1884, 66.5741 12.1113, 66.6533 12.0344, 66.6927 11.9346, 66.6927 11.8118, 66.6927 11.6269, 66.6542 11.4211, 66.5764 11.1947 L 66.0718 9.75785, 64.9653 11.1005 C 64.8004 11.3019, 64.6809 11.4659, 64.6064 11.5931, 64.5322 11.7202, 64.4948 11.8295, 64.4948 11.9202, 64.4948 11.9958, 64.5054 12.0556, 64.5263 12.0995, 64.5475 12.1436, 64.5831 12.179, 64.6332 12.2055, 64.6832 12.2323, 64.7521 12.2502, 64.8393 12.2594 L 64.7857 12.4902, 62.9808 12.4902, 63.0294 12.2594 C 63.0942 12.2376, 63.1516 12.2134, 63.2016 12.1866, 63.252 12.1601, 63.3067 12.1224, 63.3665 12.0736, 63.4266 12.025, 63.5072 11.9458, 63.6091 11.8357, 63.711 11.7258, 63.8267 11.5969, 63.956 11.4491 L 65.8486 9.2632, 65.1305 7.327 C 65.0592 7.13562, 64.9962 6.97574, 64.9411 6.84678, 64.8864 6.71811, 64.8322 6.61595, 64.7786 6.54057, 64.7253 6.4652, 64.6697 6.40866, 64.6114 6.37098, 64.5531 6.33329, 64.4803 6.3065, 64.3929 6.2906 L 64.4462 6.05976 Z" stroke="none" fill="#000000" />
			<path d="M 0.966461 2.34137 C 1.11497 2.34164, 1.23476 2.33281, 1.32585 2.31514, 1.41694 2.29748, 1.48954 2.26822, 1.54419 2.22681, 1.59885 2.18568, 1.64191 2.13186, 1.67365 2.06561, 1.70567 1.99936, 1.7457 1.89695, 1.79428 1.75839 L 2.181 1.75839, 2.10371 3.04801, -1.6401 3.04801, -1.6401 2.83601 C -1.50982 2.52713, -1.33399 2.2108, -1.11261 1.88674, -0.891231 1.56296, -0.577107 1.18148, -0.170789 0.742591, 0.180875 0.366084, 0.434272 0.0803914, 0.58885 -0.114211, 0.758885 -0.325927, 0.885308 -0.509212, 0.968669 -0.66379, 1.05203 -0.818367, 1.11193 -0.964112, 1.14837 -1.10102, 1.1848 -1.23794, 1.20302 -1.37567, 1.20302 -1.51424, 1.20302 -1.73479, 1.16658 -1.92967, 1.09371 -2.09915, 1.02084 -2.26836, 0.909598 -2.40168, 0.759437 -2.49885, 0.609276 -2.59601, 0.42047 -2.64459, 0.193021 -2.64487, -0.373948 -2.64459, -0.756252 -2.33847, -0.953338 -1.72623 L -1.50375 -1.72623, -1.50375 -2.5742 C -1.13662 -2.74176, -0.79324 -2.86321, -0.47332 -2.93829, -0.153399 -3.01337, 0.13395 -3.05091, 0.388727 -3.05119, 0.952935 -3.05091, 1.37885 -2.93084, 1.66703 -2.69097, 1.95521 -2.45082, 2.09902 -2.10274, 2.09902 -1.64674, 2.09902 -1.4905, 2.08328 -1.34669, 2.05126 -1.21585, 2.01952 -1.08474, 1.96956 -0.955279, 1.9011 -0.8272, 1.83292 -0.699122, 1.74128 -0.561382, 1.6259 -0.414257, 1.51079 -0.266856, 1.38354 -0.117523, 1.24387 0.034018, 1.10448 0.185835, 0.863501 0.438128, 0.52067 0.791173, -0.0556839 1.38326, -0.478564 1.89999, -0.748523 2.34137 Z" stroke="none" fill="#000000" transform="matrix(1.12 0 0 1 72.6698 5.82775)" />
			<path d="M 1.81685 2.23537 C 1.56814 2.52713, 1.32247 2.74741, 1.07984 2.89591, 0.837211 3.04469, 0.579398 3.11867, 0.306402 3.11867, -0.0148983 3.11867, -0.254494 3.03945, -0.412384 2.88045, -0.569998 2.72146, -0.648943 2.49042, -0.648943 2.18679, -0.648943 2.00157, -0.621615 1.79399, -0.566961 1.56406 L -0.0027529 -0.728105, -0.680686 -0.728105, -0.630724 -0.953347 C -0.45158 -0.973773, -0.3097 -1.01104, -0.205084 -1.06569, -0.100468 -1.12007, -0.0126899 -1.19211, 0.0585262 -1.2821, 0.129742 -1.37181, 0.195714 -1.48885, 0.256441 -1.63321, 0.317168 -1.7773, 0.393076 -1.98791, 0.483891 -2.26505 L 1.11159 -2.26505, 0.861502 -1.17417, 2.30349 -1.17417, 2.20329 -0.728105, 0.756886 -0.728105, 0.320204 0.985499 C 0.19875 1.46276, 0.138023 1.81911, 0.138023 2.05429, 0.138023 2.23427, 0.178324 2.37035, 0.258649 2.4631, 0.33925 2.55584, 0.456564 2.60222, 0.611141 2.60194, 0.750813 2.60222, 0.89711 2.55005, 1.05031 2.44543, 1.2035 2.34109, 1.37106 2.18265, 1.55296 1.97038 Z" stroke="none" fill="#000000" transform="matrix(1.12 0 0 1 70.7498 12.1769)" />
			<polyline points="-3.3768 0 3.3768 0" fill="none" stroke="#000000" stroke-width="0.385920018" stroke-linecap="round" stroke-linejoin="round" transform="matrix(1 0 0 1 81.4212 9.24351)" />
			<polyline points="0 -3.3768 0 3.3768" fill="none" stroke="#000000" stroke-width="0.385920018" stroke-linecap="round" stroke-linejoin="round" transform="matrix(1 0 0 1 81.4212 9.24351)" />
			<path d="M 92.3947 12.0003 C 92.1103 12.3774, 91.8126 12.5656, 91.502 12.5656, 91.3274 12.5656, 91.1843 12.5076, 91.0724 12.3916, 90.9608 12.2755, 90.8752 12.1042, 90.8154 11.8781, 90.7556 11.6519, 90.7144 11.3819, 90.6914 11.0675 L 90.546 9.01823, 90.5168 9.01823 C 90.3228 9.37656, 89.983 9.98427, 89.4978 10.8414, 89.0485 11.6299, 88.7461 12.1796, 88.5907 12.4902 L 87.5958 12.4902, 87.6443 12.2594, 87.8337 12.0709 C 87.9985 11.911, 88.1846 11.6646, 88.3916 11.3313 L 90.4585 8.03364 C 90.3973 7.37765, 90.301 6.93011, 90.17 6.69132, 90.039 6.45283, 89.8329 6.33329, 89.5514 6.333, 89.2861 6.33329, 89.0417 6.44311, 88.8185 6.66276 L 88.6389 6.43193 C 89.0532 5.96113, 89.4542 5.72558, 89.8423 5.72528, 90.1788 5.72558, 90.4362 5.85277, 90.614 6.10716, 90.7918 6.36156, 90.902 6.78878, 90.9438 7.38825, 91.0345 8.60396, 91.1237 9.56352, 91.2108 10.2669, 91.2983 10.9706, 91.3904 11.4314, 91.4873 11.6496, 91.5844 11.8681, 91.704 11.977, 91.8465 11.9767, 91.9825 11.977, 92.1021 11.9063, 92.2054 11.7647 Z" stroke="none" fill="#000000" />
			<path d="M 0.966461 2.34137 C 1.11497 2.34164, 1.23476 2.33281, 1.32585 2.31514, 1.41694 2.29748, 1.48954 2.26822, 1.54419 2.22681, 1.59885 2.18568, 1.64191 2.13186, 1.67365 2.06561, 1.70567 1.99936, 1.7457 1.89695, 1.79428 1.75839 L 2.181 1.75839, 2.10371 3.04801, -1.6401 3.04801, -1.6401 2.83601 C -1.50982 2.52713, -1.33399 2.2108, -1.11261 1.88674, -0.891231 1.56296, -0.577107 1.18148, -0.170789 0.742591, 0.180875 0.366084, 0.434272 0.0803914, 0.58885 -0.114211, 0.758885 -0.325927, 0.885308 -0.509212, 0.968669 -0.66379, 1.05203 -0.818367, 1.11193 -0.964112, 1.14837 -1.10102, 1.1848 -1.23794, 1.20302 -1.37567, 1.20302 -1.51424, 1.20302 -1.73479, 1.16658 -1.92967, 1.09371 -2.09915, 1.02084 -2.26836, 0.909598 -2.40168, 0.759437 -2.49885, 0.609276 -2.59601, 0.42047 -2.64459, 0.193021 -2.64487, -0.373948 -2.64459, -0.756252 -2.33847, -0.953338 -1.72623 L -1.50375 -1.72623, -1.50375 -2.5742 C -1.13662 -2.74176, -0.79324 -2.86321, -0.47332 -2.93829, -0.153399 -3.01337, 0.13395 -3.05091, 0.388727 -3.05119, 0.952935 -3.05091, 1.37885 -2.93084, 1.66703 -2.69097, 1.95521 -2.45082, 2.09902 -2.10274, 2.09902 -1.64674, 2.09902 -1.4905, 2.08328 -1.34669, 2.05126 -1.21585, 2.01952 -1.08474, 1.96956 -0.955279, 1.9011 -0.8272, 1.83292 -0.699122, 1.74128 -0.561382, 1.6259 -0.414257, 1.51079 -0.266856, 1.38354 -0.117523, 1.24387 0.034018, 1.10448 0.185835, 0.863501 0.438128, 0.52067 0.791173, -0.0556839 1.38326, -0.478564 1.89999, -0.748523 2.34137 Z" stroke="none" fill="#000000" transform="matrix(1.12 0 0 1 94.6767 12.1769)" />
			<path d="M 102.026 6.05976 L 101.973 6.2906 C 101.834 6.31297, 101.723 6.3592, 101.641 6.42986, 101.558 6.50053, 101.517 6.60329, 101.517 6.73814, 101.517 6.93953, 101.57 7.19215, 101.677 7.4966 L 102.08 8.63664, 103.118 7.35998 C 103.167 7.3005, 103.215 7.23867, 103.261 7.17419, 103.308 7.11001, 103.351 7.047, 103.388 6.98575, 103.425 6.92451, 103.452 6.8721, 103.47 6.82794, 103.488 6.78407, 103.501 6.74491, 103.509 6.71017, 103.517 6.67572, 103.521 6.64274, 103.521 6.61094, 103.521 6.52644, 103.495 6.4543, 103.443 6.39453, 103.391 6.33506, 103.303 6.30031, 103.177 6.2906 L 103.23 6.05976, 105.04 6.05976, 104.986 6.2906 C 104.889 6.31916, 104.798 6.36479, 104.712 6.42751, 104.627 6.49052, 104.525 6.58474, 104.407 6.71017, 104.289 6.83589, 104.069 7.0838, 103.749 7.4542 L 102.303 9.13129, 103.011 11.0439 C 103.118 11.3331, 103.204 11.5515, 103.269 11.6988, 103.34 11.856, 103.401 11.9708, 103.453 12.0427, 103.495 12.0962, 103.539 12.1386, 103.584 12.1698, 103.629 12.1984, 103.705 12.2281, 103.812 12.2594 L 103.764 12.4902, 101.803 12.4902, 101.852 12.2594 C 102.001 12.2376, 102.115 12.1884, 102.194 12.1113, 102.273 12.0344, 102.313 11.9346, 102.313 11.8118, 102.313 11.6269, 102.274 11.4211, 102.196 11.1947 L 101.692 9.75785, 100.585 11.1005 C 100.42 11.3019, 100.301 11.4659, 100.226 11.5931, 100.152 11.7202, 100.115 11.8295, 100.115 11.9202, 100.115 11.9958, 100.125 12.0556, 100.146 12.0995, 100.167 12.1436, 100.203 12.179, 100.253 12.2055, 100.303 12.2323, 100.372 12.2502, 100.459 12.2594 L 100.406 12.4902, 98.6007 12.4902, 98.6493 12.2594 C 98.7141 12.2376, 98.7715 12.2134, 98.8216 12.1866, 98.8719 12.1601, 98.9267 12.1224, 98.9865 12.0736, 99.0465 12.025, 99.1272 11.9458, 99.2291 11.8357, 99.3309 11.7258, 99.4466 11.5969, 99.5759 11.4491 L 101.469 9.2632, 100.75 7.327 C 100.679 7.13562, 100.616 6.97574, 100.561 6.84678, 100.506 6.71811, 100.452 6.61595, 100.399 6.54057, 100.345 6.4652, 100.29 6.40866, 100.231 6.37098, 100.173 6.33329, 100.1 6.3065, 100.013 6.2906 L 100.066 6.05976 Z" stroke="none" fill="#000000" />
			<path d="M 1.81685 2.23537 C 1.56814 2.52713, 1.32247 2.74741, 1.07984 2.89591, 0.837211 3.04469, 0.579398 3.11867, 0.306402 3.11867, -0.0148983 3.11867, -0.254494 3.03945, -0.412384 2.88045, -0.569998 2.72146, -0.648943 2.49042, -0.648943 2.18679, -0.648943 2.00157, -0.621615 1.79399, -0.566961 1.56406 L -0.0027529 -0.728105, -0.680686 -0.728105, -0.630724 -0.953347 C -0.45158 -0.973773, -0.3097 -1.01104, -0.205084 -1.06569, -0.100468 -1.12007, -0.0126899 -1.19211, 0.0585262 -1.2821, 0.129742 -1.37181, 0.195714 -1.48885, 0.256441 -1.63321, 0.317168 -1.7773, 0.393076 -1.98791, 0.483891 -2.26505 L 1.11159 -2.26505, 0.861502 -1.17417, 2.30349 -1.17417, 2.20329 -0.728105, 0.756886 -0.728105, 0.320204 0.985499 C 0.19875 1.46276, 0.138023 1.81911, 0.138023 2.05429, 0.138023 2.23427, 0.178324 2.37035, 0.258649 2.4631, 0.33925 2.55584, 0.456564 2.60222, 0.611141 2.60194, 0.750813 2.60222, 0.89711 2.55005, 1.05031 2.44543, 1.2035 2.34109, 1.37106 2.18265, 1.55296 1.97038 Z" stroke="none" fill="#000000" transform="matrix(1.12 0 0 1 106.37 12.1769)" />
			<polyline points="-3.3768 0 3.3768 0" fill="none" stroke="#000000" stroke-width="0.385920018" stroke-linecap="round" stroke-linejoin="round" transform="matrix(1 0 0 1 115.139 9.24351)" />
			<polyline points="0 -3.3768 0 3.3768" fill="none" stroke="#000000" stroke-width="0.385920018" stroke-linecap="round" stroke-linejoin="round" transform="matrix(1 0 0 1 115.139 9.24351)" />
			<path d="M 126.113 12.0003 C 125.828 12.3774, 125.53 12.5656, 125.22 12.5656, 125.045 12.5656, 124.902 12.5076, 124.79 12.3916, 124.679 12.2755, 124.593 12.1042, 124.533 11.8781, 124.473 11.6519, 124.432 11.3819, 124.409 11.0675 L 124.264 9.01823, 124.235 9.01823 C 124.041 9.37656, 123.701 9.98427, 123.216 10.8414, 122.766 11.6299, 122.464 12.1796, 122.308 12.4902 L 121.314 12.4902, 121.362 12.2594, 121.551 12.0709 C 121.716 11.911, 121.902 11.6646, 122.109 11.3313 L 124.176 8.03364 C 124.115 7.37765, 124.019 6.93011, 123.888 6.69132, 123.757 6.45283, 123.551 6.33329, 123.269 6.333, 123.004 6.33329, 122.759 6.44311, 122.536 6.66276 L 122.357 6.43193 C 122.771 5.96113, 123.172 5.72558, 123.56 5.72528, 123.897 5.72558, 124.154 5.85277, 124.332 6.10716, 124.51 6.36156, 124.62 6.78878, 124.662 7.38825, 124.752 8.60396, 124.841 9.56352, 124.929 10.2669, 125.016 10.9706, 125.108 11.4314, 125.205 11.6496, 125.302 11.8681, 125.422 11.977, 125.564 11.9767, 125.7 11.977, 125.82 11.9063, 125.923 11.7647 Z" stroke="none" fill="#000000" />
			<path d="M -1.50262 -1.73065 L -1.50262 -2.56979 C -1.15068 -2.73154, -0.821649 -2.85217, -0.515254 -2.93166, -0.208859 -3.01116, 0.0867705 -3.05091, 0.371635 -3.05119, 0.714466 -3.05091, 1.01451 -2.99929, 1.27233 -2.89633, 1.53014 -2.7931, 1.7275 -2.64514, 1.86386 -2.45247, 2.00022 -2.25953, 2.0684 -2.02932, 2.0684 -1.76157, 2.0684 -1.51093, 2.01706 -1.29093, 1.91382 -1.10102, 1.81059 -0.911114, 1.66595 -0.745495, 1.47935 -0.604167, 1.29275 -0.462839, 1.05095 -0.324547, 0.753663 -0.189291 L 0.753663 -0.149543 C 0.938604 -0.116971, 1.11692 -0.0614889, 1.28834 0.0163519, 1.45975 0.0944688, 1.61212 0.19522, 1.74544 0.318882, 1.87904 0.442545, 1.98587 0.590497, 2.06619 0.762741, 2.14652 0.934985, 2.18654 1.13152, 2.18654 1.35207, 2.18654 1.6938, 2.11008 1.99715, 1.95688 2.26214, 1.80396 2.52713, 1.56961 2.73637, 1.25411 2.88929, 0.93888 3.04249, 0.555196 3.11867, 0.103056 3.11867, -0.157517 3.11867, -0.438793 3.09024, -0.740496 3.03282, -1.0422 2.97541, -1.31906 2.8995, -1.5708 2.8051 L -1.5708 1.8688, -1.02508 1.8688 C -0.918812 2.17519, -0.778588 2.39768, -0.604136 2.53597, -0.429684 2.67454, -0.192573 2.74354, 0.107749 2.74327, 0.501922 2.74354, 0.800036 2.6392, 1.00154 2.42997, 1.20332 2.22102, 1.30407 1.91186, 1.30407 1.50223, 1.30407 1.07272, 1.17075 0.744523, 0.903824 0.517625, 0.637177 0.291003, 0.245765 0.177554, -0.269862 0.177278 L -0.679217 0.177278, -0.679217 -0.211374 C -0.269586 -0.234561, 0.0751772 -0.311021, 0.355625 -0.440756, 0.636073 -0.570215, 0.844753 -0.736662, 0.981112 -0.939821, 1.11775 -1.14298, 1.18593 -1.37126, 1.18593 -1.62466, 1.18593 -1.9512, 1.09649 -2.20294, 0.917625 -2.3796, 0.738757 -2.55626, 0.477907 -2.64459, 0.135076 -2.64487, -0.149788 -2.64459, -0.381931 -2.56951, -0.560799 -2.41935, -0.739668 -2.26919, -0.871611 -2.03953, -0.956628 -1.73065 Z" stroke="none" fill="#000000" transform="matrix(1.12 0 0 1 128.326 12.1769)" />
			<polyline points="-3.3768 0 3.3768 0" fill="none" stroke="#000000" stroke-width="0.385920018" stroke-linecap="round" stroke-linejoin="round" transform="matrix(1 0 0 1 137.074 9.24351)" />
			<polyline points="0 -3.3768 0 3.3768" fill="none" stroke="#000000" stroke-width="0.385920018" stroke-linecap="round" stroke-linejoin="round" transform="matrix(1 0 0 1 137.074 9.24351)" />
			<path d="M 148.048 12.0003 C 147.764 12.3774, 147.466 12.5656, 147.155 12.5656, 146.981 12.5656, 146.838 12.5076, 146.726 12.3916, 146.614 12.2755, 146.528 12.1042, 146.469 11.8781, 146.409 11.6519, 146.368 11.3819, 146.345 11.0675 L 146.199 9.01823, 146.17 9.01823 C 145.976 9.37656, 145.636 9.98427, 145.151 10.8414, 144.702 11.6299, 144.399 12.1796, 144.244 12.4902 L 143.249 12.4902, 143.298 12.2594, 143.487 12.0709 C 143.652 11.911, 143.838 11.6646, 144.045 11.3313 L 146.112 8.03364 C 146.051 7.37765, 145.954 6.93011, 145.823 6.69132, 145.692 6.45283, 145.486 6.33329, 145.205 6.333, 144.939 6.33329, 144.695 6.44311, 144.472 6.66276 L 144.292 6.43193 C 144.707 5.96113, 145.108 5.72558, 145.496 5.72528, 145.832 5.72558, 146.089 5.85277, 146.267 6.10716, 146.445 6.36156, 146.555 6.78878, 146.597 7.38825, 146.688 8.60396, 146.777 9.56352, 146.864 10.2669, 146.952 10.9706, 147.044 11.4314, 147.141 11.6496, 147.238 11.8681, 147.357 11.977, 147.5 11.9767, 147.636 11.977, 147.755 11.9063, 147.859 11.7647 Z" stroke="none" fill="#000000" />
			<path d="M 0.119111 2.8316 C 0.307365 2.78467, 0.433235 2.7325, 0.496722 2.67509, 0.560486 2.61767, 0.602166 2.53597, 0.621765 2.42997, 0.641639 2.32398, 0.6513 2.16194, 0.6513 1.94388 L 0.6513 1.21957, -1.8777 1.21957, -1.8777 0.888335, 0.783243 -3.01144, 1.43385 -3.01144, 1.43385 0.791173, 1.52936 0.791173 C 1.70546 0.791448, 1.83133 0.779027, 1.90697 0.753908, 1.98288 0.729065, 2.04581 0.6849, 2.09577 0.621413, 2.14601 0.558202, 2.19211 0.454414, 2.23434 0.309773 L 2.58021 0.309773, 2.52555 1.21957, 1.43385 1.21957, 1.43385 1.94388 C 1.43385 2.14152, 1.44075 2.28588, 1.45428 2.37697, 1.46808 2.46834, 1.49071 2.54038, 1.52246 2.59338, 1.55448 2.64638, 1.6014 2.69055, 1.66351 2.72588, 1.72589 2.76121, 1.82664 2.79654, 1.96604 2.8316 L 1.96604 3.04801, 0.119111 3.04801 Z M -1.12717 0.791173 L 0.6513 0.791173, 0.6513 -0.308537 C 0.6513 -0.585121, 0.655993 -0.894828, 0.665102 -1.23794, 0.674211 -1.58077, 0.6847 -1.83941, 0.696845 -2.01331 L 0.6513 -2.01331, -1.12717 0.729341 Z" stroke="none" fill="#000000" transform="matrix(1.12 0 0 1 150.567 12.1769)" />
			<path d="M 160.11 6.22464 L 159.819 7.50131, 159.353 7.50131 C 159.327 7.11531, 159.241 6.83677, 159.093 6.66541, 158.946 6.49435, 158.709 6.40866, 158.382 6.40837, 158.111 6.40866, 157.855 6.4864, 157.616 6.64186, 157.377 6.79732, 157.15 7.02197, 156.936 7.31552, 156.723 7.60936, 156.537 7.95326, 156.378 8.34722, 156.22 8.74146, 156.099 9.14336, 156.014 9.55322, 155.93 9.96307, 155.888 10.3329, 155.888 10.6623, 155.888 11.1747, 155.975 11.5507, 156.148 11.7909, 156.321 12.0312, 156.592 12.1513, 156.96 12.151, 157.203 12.1513, 157.415 12.116, 157.596 12.0453, 157.778 11.9746, 157.947 11.8554, 158.106 11.6873, 158.264 11.5194, 158.421 11.2845, 158.576 10.9827 L 159.042 10.9827, 158.746 12.3206 C 158.416 12.4089, 158.098 12.4716, 157.79 12.509, 157.483 12.5467, 157.168 12.5656, 156.844 12.5656, 156.443 12.5656, 156.102 12.4852, 155.82 12.3232, 155.539 12.1616, 155.327 11.9275, 155.185 11.6213, 155.043 11.3151, 154.971 10.9468, 154.971 10.5163, 154.971 10.2905, 154.988 10.0705, 155.02 9.85678, 155.058 9.59326, 155.12 9.30589, 155.204 8.99467, 155.311 8.60867, 155.445 8.25682, 155.607 7.93943, 155.782 7.60377, 155.981 7.30698, 156.204 7.04906, 156.414 6.81057, 156.642 6.61124, 156.888 6.45077, 157.114 6.30355, 157.359 6.18902, 157.621 6.10716, 157.883 6.02561, 158.161 5.98468, 158.455 5.98439, 158.749 5.98468, 159.022 6.00205, 159.273 6.0365, 159.524 6.07124, 159.802 6.13396, 160.11 6.22464 Z" stroke="none" fill="#000000" />
			<path d="M 162.105 5.75355 L 162.392 5.75355, 161.13 11.3125 C 161.095 11.4635, 161.072 11.5774, 161.062 11.6543, 161.053 11.7314, 161.048 11.7965, 161.048 11.8495, 161.048 11.944, 161.064 12.0179, 161.096 12.0712, 161.129 12.1248, 161.179 12.1654, 161.247 12.1937, 161.315 12.222, 161.426 12.244, 161.581 12.2594 L 161.543 12.4902, 160.029 12.4902, 161.28 7.08203 C 161.313 6.94424, 161.336 6.8406, 161.348 6.77141, 161.361 6.70251, 161.371 6.63656, 161.378 6.57355, 161.384 6.51083, 161.387 6.45577, 161.387 6.40837, 161.387 6.31445, 161.37 6.24319, 161.334 6.19432, 161.298 6.14574, 161.247 6.1104, 161.181 6.08832, 161.115 6.06653, 160.996 6.05063, 160.824 6.04092 L 160.883 5.79595 Z" stroke="none" fill="#000000" />
			<path d="M 166.888 8.90988 L 166.888 8.97583 C 166.888 8.99821, 166.887 9.02176, 166.883 9.0465, 167.165 8.66049, 167.445 8.37489, 167.723 8.1894, 168.001 8.0042, 168.289 7.91145, 168.587 7.91116, 168.894 7.91145, 169.128 7.99566, 169.288 8.16349, 169.448 8.33161, 169.528 8.58041, 169.528 8.90988, 169.528 9.11127, 169.496 9.353, 169.431 9.63536 L 169.023 11.3125 C 168.969 11.5389, 168.941 11.7179, 168.941 11.8495, 168.941 11.944, 168.957 12.0179, 168.99 12.0712, 169.022 12.1248, 169.072 12.1654, 169.14 12.1937, 169.208 12.222, 169.32 12.244, 169.475 12.2594 L 169.431 12.4902, 167.908 12.4902, 168.519 10.097 C 168.564 9.9245, 168.604 9.7496, 168.638 9.57206, 168.672 9.39481, 168.689 9.23376, 168.689 9.08889, 168.689 8.86306, 168.648 8.7023, 168.567 8.60632, 168.487 8.51063, 168.359 8.46263, 168.184 8.46234, 168.058 8.46263, 167.916 8.51298, 167.759 8.61338, 167.603 8.71408, 167.438 8.86777, 167.267 9.07506, 167.096 9.28234, 166.956 9.48726, 166.847 9.68983, 166.739 9.8924, 166.652 10.1397, 166.588 10.4315 L 166.146 12.4902, 165.306 12.4902, 165.865 10.097 C 165.933 9.80525, 165.979 9.58943, 166.003 9.44958, 166.027 9.31001, 166.039 9.18959, 166.039 9.08889, 166.039 8.86306, 165.998 8.7023, 165.916 8.60632, 165.833 8.51063, 165.705 8.46263, 165.53 8.46234, 165.4 8.46263, 165.257 8.51387, 165.1 8.61574, 164.944 8.71791, 164.778 8.87572, 164.603 9.08919, 164.428 9.30295, 164.289 9.51258, 164.184 9.7181, 164.078 9.92391, 163.997 10.168, 163.938 10.4504 L 163.497 12.4902, 162.657 12.4902, 163.395 9.27262 C 163.411 9.20078, 163.433 9.0939, 163.46 8.95257, 163.488 8.81124, 163.502 8.69347, 163.502 8.59896, 163.502 8.51122, 163.488 8.4432, 163.46 8.39433, 163.433 8.34574, 163.386 8.30953, 163.32 8.28597, 163.253 8.26242, 163.141 8.24593, 162.983 8.23621 L 163.041 7.98653, 164.147 7.94414, 164.419 7.94414, 164.098 9.16427, 164.157 9.18311 C 164.454 8.75324, 164.75 8.43378, 165.045 8.22473, 165.339 8.01598, 165.637 7.91145, 165.937 7.91116, 166.248 7.91145, 166.484 7.99713, 166.646 8.1682, 166.808 8.33956, 166.888 8.58659, 166.888 8.90988 Z" stroke="none" fill="#000000" />
			<path d="M 1.81685 2.23537 C 1.56814 2.52713, 1.32247 2.74741, 1.07984 2.89591, 0.837211 3.04469, 0.579398 3.11867, 0.306402 3.11867, -0.0148983 3.11867, -0.254494 3.03945, -0.412384 2.88045, -0.569998 2.72146, -0.648943 2.49042, -0.648943 2.18679, -0.648943 2.00157, -0.621615 1.79399, -0.566961 1.56406 L -0.0027529 -0.728105, -0.680686 -0.728105, -0.630724 -0.953347 C -0.45158 -0.973773, -0.3097 -1.01104, -0.205084 -1.06569, -0.100468 -1.12007, -0.0126899 -1.19211, 0.0585262 -1.2821, 0.129742 -1.37181, 0.195714 -1.48885, 0.256441 -1.63321, 0.317168 -1.7773, 0.393076 -1.98791, 0.483891 -2.26505 L 1.11159 -2.26505, 0.861502 -1.17417, 2.30349 -1.17417, 2.20329 -0.728105, 0.756886 -0.728105, 0.320204 0.985499 C 0.19875 1.46276, 0.138023 1.81911, 0.138023 2.05429, 0.138023 2.23427, 0.178324 2.37035, 0.258649 2.4631, 0.33925 2.55584, 0.456564 2.60222, 0.611141 2.60194, 0.750813 2.60222, 0.89711 2.55005, 1.05031 2.44543, 1.2035 2.34109, 1.37106 2.18265, 1.55296 1.97038 Z" stroke="none" fill="#000000" transform="matrix(1.12 0 0 1 171.147 12.1769)" />
			<rect />
		</svg>
	</g>
</svg>
