<?xml version="1.0"?>
<svg xmlns="http://www.w3.org/2000/svg" xmlns:xlink="http://www.w3.org/1999/xlink" width="191.769379" height="32.0370941">
	<defs />
	<rect x="-0" y="-0" width="191.769379" height="32.0370941" stroke="none" fill="#FFFFFF" />
	<g transform="matrix(1 0 -0 1 7.74999 7.74999)">
		<svg width="528.046021" height="36.0749931">
			<defs />
			<path d="M 6.24603 10.5327 C 5.96161 10.9099, 5.66394 11.0981, 5.35331 11.0981, 5.17871 11.0981, 5.03562 11.04, 4.92373 10.924, 4.81214 10.808, 4.72646 10.6367, 4.66669 10.4105, 4.60692 10.1844, 4.5657 9.91443, 4.54273 9.59997 L 4.39728 7.55071, 4.36813 7.55071 C 4.1741 7.90904, 3.83433 8.51675, 3.3491 9.37385, 2.89979 10.1623, 2.59741 10.712, 2.44195 11.0227 L 1.44706 11.0227, 1.49564 10.7918, 1.68496 10.6034 C 1.84984 10.4435, 2.03593 10.1971, 2.24291 9.86378 L 4.30984 6.56613 C 4.2486 5.91013, 4.15232 5.46259, 4.02129 5.22381, 3.89027 4.98531, 3.68417 4.86577, 3.40269 4.86548, 3.1374 4.86577, 2.89302 4.9756, 2.66984 5.19525 L 2.49024 4.96441 C 2.90451 4.49361, 3.30552 4.25806, 3.69359 4.25777, 4.03013 4.25806, 4.28746 4.38526, 4.4653 4.63965, 4.64314 4.89404, 4.75325 5.32126, 4.79506 5.92073, 4.88575 7.13645, 4.97496 8.096, 5.06212 8.79941, 5.14956 9.5031, 5.24172 9.96389, 5.33859 10.1821, 5.43575 10.4005, 5.55529 10.5095, 5.6978 10.5092, 5.83383 10.5095, 5.95337 10.4388, 6.05671 10.2972 Z" stroke="none" fill="#000000" />
			<path d="M 0.934992 1.8953 C 0.934992 2.06644, 0.944929 2.19534, 0.964528 2.28202, 0.984402 2.36897, 1.01918 2.43963, 1.06914 2.49401, 1.11938 2.54867, 1.19143 2.59117, 1.28528 2.62209, 1.3794 2.653, 1.49782 2.67674, 1.64025 2.69275, 1.78269 2.70904, 1.97066 2.72008, 2.20418 2.7256 L 2.20418 3.04801, -1.1576 3.04801, -1.1576 2.7256 C -0.820844 2.71125, -0.580421 2.69137, -0.436332 2.66625, -0.292244 2.64141, -0.182383 2.60387, -0.10675 2.55363, -0.0308418 2.50367, 0.0246403 2.43301, 0.0594203 2.34164, 0.0942004 2.25055, 0.11159 2.10177, 0.11159 1.8953 L 0.11159 -1.68649 C 0.11159 -1.80408, 0.0906119 -1.88992, 0.0481031 -1.94458, 0.00559425 -1.99895, -0.0565128 -2.02628, -0.138494 -2.02656, -0.235381 -2.02628, -0.373397 -1.9777, -0.552265 -1.88054, -0.731134 -1.78337, -0.952787 -1.6495, -1.21667 -1.47891 L -1.4168 -1.81898, 0.712235 -3.05119, 0.962319 -3.05119 C 0.944101 -2.76825, 0.934992 -2.37656, 0.934992 -1.8764 Z" stroke="none" fill="#000000" transform="matrix(1.12 0 0 1 8.30525 10.7093)" />
			<polyline points="-2.70144 3.10666 0 -3.10666" fill="none" stroke="#000000" stroke-width="0.385920018" stroke-linecap="round" stroke-linejoin="round" transform="matrix(7.54979e-008 1 -1 7.54979e-008 17.0553 7.77599)" />
			<polyline points="0 -3.10666 2.70144 3.10666" fill="none" stroke="#000000" stroke-width="0.385920018" stroke-linecap="round" stroke-linejoin="round" transform="matrix(7.54979e-008 1 -1 7.54979e-008 17.0553 7.77599)" />
			<ellipse cx="-2.7014403492212296" cy="3.1066562980413437" rx="0.19296000897884369" ry="0.19296000897884369" stroke="none" fill="#000000" transform="matrix(7.54979e-008 1 -1 7.54979e-008 17.0553 7.77599)" />
			<ellipse cx="-0" cy="-3.1066563278436661" rx="0.19296000897884369" ry="0.19296000897884369" stroke="none" fill="#000000" transform="matrix(7.54979e-008 1 -1 7.54979e-008 17.0553 7.77599)" />
			<ellipse cx="2.7014403194189072" cy="3.1066562980413437" rx="0.19296000897884369" ry="0.19296000897884369" stroke="none" fill="#000000" transform="matrix(7.54979e-008 1 -1 7.54979e-008 17.0553 7.77599)" />
			<path d="M 25.3016 11.0579 C 24.6172 11.0579, 24.1076 10.7968, 23.7732 10.2734, 23.4388 9.75023, 23.2714 8.95615, 23.2714 7.89084, 23.2714 7.32472, 23.3231 6.83564, 23.4261 6.42302, 23.5291 6.01069, 23.6734 5.66991, 23.8586 5.40041, 24.0442 5.1312, 24.2669 4.93182, 24.5269 4.80255, 24.7869 4.67328, 25.0705 4.60865, 25.3778 4.60836, 26.072 4.60865, 26.5888 4.86891, 26.9282 5.38887, 27.2675 5.90912, 27.4369 6.6954, 27.4369 7.74773, 27.4369 8.83756, 27.2554 9.66164, 26.8924 10.2203, 26.5294 10.7789, 25.9993 11.0579, 25.3016 11.0579 Z M 24.1985 7.75234 C 24.1985 8.7559, 24.2946 9.49256, 24.4862 9.96173, 24.6781 10.4312, 24.9753 10.6658, 25.3778 10.6655, 25.7616 10.6658, 26.0461 10.445, 26.2313 10.0033, 26.4169 9.56181, 26.5095 8.87767, 26.5095 7.95086, 26.5095 7.24335, 26.4622 6.67001, 26.3669 6.23142, 26.272 5.79283, 26.1396 5.47832, 25.9699 5.2873, 25.8002 5.09658, 25.5951 5.00107, 25.3541 5.00078, 25.1354 5.00107, 24.9525 5.06426, 24.805 5.19035, 24.6576 5.31674, 24.5387 5.49823, 24.4484 5.73513, 24.3581 5.97231, 24.2937 6.26085, 24.2557 6.60076, 24.2176 6.94095, 24.1985 7.32472, 24.1985 7.75234 Z" stroke="none" fill="#000000" />
			<path d="M 30.5022 9.92974 C 30.5476 10.15, 30.5703 10.3667, 30.5703 10.5798, 30.5703 10.8001, 30.5317 11.0009, 30.454 11.1828, 30.3762 11.3651, 30.2526 11.5465, 30.0827 11.727, 29.9128 11.9077, 29.679 12.1062, 29.3813 12.3229 L 29.1193 12.0355 C 29.2845 11.8848, 29.4043 11.749, 29.4785 11.628, 29.553 11.5073, 29.6063 11.3698, 29.6387 11.2158, 29.6711 11.0621, 29.687 10.869, 29.687 10.6364, 29.687 10.3979, 29.6758 10.1623, 29.6531 9.92974 Z" stroke="none" fill="#000000" />
			<path d="M 40.1718 10.5327 C 39.8874 10.9099, 39.5897 11.0981, 39.2791 11.0981, 39.1045 11.0981, 38.9614 11.04, 38.8495 10.924, 38.7379 10.808, 38.6522 10.6367, 38.5925 10.4105, 38.5327 10.1844, 38.4915 9.91443, 38.4685 9.59997 L 38.323 7.55071, 38.2939 7.55071 C 38.0999 7.90904, 37.7601 8.51675, 37.2749 9.37385, 36.8256 10.1623, 36.5232 10.712, 36.3677 11.0227 L 35.3728 11.0227, 35.4214 10.7918, 35.6107 10.6034 C 35.7756 10.4435, 35.9617 10.1971, 36.1687 9.86378 L 38.2356 6.56613 C 38.1744 5.91013, 38.0781 5.46259, 37.9471 5.22381, 37.816 4.98531, 37.6099 4.86577, 37.3285 4.86548, 37.0632 4.86577, 36.8188 4.9756, 36.5956 5.19525 L 36.416 4.96441 C 36.8303 4.49361, 37.2313 4.25806, 37.6194 4.25777, 37.9559 4.25806, 38.2132 4.38526, 38.3911 4.63965, 38.5689 4.89404, 38.679 5.32126, 38.7208 5.92073, 38.8115 7.13645, 38.9007 8.096, 38.9879 8.79941, 39.0753 9.5031, 39.1675 9.96389, 39.2644 10.1821, 39.3615 10.4005, 39.4811 10.5095, 39.6236 10.5092, 39.7596 10.5095, 39.8791 10.4388, 39.9825 10.2972 Z" stroke="none" fill="#000000" />
			<path d="M 0.966461 2.34137 C 1.11497 2.34164, 1.23476 2.33281, 1.32585 2.31514, 1.41694 2.29748, 1.48954 2.26822, 1.54419 2.22681, 1.59885 2.18568, 1.64191 2.13186, 1.67365 2.06561, 1.70567 1.99936, 1.7457 1.89695, 1.79428 1.75839 L 2.181 1.75839, 2.10371 3.04801, -1.6401 3.04801, -1.6401 2.83601 C -1.50982 2.52713, -1.33399 2.2108, -1.11261 1.88674, -0.891231 1.56296, -0.577107 1.18148, -0.170789 0.742591, 0.180875 0.366084, 0.434272 0.0803914, 0.58885 -0.114211, 0.758885 -0.325927, 0.885308 -0.509212, 0.968669 -0.66379, 1.05203 -0.818367, 1.11193 -0.964112, 1.14837 -1.10102, 1.1848 -1.23794, 1.20302 -1.37567, 1.20302 -1.51424, 1.20302 -1.73479, 1.16658 -1.92967, 1.09371 -2.09915, 1.02084 -2.26836, 0.909598 -2.40168, 0.759437 -2.49885, 0.609276 -2.59601, 0.42047 -2.64459, 0.193021 -2.64487, -0.373948 -2.64459, -0.756252 -2.33847, -0.953338 -1.72623 L -1.50375 -1.72623, -1.50375 -2.5742 C -1.13662 -2.74176, -0.79324 -2.86321, -0.47332 -2.93829, -0.153399 -3.01337, 0.13395 -3.05091, 0.388727 -3.05119, 0.952935 -3.05091, 1.37885 -2.93084, 1.66703 -2.69097, 1.95521 -2.45082, 2.09902 -2.10274, 2.09902 -1.64674, 2.09902 -1.4905, 2.08328 -1.34669, 2.05126 -1.21585, 2.01952 -1.08474, 1.96956 -0.955279, 1.9011 -0.8272, 1.83292 -0.699122, 1.74128 -0.561382, 1.6259 -0.414257, 1.51079 -0.266856, 1.38354 -0.117523, 1.24387 0.034018, 1.10448 0.185835, 0.863501 0.438128, 0.52067 0.791173, -0.0556839 1.38326, -0.478564 1.89999, -0.748523 2.34137 Z" stroke="none" fill="#000000" transform="matrix(1.12 0 0 1 42.4089 10.7093)" />
			<polyline points="-2.70144 3.10666 0 -3.10666" fill="none" stroke="#000000" stroke-width="0.385920018" stroke-linecap="round" stroke-linejoin="round" transform="matrix(-4.37114e-008 -1 1 -4.37114e-008 51.1603 7.77599)" />
			<polyline points="0 -3.10666 2.70144 3.10666" fill="none" stroke="#000000" stroke-width="0.385920018" stroke-linecap="round" stroke-linejoin="round" transform="matrix(-4.37114e-008 -1 1 -4.37114e-008 51.1603 7.77599)" />
			<ellipse cx="-2.7014403492212296" cy="3.1066562980413437" rx="0.19296000897884369" ry="0.19296000897884369" stroke="none" fill="#000000" transform="matrix(-4.37114e-008 -1 1 -4.37114e-008 51.1603 7.77599)" />
			<ellipse cx="-0" cy="-3.1066563278436661" rx="0.19296000897884369" ry="0.19296000897884369" stroke="none" fill="#000000" transform="matrix(-4.37114e-008 -1 1 -4.37114e-008 51.1603 7.77599)" />
			<ellipse cx="2.7014403194189072" cy="3.1066562980413437" rx="0.19296000897884369" ry="0.19296000897884369" stroke="none" fill="#000000" transform="matrix(-4.37114e-008 -1 1 -4.37114e-008 51.1603 7.77599)" />
			<path d="M 59.4067 11.0579 C 58.7222 11.0579, 58.2127 10.7968, 57.8782 10.2734, 57.5438 9.75023, 57.3765 8.95615, 57.3765 7.89084, 57.3765 7.32472, 57.4281 6.83564, 57.5311 6.42302, 57.6341 6.01069, 57.7784 5.66991, 57.9637 5.40041, 58.1492 5.1312, 58.3719 4.93182, 58.6319 4.80255, 58.8919 4.67328, 59.1755 4.60865, 59.4828 4.60836, 60.1771 4.60865, 60.6939 4.86891, 61.0332 5.38887, 61.3725 5.90912, 61.5419 6.6954, 61.5419 7.74773, 61.5419 8.83756, 61.3604 9.66164, 60.9974 10.2203, 60.6344 10.7789, 60.1044 11.0579, 59.4067 11.0579 Z M 58.3036 7.75234 C 58.3036 8.7559, 58.3996 9.49256, 58.5912 9.96173, 58.7831 10.4312, 59.0803 10.6658, 59.4828 10.6655, 59.8666 10.6658, 60.1511 10.445, 60.3364 10.0033, 60.5219 9.56181, 60.6145 8.87767, 60.6145 7.95086, 60.6145 7.24335, 60.5672 6.67001, 60.472 6.23142, 60.377 5.79283, 60.2446 5.47832, 60.0749 5.2873, 59.9053 5.09658, 59.7001 5.00107, 59.4592 5.00078, 59.2405 5.00107, 59.0575 5.06426, 58.9101 5.19035, 58.7626 5.31674, 58.6438 5.49823, 58.5534 5.73513, 58.4631 5.97231, 58.3988 6.26085, 58.3607 6.60076, 58.3226 6.94095, 58.3036 7.32472, 58.3036 7.75234 Z" stroke="none" fill="#000000" />
			<path d="M 64.6073 9.92974 C 64.6526 10.15, 64.6753 10.3667, 64.6753 10.5798, 64.6753 10.8001, 64.6367 11.0009, 64.559 11.1828, 64.4813 11.3651, 64.3576 11.5465, 64.1877 11.727, 64.0178 11.9077, 63.784 12.1062, 63.4864 12.3229 L 63.2243 12.0355 C 63.3895 11.8848, 63.5093 11.749, 63.5835 11.628, 63.658 11.5073, 63.7113 11.3698, 63.7437 11.2158, 63.7761 11.0621, 63.792 10.869, 63.792 10.6364, 63.792 10.3979, 63.7808 10.1623, 63.7581 9.92974 Z" stroke="none" fill="#000000" />
			<path d="M 74.2768 10.5327 C 73.9924 10.9099, 73.6947 11.0981, 73.3841 11.0981, 73.2095 11.0981, 73.0664 11.04, 72.9545 10.924, 72.8429 10.808, 72.7573 10.6367, 72.6975 10.4105, 72.6377 10.1844, 72.5965 9.91443, 72.5735 9.59997 L 72.4281 7.55071, 72.3989 7.55071 C 72.2049 7.90904, 71.8651 8.51675, 71.3799 9.37385, 70.9306 10.1623, 70.6282 10.712, 70.4727 11.0227 L 69.4779 11.0227, 69.5264 10.7918, 69.7158 10.6034 C 69.8806 10.4435, 70.0667 10.1971, 70.2737 9.86378 L 72.3406 6.56613 C 72.2794 5.91013, 72.1831 5.46259, 72.0521 5.22381, 71.9211 4.98531, 71.715 4.86577, 71.4335 4.86548, 71.1682 4.86577, 70.9238 4.9756, 70.7006 5.19525 L 70.521 4.96441 C 70.9353 4.49361, 71.3363 4.25806, 71.7244 4.25777, 72.0609 4.25806, 72.3183 4.38526, 72.4961 4.63965, 72.6739 4.89404, 72.784 5.32126, 72.8259 5.92073, 72.9165 7.13645, 73.0058 8.096, 73.0929 8.79941, 73.1804 9.5031, 73.2725 9.96389, 73.3694 10.1821, 73.4665 10.4005, 73.5861 10.5095, 73.7286 10.5092, 73.8646 10.5095, 73.9842 10.4388, 74.0875 10.2972 Z" stroke="none" fill="#000000" />
			<path d="M -1.50262 -1.73065 L -1.50262 -2.56979 C -1.15068 -2.73154, -0.821649 -2.85217, -0.515254 -2.93166, -0.208859 -3.01116, 0.0867705 -3.05091, 0.371635 -3.05119, 0.714466 -3.05091, 1.01451 -2.99929, 1.27233 -2.89633, 1.53014 -2.7931, 1.7275 -2.64514, 1.86386 -2.45247, 2.00022 -2.25953, 2.0684 -2.02932, 2.0684 -1.76157, 2.0684 -1.51093, 2.01706 -1.29093, 1.91382 -1.10102, 1.81059 -0.911114, 1.66595 -0.745495, 1.47935 -0.604167, 1.29275 -0.462839, 1.05095 -0.324547, 0.753663 -0.189291 L 0.753663 -0.149543 C 0.938604 -0.116971, 1.11692 -0.0614889, 1.28834 0.0163519, 1.45975 0.0944688, 1.61212 0.19522, 1.74544 0.318882, 1.87904 0.442545, 1.98587 0.590497, 2.06619 0.762741, 2.14652 0.934985, 2.18654 1.13152, 2.18654 1.35207, 2.18654 1.6938, 2.11008 1.99715, 1.95688 2.26214, 1.80396 2.52713, 1.56961 2.73637, 1.25411 2.88929, 0.93888 3.04249, 0.555196 3.11867, 0.103056 3.11867, -0.157517 3.11867, -0.438793 3.09024, -0.740496 3.03282, -1.0422 2.97541, -1.31906 2.8995, -1.5708 2.8051 L -1.5708 1.8688, -1.02508 1.8688 C -0.918812 2.17519, -0.778588 2.39768, -0.604136 2.53597, -0.429684 2.67454, -0.192573 2.74354, 0.107749 2.74327, 0.501922 2.74354, 0.800036 2.6392, 1.00154 2.42997, 1.20332 2.22102, 1.30407 1.91186, 1.30407 1.50223, 1.30407 1.07272, 1.17075 0.744523, 0.903824 0.517625, 0.637177 0.291003, 0.245765 0.177554, -0.269862 0.177278 L -0.679217 0.177278, -0.679217 -0.211374 C -0.269586 -0.234561, 0.0751772 -0.311021, 0.355625 -0.440756, 0.636073 -0.570215, 0.844753 -0.736662, 0.981112 -0.939821, 1.11775 -1.14298, 1.18593 -1.37126, 1.18593 -1.62466, 1.18593 -1.9512, 1.09649 -2.20294, 0.917625 -2.3796, 0.738757 -2.55626, 0.477907 -2.64459, 0.135076 -2.64487, -0.149788 -2.64459, -0.381931 -2.56951, -0.560799 -2.41935, -0.739668 -2.26919, -0.871611 -2.03953, -0.956628 -1.73065 Z" stroke="none" fill="#000000" transform="matrix(1.12 0 0 1 76.4458 10.7093)" />
			<polyline points="-2.70144 3.10666 0 -3.10666" fill="none" stroke="#000000" stroke-width="0.385920018" stroke-linecap="round" stroke-linejoin="round" transform="matrix(7.54979e-008 1 -1 7.54979e-008 85.1939 7.77599)" />
			<polyline points="0 -3.10666 2.70144 3.10666" fill="none" stroke="#000000" stroke-width="0.385920018" stroke-linecap="round" stroke-linejoin="round" transform="matrix(7.54979e-008 1 -1 7.54979e-008 85.1939 7.77599)" />
			<ellipse cx="-2.7014403492212296" cy="3.1066562980413437" rx="0.19296000897884369" ry="0.19296000897884369" stroke="none" fill="#000000" transform="matrix(7.54979e-008 1 -1 7.54979e-008 85.1939 7.77599)" />
			<ellipse cx="-0" cy="-3.1066563278436661" rx="0.19296000897884369" ry="0.19296000897884369" stroke="none" fill="#000000" transform="matrix(7.54979e-008 1 -1 7.54979e-008 85.1939 7.77599)" />
			<ellipse cx="2.7014403194189072" cy="3.1066562980413437" rx="0.19296000897884369" ry="0.19296000897884369" stroke="none" fill="#000000" transform="matrix(7.54979e-008 1 -1 7.54979e-008 85.1939 7.77599)" />
			<path d="M 93.4403 11.0579 C 92.7559 11.0579, 92.2463 10.7968, 91.9119 10.2734, 91.5774 9.75023, 91.4101 8.95615, 91.4101 7.89084, 91.4101 7.32472, 91.4617 6.83564, 91.5647 6.42302, 91.6678 6.01069, 91.812 5.66991, 91.9973 5.40041, 92.1828 5.1312, 92.4056 4.93182, 92.6655 4.80255, 92.9255 4.67328, 93.2092 4.60865, 93.5165 4.60836, 94.2107 4.60865, 94.7275 4.86891, 95.0668 5.38887, 95.4061 5.90912, 95.5755 6.6954, 95.5755 7.74773, 95.5755 8.83756, 95.394 9.66164, 95.031 10.2203, 94.668 10.7789, 94.138 11.0579, 93.4403 11.0579 Z M 92.3372 7.75234 C 92.3372 8.7559, 92.4333 9.49256, 92.6249 9.96173, 92.8167 10.4312, 93.1139 10.6658, 93.5165 10.6655, 93.9002 10.6658, 94.1847 10.445, 94.37 10.0033, 94.5555 9.56181, 94.6481 8.87767, 94.6481 7.95086, 94.6481 7.24335, 94.6008 6.67001, 94.5056 6.23142, 94.4107 5.79283, 94.2782 5.47832, 94.1086 5.2873, 93.9389 5.09658, 93.7337 5.00107, 93.4928 5.00078, 93.2741 5.00107, 93.0911 5.06426, 92.9437 5.19035, 92.7962 5.31674, 92.6774 5.49823, 92.5871 5.73513, 92.4967 5.97231, 92.4324 6.26085, 92.3943 6.60076, 92.3562 6.94095, 92.3372 7.32472, 92.3372 7.75234 Z" stroke="none" fill="#000000" />
			<path d="M 98.6409 9.92974 C 98.6862 10.15, 98.7089 10.3667, 98.7089 10.5798, 98.7089 10.8001, 98.6703 11.0009, 98.5926 11.1828, 98.5149 11.3651, 98.3912 11.5465, 98.2213 11.727, 98.0515 11.9077, 97.8177 12.1062, 97.52 12.3229 L 97.2579 12.0355 C 97.4231 11.8848, 97.543 11.749, 97.6172 11.628, 97.6917 11.5073, 97.7449 11.3698, 97.7773 11.2158, 97.8097 11.0621, 97.8256 10.869, 97.8256 10.6364, 97.8256 10.3979, 97.8144 10.1623, 97.7918 9.92974 Z" stroke="none" fill="#000000" />
			<path d="M 108.31 10.5327 C 108.026 10.9099, 107.728 11.0981, 107.418 11.0981, 107.243 11.0981, 107.1 11.04, 106.988 10.924, 106.877 10.808, 106.791 10.6367, 106.731 10.4105, 106.671 10.1844, 106.63 9.91443, 106.607 9.59997 L 106.462 7.55071, 106.433 7.55071 C 106.239 7.90904, 105.899 8.51675, 105.414 9.37385, 104.964 10.1623, 104.662 10.712, 104.506 11.0227 L 103.511 11.0227, 103.56 10.7918, 103.749 10.6034 C 103.914 10.4435, 104.1 10.1971, 104.307 9.86378 L 106.374 6.56613 C 106.313 5.91013, 106.217 5.46259, 106.086 5.22381, 105.955 4.98531, 105.749 4.86577, 105.467 4.86548, 105.202 4.86577, 104.957 4.9756, 104.734 5.19525 L 104.555 4.96441 C 104.969 4.49361, 105.37 4.25806, 105.758 4.25777, 106.095 4.25806, 106.352 4.38526, 106.53 4.63965, 106.708 4.89404, 106.818 5.32126, 106.859 5.92073, 106.95 7.13645, 107.039 8.096, 107.127 8.79941, 107.214 9.5031, 107.306 9.96389, 107.403 10.1821, 107.5 10.4005, 107.62 10.5095, 107.762 10.5092, 107.898 10.5095, 108.018 10.4388, 108.121 10.2972 Z" stroke="none" fill="#000000" />
			<path d="M 0.119111 2.8316 C 0.307365 2.78467, 0.433235 2.7325, 0.496722 2.67509, 0.560486 2.61767, 0.602166 2.53597, 0.621765 2.42997, 0.641639 2.32398, 0.6513 2.16194, 0.6513 1.94388 L 0.6513 1.21957, -1.8777 1.21957, -1.8777 0.888335, 0.783243 -3.01144, 1.43385 -3.01144, 1.43385 0.791173, 1.52936 0.791173 C 1.70546 0.791448, 1.83133 0.779027, 1.90697 0.753908, 1.98288 0.729065, 2.04581 0.6849, 2.09577 0.621413, 2.14601 0.558202, 2.19211 0.454414, 2.23434 0.309773 L 2.58021 0.309773, 2.52555 1.21957, 1.43385 1.21957, 1.43385 1.94388 C 1.43385 2.14152, 1.44075 2.28588, 1.45428 2.37697, 1.46808 2.46834, 1.49071 2.54038, 1.52246 2.59338, 1.55448 2.64638, 1.6014 2.69055, 1.66351 2.72588, 1.72589 2.76121, 1.82664 2.79654, 1.96604 2.8316 L 1.96604 3.04801, 0.119111 3.04801 Z M -1.12717 0.791173 L 0.6513 0.791173, 0.6513 -0.308537 C 0.6513 -0.585121, 0.655993 -0.894828, 0.665102 -1.23794, 0.674211 -1.58077, 0.6847 -1.83941, 0.696845 -2.01331 L 0.6513 -2.01331, -1.12717 0.729341 Z" stroke="none" fill="#000000" transform="matrix(1.12 0 0 1 110.784 10.7093)" />
			<polyline points="-2.70144 3.10666 0 -3.10666" fill="none" stroke="#000000" stroke-width="0.385920018" stroke-linecap="round" stroke-linejoin="round" transform="matrix(-4.37114e-008 -1 1 -4.37114e-008 120.012 7.77599)" />
			<polyline points="0 -3.10666 2.70144 3.10666" fill="none" stroke="#000000" stroke-width="0.385920018" stroke-linecap="round" stroke-linejoin="round" transform="matrix(-4.37114e-008 -1 1 -4.37114e-008 120.012 7.77599)" />
			<ellipse cx="-2.7014403492212296" cy="3.1066562980413437" rx="0.19296000897884369" ry="0.19296000897884369" stroke="none" fill="#000000" transform="matrix(-4.37114e-008 -1 1 -4.37114e-008 120.012 7.77599)" />
			<ellipse cx="-0" cy="-3.1066563278436661" rx="0.19296000897884369" ry="0.19296000897884369" stroke="none" fill="#000000" transform="matrix(-4.37114e-008 -1 1 -4.37114e-008 120.012 7.77599)" />
			<ellipse cx="2.7014403194189072" cy="3.1066562980413437" rx="0.19296000897884369" ry="0.19296000897884369" stroke="none" fill="#000000" transform="matrix(-4.37114e-008 -1 1 -4.37114e-008 120.012 7.77599)" />
			<path d="M 128.259 11.0579 C 127.574 11.0579, 127.065 10.7968, 126.73 10.2734, 126.396 9.75023, 126.228 8.95615, 126.228 7.89084, 126.228 7.32472, 126.28 6.83564, 126.383 6.42302, 126.486 6.01069, 126.63 5.66991, 126.816 5.40041, 127.001 5.1312, 127.224 4.93182, 127.484 4.80255, 127.744 4.67328, 128.027 4.60865, 128.335 4.60836, 129.029 4.60865, 129.546 4.86891, 129.885 5.38887, 130.224 5.90912, 130.394 6.6954, 130.394 7.74773, 130.394 8.83756, 130.212 9.66164, 129.849 10.2203, 129.486 10.7789, 128.956 11.0579, 128.259 11.0579 Z M 127.155 7.75234 C 127.155 8.7559, 127.252 9.49256, 127.443 9.96173, 127.635 10.4312, 127.932 10.6658, 128.335 10.6655, 128.718 10.6658, 129.003 10.445, 129.188 10.0033, 129.374 9.56181, 129.466 8.87767, 129.466 7.95086, 129.466 7.24335, 129.419 6.67001, 129.324 6.23142, 129.229 5.79283, 129.096 5.47832, 128.927 5.2873, 128.757 5.09658, 128.552 5.00107, 128.311 5.00078, 128.092 5.00107, 127.909 5.06426, 127.762 5.19035, 127.615 5.31674, 127.496 5.49823, 127.405 5.73513, 127.315 5.97231, 127.251 6.26085, 127.213 6.60076, 127.174 6.94095, 127.155 7.32472, 127.155 7.75234 Z" stroke="none" fill="#000000" />
			<path d="M 133.697 9.92974 C 133.742 10.15, 133.765 10.3667, 133.765 10.5798, 133.765 10.8001, 133.726 11.0009, 133.648 11.1828, 133.571 11.3651, 133.447 11.5465, 133.277 11.727, 133.108 11.9077, 132.874 12.1062, 132.576 12.3229 L 132.314 12.0355 C 132.479 11.8848, 132.599 11.749, 132.673 11.628, 132.748 11.5073, 132.801 11.3698, 132.833 11.2158, 132.866 11.0621, 132.882 10.869, 132.882 10.6364, 132.882 10.3979, 132.871 10.1623, 132.848 9.92974 Z M 133.755 6.7687 L 133.755 7.87106, 132.785 7.87106, 132.785 6.7687 Z" stroke="none" fill="#000000" />
			<path d="M 142.435 4.59225 C 142.82 4.59254, 143.136 4.62169, 143.384 4.67969, 143.631 4.73799, 143.835 4.8275, 143.995 4.94822, 144.155 5.06923, 144.275 5.22233, 144.354 5.40753, 144.434 5.59303, 144.473 5.80796, 144.473 6.05264, 144.473 6.52402, 144.358 6.9324, 144.129 7.27777, 143.899 7.62344, 143.588 7.87783, 143.195 8.04095, 142.802 8.20436, 142.33 8.28591, 141.78 8.28562, 141.45 8.28591, 141.175 8.27973, 140.955 8.26678 L 140.645 9.65179 C 140.616 9.78075, 140.595 9.87998, 140.584 9.94888, 140.573 10.0181, 140.563 10.0926, 140.555 10.1726, 140.547 10.2527, 140.543 10.3243, 140.543 10.3867, 140.543 10.4845, 140.559 10.5607, 140.591 10.6155, 140.624 10.6705, 140.672 10.7106, 140.737 10.7356, 140.802 10.7609, 140.913 10.7795, 141.071 10.7918 L 141.018 11.0227, 139.024 11.0227, 139.077 10.7918 C 139.2 10.7733, 139.292 10.7427, 139.354 10.7003, 139.416 10.6579, 139.467 10.599, 139.509 10.5236, 139.551 10.4482, 139.59 10.3564, 139.626 10.248, 139.661 10.1397, 139.715 9.93003, 139.786 9.61882 L 140.611 5.99139 C 140.682 5.67753, 140.717 5.42961, 140.717 5.24707, 140.717 5.09337, 140.68 4.98679, 140.606 4.92702, 140.531 4.86754, 140.41 4.8328, 140.242 4.82308 L 140.295 4.59225 Z M 141.542 7.87577 C 141.934 7.87606, 142.25 7.8369, 142.491 7.75829, 142.732 7.67997, 142.929 7.55807, 143.083 7.39319, 143.236 7.22831, 143.355 7.03281, 143.44 6.80668, 143.524 6.58056, 143.566 6.33235, 143.566 6.06206, 143.566 5.7953, 143.517 5.58508, 143.42 5.43109, 143.323 5.27739, 143.185 5.16816, 143.008 5.10368, 142.83 5.03949, 142.603 5.0071, 142.328 5.00681, 142.128 5.0071, 141.918 5.01181, 141.697 5.02094 L 141.038 7.87577 Z" stroke="none" fill="#000000" />
			<polyline points="-2.70144 3.10666 0 -3.10666" fill="none" stroke="#000000" stroke-width="0.385920018" stroke-linecap="round" stroke-linejoin="round" transform="matrix(-4.37114e-008 -1 1 -4.37114e-008 150.577 7.77599)" />
			<polyline points="0 -3.10666 2.70144 3.10666" fill="none" stroke="#000000" stroke-width="0.385920018" stroke-linecap="round" stroke-linejoin="round" transform="matrix(-4.37114e-008 -1 1 -4.37114e-008 150.577 7.77599)" />
			<ellipse cx="-2.7014403492212296" cy="3.1066562980413437" rx="0.19296000897884369" ry="0.19296000897884369" stroke="none" fill="#000000" transform="matrix(-4.37114e-008 -1 1 -4.37114e-008 150.577 7.77599)" />
			<ellipse cx="-0" cy="-3.1066563278436661" rx="0.19296000897884369" ry="0.19296000897884369" stroke="none" fill="#000000" transform="matrix(-4.37114e-008 -1 1 -4.37114e-008 150.577 7.77599)" />
			<ellipse cx="2.7014403194189072" cy="3.1066562980413437" rx="0.19296000897884369" ry="0.19296000897884369" stroke="none" fill="#000000" transform="matrix(-4.37114e-008 -1 1 -4.37114e-008 150.577 7.77599)" />
			<path d="M 158.823 11.0579 C 158.139 11.0579, 157.629 10.7968, 157.295 10.2734, 156.96 9.75023, 156.793 8.95615, 156.793 7.89084, 156.793 7.32472, 156.844 6.83564, 156.947 6.42302, 157.05 6.01069, 157.195 5.66991, 157.38 5.40041, 157.566 5.1312, 157.788 4.93182, 158.048 4.80255, 158.308 4.67328, 158.592 4.60865, 158.899 4.60836, 159.593 4.60865, 160.11 4.86891, 160.45 5.38887, 160.789 5.90912, 160.958 6.6954, 160.958 7.74773, 160.958 8.83756, 160.777 9.66164, 160.414 10.2203, 160.051 10.7789, 159.521 11.0579, 158.823 11.0579 Z M 157.72 7.75234 C 157.72 8.7559, 157.816 9.49256, 158.008 9.96173, 158.199 10.4312, 158.497 10.6658, 158.899 10.6655, 159.283 10.6658, 159.567 10.445, 159.753 10.0033, 159.938 9.56181, 160.031 8.87767, 160.031 7.95086, 160.031 7.24335, 159.984 6.67001, 159.888 6.23142, 159.793 5.79283, 159.661 5.47832, 159.491 5.2873, 159.322 5.09658, 159.116 5.00107, 158.875 5.00078, 158.657 5.00107, 158.474 5.06426, 158.326 5.19035, 158.179 5.31674, 158.06 5.49823, 157.97 5.73513, 157.879 5.97231, 157.815 6.26085, 157.777 6.60076, 157.739 6.94095, 157.72 7.32472, 157.72 7.75234 Z" stroke="none" fill="#000000" />
			<rect x="163.050507" y="9.92973709" width="0.980178833" height="1.09293842" stroke="none" fill="#000000" />
			<path d="M 168.162 11.0579 C 167.477 11.0579, 166.968 10.7968, 166.633 10.2734, 166.299 9.75023, 166.131 8.95615, 166.131 7.89084, 166.131 7.32472, 166.183 6.83564, 166.286 6.42302, 166.389 6.01069, 166.533 5.66991, 166.719 5.40041, 166.904 5.1312, 167.127 4.93182, 167.387 4.80255, 167.647 4.67328, 167.931 4.60865, 168.238 4.60836, 168.932 4.60865, 169.449 4.86891, 169.788 5.38887, 170.128 5.90912, 170.297 6.6954, 170.297 7.74773, 170.297 8.83756, 170.115 9.66164, 169.752 10.2203, 169.389 10.7789, 168.859 11.0579, 168.162 11.0579 Z M 167.059 7.75234 C 167.059 8.7559, 167.155 9.49256, 167.346 9.96173, 167.538 10.4312, 167.835 10.6658, 168.238 10.6655, 168.622 10.6658, 168.906 10.445, 169.091 10.0033, 169.277 9.56181, 169.37 8.87767, 169.37 7.95086, 169.37 7.24335, 169.322 6.67001, 169.227 6.23142, 169.132 5.79283, 169 5.47832, 168.83 5.2873, 168.66 5.09658, 168.455 5.00107, 168.214 5.00078, 167.995 5.00107, 167.813 5.06426, 167.665 5.19035, 167.518 5.31674, 167.399 5.49823, 167.308 5.73513, 167.218 5.97231, 167.154 6.26085, 167.116 6.60076, 167.078 6.94095, 167.059 7.32472, 167.059 7.75234 Z" stroke="none" fill="#000000" />
			<path d="M 171.665 10.7301 L 171.665 9.75138, 172.24 9.75138 C 172.335 10.0656, 172.479 10.2964, 172.67 10.4442, 172.862 10.5919, 173.11 10.6658, 173.415 10.6655, 173.836 10.6658, 174.155 10.5429, 174.371 10.2964, 174.586 10.0503, 174.694 9.68242, 174.694 9.19276, 174.694 8.8667, 174.637 8.59691, 174.523 8.38281, 174.409 8.169, 174.255 8.01434, 174.061 7.91883, 173.868 7.82361, 173.643 7.77572, 173.386 7.77543, 173.171 7.77572, 172.985 7.78899, 172.83 7.81496, 172.675 7.84122, 172.508 7.8819, 172.331 7.93701 L 171.95 7.72003, 171.95 4.68222, 174.57 4.68222 C 174.678 4.68251, 174.756 4.67415, 174.803 4.65712, 174.851 4.64039, 174.889 4.61413, 174.917 4.57864, 174.946 4.54344, 174.979 4.4762, 175.017 4.37752 L 175.388 4.37752, 175.317 5.4486, 172.582 5.4486, 172.582 7.47534 C 172.747 7.40782, 172.927 7.35733, 173.12 7.32328, 173.313 7.28952, 173.507 7.27249, 173.7 7.2722, 174.077 7.27249, 174.412 7.34723, 174.703 7.4964, 174.995 7.64587, 175.22 7.85824, 175.378 8.13351, 175.537 8.40907, 175.616 8.7282, 175.616 9.09119, 175.616 9.50381, 175.528 9.85786, 175.35 10.1533, 175.173 10.4488, 174.916 10.6736, 174.58 10.8274, 174.244 10.9814, 173.846 11.0579, 173.386 11.0579, 172.838 11.0579, 172.264 10.9488, 171.665 10.7301 Z" stroke="none" fill="#000000" />
			<rect />
		</svg>
	</g>
</svg>
